G04 #@! TF.GenerationSoftware,KiCad,Pcbnew,7.0.9-7.0.9~ubuntu22.04.1*
G04 #@! TF.CreationDate,2023-12-06T13:17:01-05:00*
G04 #@! TF.ProjectId,caravel-breakout-qfn,63617261-7665-46c2-9d62-7265616b6f75,2.3*
G04 #@! TF.SameCoordinates,PX2dc6c00PY42c1d80*
G04 #@! TF.FileFunction,AssemblyDrawing,Top*
%FSLAX46Y46*%
G04 Gerber Fmt 4.6, Leading zero omitted, Abs format (unit mm)*
G04 Created by KiCad (PCBNEW 7.0.9-7.0.9~ubuntu22.04.1) date 2023-12-06 13:17:01*
%MOMM*%
%LPD*%
G01*
G04 APERTURE LIST*
%ADD10C,0.150000*%
%ADD11C,0.040000*%
%ADD12C,0.100000*%
G04 APERTURE END LIST*
D10*
X20238095Y29045181D02*
X20238095Y28235658D01*
X20238095Y28235658D02*
X20285714Y28140420D01*
X20285714Y28140420D02*
X20333333Y28092800D01*
X20333333Y28092800D02*
X20428571Y28045181D01*
X20428571Y28045181D02*
X20619047Y28045181D01*
X20619047Y28045181D02*
X20714285Y28092800D01*
X20714285Y28092800D02*
X20761904Y28140420D01*
X20761904Y28140420D02*
X20809523Y28235658D01*
X20809523Y28235658D02*
X20809523Y29045181D01*
X21809523Y28045181D02*
X21238095Y28045181D01*
X21523809Y28045181D02*
X21523809Y29045181D01*
X21523809Y29045181D02*
X21428571Y28902324D01*
X21428571Y28902324D02*
X21333333Y28807086D01*
X21333333Y28807086D02*
X21238095Y28759467D01*
D11*
X25089765Y22178334D02*
X25101670Y22166430D01*
X25101670Y22166430D02*
X25113574Y22130715D01*
X25113574Y22130715D02*
X25113574Y22106906D01*
X25113574Y22106906D02*
X25101670Y22071192D01*
X25101670Y22071192D02*
X25077860Y22047382D01*
X25077860Y22047382D02*
X25054050Y22035477D01*
X25054050Y22035477D02*
X25006431Y22023573D01*
X25006431Y22023573D02*
X24970717Y22023573D01*
X24970717Y22023573D02*
X24923098Y22035477D01*
X24923098Y22035477D02*
X24899289Y22047382D01*
X24899289Y22047382D02*
X24875479Y22071192D01*
X24875479Y22071192D02*
X24863574Y22106906D01*
X24863574Y22106906D02*
X24863574Y22130715D01*
X24863574Y22130715D02*
X24875479Y22166430D01*
X24875479Y22166430D02*
X24887384Y22178334D01*
X24863574Y22261668D02*
X24863574Y22428334D01*
X24863574Y22428334D02*
X25113574Y22321192D01*
X16989765Y22208334D02*
X17001670Y22196430D01*
X17001670Y22196430D02*
X17013574Y22160715D01*
X17013574Y22160715D02*
X17013574Y22136906D01*
X17013574Y22136906D02*
X17001670Y22101192D01*
X17001670Y22101192D02*
X16977860Y22077382D01*
X16977860Y22077382D02*
X16954050Y22065477D01*
X16954050Y22065477D02*
X16906431Y22053573D01*
X16906431Y22053573D02*
X16870717Y22053573D01*
X16870717Y22053573D02*
X16823098Y22065477D01*
X16823098Y22065477D02*
X16799289Y22077382D01*
X16799289Y22077382D02*
X16775479Y22101192D01*
X16775479Y22101192D02*
X16763574Y22136906D01*
X16763574Y22136906D02*
X16763574Y22160715D01*
X16763574Y22160715D02*
X16775479Y22196430D01*
X16775479Y22196430D02*
X16787384Y22208334D01*
X17013574Y22446430D02*
X17013574Y22303573D01*
X17013574Y22375001D02*
X16763574Y22375001D01*
X16763574Y22375001D02*
X16799289Y22351192D01*
X16799289Y22351192D02*
X16823098Y22327382D01*
X16823098Y22327382D02*
X16835003Y22303573D01*
X14358333Y28910235D02*
X14346429Y28898330D01*
X14346429Y28898330D02*
X14310714Y28886426D01*
X14310714Y28886426D02*
X14286905Y28886426D01*
X14286905Y28886426D02*
X14251191Y28898330D01*
X14251191Y28898330D02*
X14227381Y28922140D01*
X14227381Y28922140D02*
X14215476Y28945950D01*
X14215476Y28945950D02*
X14203572Y28993569D01*
X14203572Y28993569D02*
X14203572Y29029283D01*
X14203572Y29029283D02*
X14215476Y29076902D01*
X14215476Y29076902D02*
X14227381Y29100711D01*
X14227381Y29100711D02*
X14251191Y29124521D01*
X14251191Y29124521D02*
X14286905Y29136426D01*
X14286905Y29136426D02*
X14310714Y29136426D01*
X14310714Y29136426D02*
X14346429Y29124521D01*
X14346429Y29124521D02*
X14358333Y29112616D01*
X14453572Y29112616D02*
X14465476Y29124521D01*
X14465476Y29124521D02*
X14489286Y29136426D01*
X14489286Y29136426D02*
X14548810Y29136426D01*
X14548810Y29136426D02*
X14572619Y29124521D01*
X14572619Y29124521D02*
X14584524Y29112616D01*
X14584524Y29112616D02*
X14596429Y29088807D01*
X14596429Y29088807D02*
X14596429Y29064997D01*
X14596429Y29064997D02*
X14584524Y29029283D01*
X14584524Y29029283D02*
X14441667Y28886426D01*
X14441667Y28886426D02*
X14596429Y28886426D01*
X25539765Y34878334D02*
X25551670Y34866430D01*
X25551670Y34866430D02*
X25563574Y34830715D01*
X25563574Y34830715D02*
X25563574Y34806906D01*
X25563574Y34806906D02*
X25551670Y34771192D01*
X25551670Y34771192D02*
X25527860Y34747382D01*
X25527860Y34747382D02*
X25504050Y34735477D01*
X25504050Y34735477D02*
X25456431Y34723573D01*
X25456431Y34723573D02*
X25420717Y34723573D01*
X25420717Y34723573D02*
X25373098Y34735477D01*
X25373098Y34735477D02*
X25349289Y34747382D01*
X25349289Y34747382D02*
X25325479Y34771192D01*
X25325479Y34771192D02*
X25313574Y34806906D01*
X25313574Y34806906D02*
X25313574Y34830715D01*
X25313574Y34830715D02*
X25325479Y34866430D01*
X25325479Y34866430D02*
X25337384Y34878334D01*
X25313574Y35092620D02*
X25313574Y35045001D01*
X25313574Y35045001D02*
X25325479Y35021192D01*
X25325479Y35021192D02*
X25337384Y35009287D01*
X25337384Y35009287D02*
X25373098Y34985477D01*
X25373098Y34985477D02*
X25420717Y34973573D01*
X25420717Y34973573D02*
X25515955Y34973573D01*
X25515955Y34973573D02*
X25539765Y34985477D01*
X25539765Y34985477D02*
X25551670Y34997382D01*
X25551670Y34997382D02*
X25563574Y35021192D01*
X25563574Y35021192D02*
X25563574Y35068811D01*
X25563574Y35068811D02*
X25551670Y35092620D01*
X25551670Y35092620D02*
X25539765Y35104525D01*
X25539765Y35104525D02*
X25515955Y35116430D01*
X25515955Y35116430D02*
X25456431Y35116430D01*
X25456431Y35116430D02*
X25432622Y35104525D01*
X25432622Y35104525D02*
X25420717Y35092620D01*
X25420717Y35092620D02*
X25408812Y35068811D01*
X25408812Y35068811D02*
X25408812Y35021192D01*
X25408812Y35021192D02*
X25420717Y34997382D01*
X25420717Y34997382D02*
X25432622Y34985477D01*
X25432622Y34985477D02*
X25456431Y34973573D01*
X24539765Y34858334D02*
X24551670Y34846430D01*
X24551670Y34846430D02*
X24563574Y34810715D01*
X24563574Y34810715D02*
X24563574Y34786906D01*
X24563574Y34786906D02*
X24551670Y34751192D01*
X24551670Y34751192D02*
X24527860Y34727382D01*
X24527860Y34727382D02*
X24504050Y34715477D01*
X24504050Y34715477D02*
X24456431Y34703573D01*
X24456431Y34703573D02*
X24420717Y34703573D01*
X24420717Y34703573D02*
X24373098Y34715477D01*
X24373098Y34715477D02*
X24349289Y34727382D01*
X24349289Y34727382D02*
X24325479Y34751192D01*
X24325479Y34751192D02*
X24313574Y34786906D01*
X24313574Y34786906D02*
X24313574Y34810715D01*
X24313574Y34810715D02*
X24325479Y34846430D01*
X24325479Y34846430D02*
X24337384Y34858334D01*
X24396908Y35072620D02*
X24563574Y35072620D01*
X24301670Y35013096D02*
X24480241Y34953573D01*
X24480241Y34953573D02*
X24480241Y35108334D01*
X18489765Y34958334D02*
X18501670Y34946430D01*
X18501670Y34946430D02*
X18513574Y34910715D01*
X18513574Y34910715D02*
X18513574Y34886906D01*
X18513574Y34886906D02*
X18501670Y34851192D01*
X18501670Y34851192D02*
X18477860Y34827382D01*
X18477860Y34827382D02*
X18454050Y34815477D01*
X18454050Y34815477D02*
X18406431Y34803573D01*
X18406431Y34803573D02*
X18370717Y34803573D01*
X18370717Y34803573D02*
X18323098Y34815477D01*
X18323098Y34815477D02*
X18299289Y34827382D01*
X18299289Y34827382D02*
X18275479Y34851192D01*
X18275479Y34851192D02*
X18263574Y34886906D01*
X18263574Y34886906D02*
X18263574Y34910715D01*
X18263574Y34910715D02*
X18275479Y34946430D01*
X18275479Y34946430D02*
X18287384Y34958334D01*
X18263574Y35041668D02*
X18263574Y35196430D01*
X18263574Y35196430D02*
X18358812Y35113096D01*
X18358812Y35113096D02*
X18358812Y35148811D01*
X18358812Y35148811D02*
X18370717Y35172620D01*
X18370717Y35172620D02*
X18382622Y35184525D01*
X18382622Y35184525D02*
X18406431Y35196430D01*
X18406431Y35196430D02*
X18465955Y35196430D01*
X18465955Y35196430D02*
X18489765Y35184525D01*
X18489765Y35184525D02*
X18501670Y35172620D01*
X18501670Y35172620D02*
X18513574Y35148811D01*
X18513574Y35148811D02*
X18513574Y35077382D01*
X18513574Y35077382D02*
X18501670Y35053573D01*
X18501670Y35053573D02*
X18489765Y35041668D01*
X27708333Y28760235D02*
X27696429Y28748330D01*
X27696429Y28748330D02*
X27660714Y28736426D01*
X27660714Y28736426D02*
X27636905Y28736426D01*
X27636905Y28736426D02*
X27601191Y28748330D01*
X27601191Y28748330D02*
X27577381Y28772140D01*
X27577381Y28772140D02*
X27565476Y28795950D01*
X27565476Y28795950D02*
X27553572Y28843569D01*
X27553572Y28843569D02*
X27553572Y28879283D01*
X27553572Y28879283D02*
X27565476Y28926902D01*
X27565476Y28926902D02*
X27577381Y28950711D01*
X27577381Y28950711D02*
X27601191Y28974521D01*
X27601191Y28974521D02*
X27636905Y28986426D01*
X27636905Y28986426D02*
X27660714Y28986426D01*
X27660714Y28986426D02*
X27696429Y28974521D01*
X27696429Y28974521D02*
X27708333Y28962616D01*
X27934524Y28986426D02*
X27815476Y28986426D01*
X27815476Y28986426D02*
X27803572Y28867378D01*
X27803572Y28867378D02*
X27815476Y28879283D01*
X27815476Y28879283D02*
X27839286Y28891188D01*
X27839286Y28891188D02*
X27898810Y28891188D01*
X27898810Y28891188D02*
X27922619Y28879283D01*
X27922619Y28879283D02*
X27934524Y28867378D01*
X27934524Y28867378D02*
X27946429Y28843569D01*
X27946429Y28843569D02*
X27946429Y28784045D01*
X27946429Y28784045D02*
X27934524Y28760235D01*
X27934524Y28760235D02*
X27922619Y28748330D01*
X27922619Y28748330D02*
X27898810Y28736426D01*
X27898810Y28736426D02*
X27839286Y28736426D01*
X27839286Y28736426D02*
X27815476Y28748330D01*
X27815476Y28748330D02*
X27803572Y28760235D01*
D10*
X36485714Y740420D02*
X36438095Y692800D01*
X36438095Y692800D02*
X36295238Y645181D01*
X36295238Y645181D02*
X36200000Y645181D01*
X36200000Y645181D02*
X36057143Y692800D01*
X36057143Y692800D02*
X35961905Y788039D01*
X35961905Y788039D02*
X35914286Y883277D01*
X35914286Y883277D02*
X35866667Y1073753D01*
X35866667Y1073753D02*
X35866667Y1216610D01*
X35866667Y1216610D02*
X35914286Y1407086D01*
X35914286Y1407086D02*
X35961905Y1502324D01*
X35961905Y1502324D02*
X36057143Y1597562D01*
X36057143Y1597562D02*
X36200000Y1645181D01*
X36200000Y1645181D02*
X36295238Y1645181D01*
X36295238Y1645181D02*
X36438095Y1597562D01*
X36438095Y1597562D02*
X36485714Y1549943D01*
X37104762Y1645181D02*
X37295238Y1645181D01*
X37295238Y1645181D02*
X37390476Y1597562D01*
X37390476Y1597562D02*
X37485714Y1502324D01*
X37485714Y1502324D02*
X37533333Y1311848D01*
X37533333Y1311848D02*
X37533333Y978515D01*
X37533333Y978515D02*
X37485714Y788039D01*
X37485714Y788039D02*
X37390476Y692800D01*
X37390476Y692800D02*
X37295238Y645181D01*
X37295238Y645181D02*
X37104762Y645181D01*
X37104762Y645181D02*
X37009524Y692800D01*
X37009524Y692800D02*
X36914286Y788039D01*
X36914286Y788039D02*
X36866667Y978515D01*
X36866667Y978515D02*
X36866667Y1311848D01*
X36866667Y1311848D02*
X36914286Y1502324D01*
X36914286Y1502324D02*
X37009524Y1597562D01*
X37009524Y1597562D02*
X37104762Y1645181D01*
X37961905Y645181D02*
X37961905Y1645181D01*
X37961905Y1645181D02*
X38533333Y645181D01*
X38533333Y645181D02*
X38533333Y1645181D01*
X38961905Y1549943D02*
X39009524Y1597562D01*
X39009524Y1597562D02*
X39104762Y1645181D01*
X39104762Y1645181D02*
X39342857Y1645181D01*
X39342857Y1645181D02*
X39438095Y1597562D01*
X39438095Y1597562D02*
X39485714Y1549943D01*
X39485714Y1549943D02*
X39533333Y1454705D01*
X39533333Y1454705D02*
X39533333Y1359467D01*
X39533333Y1359467D02*
X39485714Y1216610D01*
X39485714Y1216610D02*
X38914286Y645181D01*
X38914286Y645181D02*
X39533333Y645181D01*
D11*
X26139765Y22039286D02*
X26151670Y22027382D01*
X26151670Y22027382D02*
X26163574Y21991667D01*
X26163574Y21991667D02*
X26163574Y21967858D01*
X26163574Y21967858D02*
X26151670Y21932144D01*
X26151670Y21932144D02*
X26127860Y21908334D01*
X26127860Y21908334D02*
X26104050Y21896429D01*
X26104050Y21896429D02*
X26056431Y21884525D01*
X26056431Y21884525D02*
X26020717Y21884525D01*
X26020717Y21884525D02*
X25973098Y21896429D01*
X25973098Y21896429D02*
X25949289Y21908334D01*
X25949289Y21908334D02*
X25925479Y21932144D01*
X25925479Y21932144D02*
X25913574Y21967858D01*
X25913574Y21967858D02*
X25913574Y21991667D01*
X25913574Y21991667D02*
X25925479Y22027382D01*
X25925479Y22027382D02*
X25937384Y22039286D01*
X26163574Y22277382D02*
X26163574Y22134525D01*
X26163574Y22205953D02*
X25913574Y22205953D01*
X25913574Y22205953D02*
X25949289Y22182144D01*
X25949289Y22182144D02*
X25973098Y22158334D01*
X25973098Y22158334D02*
X25985003Y22134525D01*
X26163574Y22515477D02*
X26163574Y22372620D01*
X26163574Y22444048D02*
X25913574Y22444048D01*
X25913574Y22444048D02*
X25949289Y22420239D01*
X25949289Y22420239D02*
X25973098Y22396429D01*
X25973098Y22396429D02*
X25985003Y22372620D01*
X14239285Y24910235D02*
X14227381Y24898330D01*
X14227381Y24898330D02*
X14191666Y24886426D01*
X14191666Y24886426D02*
X14167857Y24886426D01*
X14167857Y24886426D02*
X14132143Y24898330D01*
X14132143Y24898330D02*
X14108333Y24922140D01*
X14108333Y24922140D02*
X14096428Y24945950D01*
X14096428Y24945950D02*
X14084524Y24993569D01*
X14084524Y24993569D02*
X14084524Y25029283D01*
X14084524Y25029283D02*
X14096428Y25076902D01*
X14096428Y25076902D02*
X14108333Y25100711D01*
X14108333Y25100711D02*
X14132143Y25124521D01*
X14132143Y25124521D02*
X14167857Y25136426D01*
X14167857Y25136426D02*
X14191666Y25136426D01*
X14191666Y25136426D02*
X14227381Y25124521D01*
X14227381Y25124521D02*
X14239285Y25112616D01*
X14477381Y24886426D02*
X14334524Y24886426D01*
X14405952Y24886426D02*
X14405952Y25136426D01*
X14405952Y25136426D02*
X14382143Y25100711D01*
X14382143Y25100711D02*
X14358333Y25076902D01*
X14358333Y25076902D02*
X14334524Y25064997D01*
X14632142Y25136426D02*
X14655952Y25136426D01*
X14655952Y25136426D02*
X14679761Y25124521D01*
X14679761Y25124521D02*
X14691666Y25112616D01*
X14691666Y25112616D02*
X14703571Y25088807D01*
X14703571Y25088807D02*
X14715476Y25041188D01*
X14715476Y25041188D02*
X14715476Y24981664D01*
X14715476Y24981664D02*
X14703571Y24934045D01*
X14703571Y24934045D02*
X14691666Y24910235D01*
X14691666Y24910235D02*
X14679761Y24898330D01*
X14679761Y24898330D02*
X14655952Y24886426D01*
X14655952Y24886426D02*
X14632142Y24886426D01*
X14632142Y24886426D02*
X14608333Y24898330D01*
X14608333Y24898330D02*
X14596428Y24910235D01*
X14596428Y24910235D02*
X14584523Y24934045D01*
X14584523Y24934045D02*
X14572619Y24981664D01*
X14572619Y24981664D02*
X14572619Y25041188D01*
X14572619Y25041188D02*
X14584523Y25088807D01*
X14584523Y25088807D02*
X14596428Y25112616D01*
X14596428Y25112616D02*
X14608333Y25124521D01*
X14608333Y25124521D02*
X14632142Y25136426D01*
D10*
X22759580Y3185715D02*
X22807200Y3138096D01*
X22807200Y3138096D02*
X22854819Y2995239D01*
X22854819Y2995239D02*
X22854819Y2900001D01*
X22854819Y2900001D02*
X22807200Y2757144D01*
X22807200Y2757144D02*
X22711961Y2661906D01*
X22711961Y2661906D02*
X22616723Y2614287D01*
X22616723Y2614287D02*
X22426247Y2566668D01*
X22426247Y2566668D02*
X22283390Y2566668D01*
X22283390Y2566668D02*
X22092914Y2614287D01*
X22092914Y2614287D02*
X21997676Y2661906D01*
X21997676Y2661906D02*
X21902438Y2757144D01*
X21902438Y2757144D02*
X21854819Y2900001D01*
X21854819Y2900001D02*
X21854819Y2995239D01*
X21854819Y2995239D02*
X21902438Y3138096D01*
X21902438Y3138096D02*
X21950057Y3185715D01*
X21854819Y3804763D02*
X21854819Y3995239D01*
X21854819Y3995239D02*
X21902438Y4090477D01*
X21902438Y4090477D02*
X21997676Y4185715D01*
X21997676Y4185715D02*
X22188152Y4233334D01*
X22188152Y4233334D02*
X22521485Y4233334D01*
X22521485Y4233334D02*
X22711961Y4185715D01*
X22711961Y4185715D02*
X22807200Y4090477D01*
X22807200Y4090477D02*
X22854819Y3995239D01*
X22854819Y3995239D02*
X22854819Y3804763D01*
X22854819Y3804763D02*
X22807200Y3709525D01*
X22807200Y3709525D02*
X22711961Y3614287D01*
X22711961Y3614287D02*
X22521485Y3566668D01*
X22521485Y3566668D02*
X22188152Y3566668D01*
X22188152Y3566668D02*
X21997676Y3614287D01*
X21997676Y3614287D02*
X21902438Y3709525D01*
X21902438Y3709525D02*
X21854819Y3804763D01*
X22854819Y4661906D02*
X21854819Y4661906D01*
X21854819Y4661906D02*
X22854819Y5233334D01*
X22854819Y5233334D02*
X21854819Y5233334D01*
X21854819Y5614287D02*
X21854819Y6233334D01*
X21854819Y6233334D02*
X22235771Y5900001D01*
X22235771Y5900001D02*
X22235771Y6042858D01*
X22235771Y6042858D02*
X22283390Y6138096D01*
X22283390Y6138096D02*
X22331009Y6185715D01*
X22331009Y6185715D02*
X22426247Y6233334D01*
X22426247Y6233334D02*
X22664342Y6233334D01*
X22664342Y6233334D02*
X22759580Y6185715D01*
X22759580Y6185715D02*
X22807200Y6138096D01*
X22807200Y6138096D02*
X22854819Y6042858D01*
X22854819Y6042858D02*
X22854819Y5757144D01*
X22854819Y5757144D02*
X22807200Y5661906D01*
X22807200Y5661906D02*
X22759580Y5614287D01*
X6385714Y1040420D02*
X6338095Y992800D01*
X6338095Y992800D02*
X6195238Y945181D01*
X6195238Y945181D02*
X6100000Y945181D01*
X6100000Y945181D02*
X5957143Y992800D01*
X5957143Y992800D02*
X5861905Y1088039D01*
X5861905Y1088039D02*
X5814286Y1183277D01*
X5814286Y1183277D02*
X5766667Y1373753D01*
X5766667Y1373753D02*
X5766667Y1516610D01*
X5766667Y1516610D02*
X5814286Y1707086D01*
X5814286Y1707086D02*
X5861905Y1802324D01*
X5861905Y1802324D02*
X5957143Y1897562D01*
X5957143Y1897562D02*
X6100000Y1945181D01*
X6100000Y1945181D02*
X6195238Y1945181D01*
X6195238Y1945181D02*
X6338095Y1897562D01*
X6338095Y1897562D02*
X6385714Y1849943D01*
X7004762Y1945181D02*
X7195238Y1945181D01*
X7195238Y1945181D02*
X7290476Y1897562D01*
X7290476Y1897562D02*
X7385714Y1802324D01*
X7385714Y1802324D02*
X7433333Y1611848D01*
X7433333Y1611848D02*
X7433333Y1278515D01*
X7433333Y1278515D02*
X7385714Y1088039D01*
X7385714Y1088039D02*
X7290476Y992800D01*
X7290476Y992800D02*
X7195238Y945181D01*
X7195238Y945181D02*
X7004762Y945181D01*
X7004762Y945181D02*
X6909524Y992800D01*
X6909524Y992800D02*
X6814286Y1088039D01*
X6814286Y1088039D02*
X6766667Y1278515D01*
X6766667Y1278515D02*
X6766667Y1611848D01*
X6766667Y1611848D02*
X6814286Y1802324D01*
X6814286Y1802324D02*
X6909524Y1897562D01*
X6909524Y1897562D02*
X7004762Y1945181D01*
X7861905Y945181D02*
X7861905Y1945181D01*
X7861905Y1945181D02*
X8433333Y945181D01*
X8433333Y945181D02*
X8433333Y1945181D01*
X9433333Y945181D02*
X8861905Y945181D01*
X9147619Y945181D02*
X9147619Y1945181D01*
X9147619Y1945181D02*
X9052381Y1802324D01*
X9052381Y1802324D02*
X8957143Y1707086D01*
X8957143Y1707086D02*
X8861905Y1659467D01*
D12*
X16500000Y33000000D02*
X25500000Y33000000D01*
X25500000Y33000000D02*
X25500000Y25000000D01*
X16500000Y24000000D02*
X16500000Y33000000D01*
X24500000Y24000000D02*
X16500000Y24000000D01*
X25500000Y25000000D02*
X24500000Y24000000D01*
X24750000Y21720000D02*
X24750000Y22720000D01*
X25250000Y21720000D02*
X24750000Y21720000D01*
X24750000Y22720000D02*
X25250000Y22720000D01*
X25250000Y22720000D02*
X25250000Y21720000D01*
X16650000Y21750000D02*
X16650000Y22750000D01*
X17150000Y21750000D02*
X16650000Y21750000D01*
X16650000Y22750000D02*
X17150000Y22750000D01*
X17150000Y22750000D02*
X17150000Y21750000D01*
X14900000Y28750000D02*
X13900000Y28750000D01*
X14900000Y29250000D02*
X14900000Y28750000D01*
X13900000Y28750000D02*
X13900000Y29250000D01*
X13900000Y29250000D02*
X14900000Y29250000D01*
X25700000Y35420000D02*
X25700000Y34420000D01*
X25200000Y35420000D02*
X25700000Y35420000D01*
X25700000Y34420000D02*
X25200000Y34420000D01*
X25200000Y34420000D02*
X25200000Y35420000D01*
X24700000Y35400000D02*
X24700000Y34400000D01*
X24200000Y35400000D02*
X24700000Y35400000D01*
X24700000Y34400000D02*
X24200000Y34400000D01*
X24200000Y34400000D02*
X24200000Y35400000D01*
X18150000Y34500000D02*
X18150000Y35500000D01*
X18650000Y34500000D02*
X18150000Y34500000D01*
X18150000Y35500000D02*
X18650000Y35500000D01*
X18650000Y35500000D02*
X18650000Y34500000D01*
X28250000Y28600000D02*
X27250000Y28600000D01*
X28250000Y29100000D02*
X28250000Y28600000D01*
X27250000Y28600000D02*
X27250000Y29100000D01*
X27250000Y29100000D02*
X28250000Y29100000D01*
X25800000Y21700000D02*
X25800000Y22700000D01*
X26300000Y21700000D02*
X25800000Y21700000D01*
X25800000Y22700000D02*
X26300000Y22700000D01*
X26300000Y22700000D02*
X26300000Y21700000D01*
X14900000Y24750000D02*
X13900000Y24750000D01*
X14900000Y25250000D02*
X14900000Y24750000D01*
X13900000Y24750000D02*
X13900000Y25250000D01*
X13900000Y25250000D02*
X14900000Y25250000D01*
M02*
