M48
; DRILL file {KiCad 7.0.9-7.0.9~ubuntu22.04.1} date Wed 06 Dec 2023 01:17:06 PM
; FORMAT={-:-/ absolute / metric / decimal}
; #@! TF.CreationDate,2023-12-06T13:17:06-05:00
; #@! TF.GenerationSoftware,Kicad,Pcbnew,7.0.9-7.0.9~ubuntu22.04.1
; #@! TF.FileFunction,Plated,1,2,PTH
FMAT,2
METRIC
; #@! TA.AperFunction,Plated,PTH,ViaDrill
T1C0.300
; #@! TA.AperFunction,Plated,PTH,ComponentDrill
T2C0.300
; #@! TA.AperFunction,Plated,PTH,ComponentDrill
T3C1.500
; #@! TA.AperFunction,Plated,PTH,ComponentDrill
T4C1.600
%
G90
G05
T1
X1.25Y21.351
X1.5Y43.25
X1.75Y10.75
X2.0Y40.0
X2.0Y37.5
X2.0Y28.75
X2.68Y41.07
X2.75Y44.0
X3.25Y4.75
X3.37Y39.37
X3.37Y34.77
X3.37Y31.581
X3.75Y23.0
X4.5Y38.75
X4.5Y20.5
X4.75Y49.1
X4.75Y46.55
X4.75Y41.75
X4.75Y5.75
X4.75Y3.25
X5.223Y29.989
X5.25Y33.639
X6.9Y41.75
X7.2Y31.9
X7.33Y8.25
X7.387Y26.637
X7.6Y27.8
X7.75Y45.425
X7.85Y25.8
X8.25Y13.5
X9.5Y23.5
X10.5Y5.75
X10.5Y3.5
X10.975Y22.075
X11.5Y35.0
X11.672Y40.267
X11.749Y31.703
X11.75Y27.5
X12.21Y38.04
X12.25Y30.0
X12.3Y34.329
X12.4Y36.6
X12.5Y43.0
X12.5Y24.75
X13.25Y19.75
X13.4Y40.1
X13.823Y25.105
X14.03Y29.372
X14.06Y37.19
X14.1Y30.393
X14.675Y27.409
X14.715Y42.074
X14.755Y32.31
X14.856Y25.097
X14.979Y29.32
X15.0Y45.25
X15.542Y27.633
X15.826Y21.852
X15.885Y22.8
X16.134Y47.034
X16.575Y19.25
X17.0Y46.75
X17.525Y19.25
X17.75Y18.25
X17.929Y34.621
X17.936Y35.572
X18.25Y41.0
X18.8Y16.0
X19.1Y40.0
X19.975Y29.874
X19.975Y27.2
X21.0Y13.75
X21.3Y41.5
X21.862Y34.362
X21.9Y37.9
X22.69Y29.8
X22.69Y27.086
X23.5Y43.76
X23.6Y19.15
X23.965Y34.581
X24.038Y35.529
X24.318Y22.346
X24.642Y21.492
X24.75Y48.25
X25.5Y24.0
X26.0Y49.3
X26.172Y34.341
X26.5Y10.25
X26.675Y35.181
X26.75Y21.1
X26.909Y22.05
X27.342Y28.156
X27.75Y9.5
X28.275Y27.978
X28.81Y9.75
X29.25Y8.5
X29.4Y36.3
X29.94Y35.5
X30.012Y10.512
X30.25Y45.25
X30.5Y17.5
X30.75Y23.0
X31.3Y26.2
X31.409Y29.705
X31.5Y33.25
X31.5Y15.25
X32.0Y31.0
X32.5Y10.5
X32.75Y37.75
X32.75Y32.44
X33.01Y7.691
X33.5Y4.75
X34.5Y3.5
X34.9Y23.1
X35.25Y18.399
X35.285Y25.715
X35.5Y13.25
X36.5Y23.5
X36.554Y16.3
X36.985Y29.12
X37.0Y31.0
X37.25Y38.75
X37.5Y8.1
X38.0Y24.0
X38.25Y15.85
X39.25Y28.75
X39.5Y13.78
X40.25Y13.0
X40.25Y3.5
X40.75Y31.5
X40.75Y5.25
X41.25Y10.0
X41.56Y26.0
X42.0Y32.5
X42.25Y6.0
X43.11Y21.368
X43.11Y17.5
X43.25Y29.75
X43.5Y27.7
X43.5Y11.25
X43.5Y8.5
T2
X0.75Y19.9
X0.75Y15.9
X0.75Y11.9
X0.75Y7.9
X0.75Y3.9
X1.0Y49.0
X1.0Y44.5
X1.1Y1.1
X3.25Y51.75
X3.5Y18.8
X3.5Y16.1
X3.5Y13.55
X3.5Y8.5
X4.5Y0.7
X5.9Y36.4
X7.04Y0.7
X9.58Y0.7
X10.3Y49.15
X11.75Y51.75
X12.12Y0.7
X12.35Y17.35
X12.35Y7.2
X14.66Y0.7
X14.7Y47.0
X16.75Y11.0
X16.75Y8.9
X17.2Y0.7
X17.3Y45.7
X17.3Y42.1
X18.75Y51.75
X19.75Y11.0
X19.75Y8.9
X22.0Y39.5
X22.28Y0.7
X22.75Y11.0
X22.75Y8.9
X23.9Y45.7
X24.25Y18.4
X25.75Y11.0
X25.75Y8.9
X26.25Y51.75
X26.9Y48.3
X26.9Y45.7
X26.9Y43.6
X26.9Y39.5
X26.9Y37.9
X27.36Y0.7
X29.0Y5.5
X29.9Y0.7
X31.65Y11.0
X32.44Y0.7
X32.6Y42.1
X33.0Y51.75
X34.98Y0.7
X36.45Y33.85
X37.52Y0.7
X40.06Y0.7
X42.0Y51.75
X43.75Y1.0
X44.25Y49.0
X44.25Y46.46
X44.25Y43.92
X44.25Y41.38
X44.25Y38.84
X44.25Y36.3
X44.25Y33.76
X44.25Y31.22
X44.25Y10.25
X44.25Y7.71
X44.25Y5.17
T3
X22.5Y4.2
T4
X19.96Y6.74
X19.96Y1.66
X25.04Y6.74
X25.04Y1.66
T0
M30
