G04 #@! TF.GenerationSoftware,KiCad,Pcbnew,7.0.9-7.0.9~ubuntu22.04.1*
G04 #@! TF.CreationDate,2023-12-06T13:17:01-05:00*
G04 #@! TF.ProjectId,caravel-breakout-qfn,63617261-7665-46c2-9d62-7265616b6f75,2.3*
G04 #@! TF.SameCoordinates,PX2dc6c00PY42c1d80*
G04 #@! TF.FileFunction,Copper,L2,Bot*
G04 #@! TF.FilePolarity,Positive*
%FSLAX46Y46*%
G04 Gerber Fmt 4.6, Leading zero omitted, Abs format (unit mm)*
G04 Created by KiCad (PCBNEW 7.0.9-7.0.9~ubuntu22.04.1) date 2023-12-06 13:17:01*
%MOMM*%
%LPD*%
G01*
G04 APERTURE LIST*
G04 #@! TA.AperFunction,ComponentPad*
%ADD10C,0.620000*%
G04 #@! TD*
G04 #@! TA.AperFunction,ComponentPad*
%ADD11C,2.200000*%
G04 #@! TD*
G04 #@! TA.AperFunction,ComponentPad*
%ADD12C,2.100000*%
G04 #@! TD*
G04 #@! TA.AperFunction,ViaPad*
%ADD13C,0.700000*%
G04 #@! TD*
G04 #@! TA.AperFunction,Conductor*
%ADD14C,0.180000*%
G04 #@! TD*
G04 #@! TA.AperFunction,Conductor*
%ADD15C,0.250000*%
G04 #@! TD*
G04 #@! TA.AperFunction,Conductor*
%ADD16C,0.200000*%
G04 #@! TD*
G04 APERTURE END LIST*
D10*
X40060000Y700000D03*
X750000Y11900000D03*
X26250000Y51750000D03*
X1100000Y1100000D03*
X7040000Y700000D03*
X44250000Y33760000D03*
X36450000Y33850000D03*
X14660000Y700000D03*
X1000000Y49000000D03*
X12350000Y7200000D03*
X10300000Y49150000D03*
X44250000Y36300000D03*
X44250000Y46460000D03*
X44250000Y49000000D03*
X44250000Y7710000D03*
X14700000Y47000000D03*
X44250000Y10250000D03*
X18750000Y51750000D03*
X17300000Y42100000D03*
X32600000Y42100000D03*
X27360000Y700000D03*
X23900000Y45700000D03*
X3250000Y51750000D03*
X750000Y19900000D03*
X26900000Y45700000D03*
X750000Y15900000D03*
X25750000Y8900000D03*
X26900000Y43600000D03*
X44250000Y31220000D03*
X1000000Y44500000D03*
X26900000Y39500000D03*
X29000000Y5500000D03*
X26900000Y48300000D03*
X19750000Y8900000D03*
X5900000Y36400000D03*
X3500000Y16100000D03*
X44250000Y38840000D03*
X3500000Y13550000D03*
X22750000Y8900000D03*
X24250000Y18400000D03*
X750000Y7900000D03*
X750000Y3900000D03*
X16750000Y11000000D03*
X12120000Y700000D03*
X16750000Y8900000D03*
X19750000Y11000000D03*
X22000000Y39500000D03*
X3500000Y8500000D03*
X33000000Y51750000D03*
X29900000Y700000D03*
X44250000Y41380000D03*
X9580000Y700000D03*
X34980000Y700000D03*
X4500000Y700000D03*
X22750000Y11000000D03*
X22280000Y700000D03*
X12350000Y17350000D03*
D11*
X19960000Y6740000D03*
X25040000Y6740000D03*
X25040000Y1660000D03*
X19960000Y1660000D03*
D12*
X22500000Y4200000D03*
D10*
X31650000Y11000000D03*
X43750000Y1000000D03*
X44250000Y5170000D03*
X11750000Y51750000D03*
X44250000Y43920000D03*
X17300000Y45700000D03*
X26900000Y37900000D03*
X17200000Y700000D03*
X3500000Y18800000D03*
X42000000Y51750000D03*
X25750000Y11000000D03*
X37520000Y700000D03*
X32440000Y700000D03*
D13*
X24642462Y21492462D03*
X10500000Y3500000D03*
X10500000Y5750000D03*
X28275314Y27978220D03*
X4750000Y49100000D03*
X32750000Y37750000D03*
X24038116Y35528501D03*
X26675000Y35181266D03*
X17750000Y18250000D03*
X35500000Y13250000D03*
X25500000Y24000000D03*
X40250000Y3500000D03*
X22690000Y27086000D03*
X34500000Y3500000D03*
X40250000Y13000000D03*
X4750000Y46550000D03*
X19975000Y27200000D03*
X11671908Y40267068D03*
X4750000Y41750000D03*
X4750000Y3250000D03*
X4750000Y5750000D03*
X13822996Y25104589D03*
X14029931Y29372114D03*
X15826192Y21851819D03*
X2000000Y40000000D03*
X35285000Y25715000D03*
X19975000Y29873863D03*
X26750000Y21100000D03*
X17936228Y35572057D03*
X11750000Y27500000D03*
X22690000Y29800000D03*
X26000000Y49300000D03*
X26172288Y34341239D03*
X26909499Y22050000D03*
X24318001Y22345596D03*
X24750000Y48250000D03*
X1250000Y21350500D03*
X1500000Y43250000D03*
X15884997Y22800000D03*
X14856248Y25096643D03*
X14978513Y29320167D03*
X15000000Y45250000D03*
X26500000Y10250000D03*
X27342175Y28156423D03*
X2000000Y28750000D03*
X2000000Y37500000D03*
X14060000Y37190000D03*
X14100000Y30393462D03*
X3370000Y31581466D03*
X3370000Y34769515D03*
X11500000Y35000000D03*
X11749038Y31702962D03*
X14714997Y42074230D03*
X7200000Y31900000D03*
X14755450Y32310000D03*
X6900000Y41750000D03*
X5222801Y29988568D03*
X5250000Y33639500D03*
X12300002Y34329500D03*
X12250000Y30000000D03*
X14674820Y27408962D03*
X16133978Y47034343D03*
X17000000Y46750000D03*
X15541582Y27633222D03*
X29250000Y8500000D03*
X7330000Y8250000D03*
X7387096Y26637096D03*
X30250000Y45250000D03*
X7600000Y27800000D03*
X7750000Y45425000D03*
X9500000Y23500000D03*
X12499994Y43000000D03*
X21000000Y13750000D03*
X8250000Y13500000D03*
X7850000Y25800000D03*
X21299998Y41500000D03*
X17525000Y19250000D03*
X19099998Y40000000D03*
X16574997Y19250000D03*
X18250000Y41000000D03*
X28810000Y9750000D03*
X29940000Y35500000D03*
X29400000Y36300000D03*
X27750000Y9500000D03*
X30012096Y10512096D03*
X31500000Y33250000D03*
X42000000Y32500000D03*
X42250000Y6000000D03*
X23600000Y19150000D03*
X37000000Y31000000D03*
X21900000Y37900000D03*
X37250000Y38750000D03*
X43500000Y8500000D03*
X43250000Y29750000D03*
X39250000Y28750000D03*
X39500000Y13780500D03*
X43500000Y27700000D03*
X43500000Y11250000D03*
X34900000Y23100000D03*
X35250000Y18399500D03*
X36554346Y16299999D03*
X36500000Y23500000D03*
X30750000Y23000000D03*
X30500000Y17500000D03*
X43110000Y17500000D03*
X43110000Y21367753D03*
X31300004Y26200000D03*
X31500000Y15250000D03*
X38250000Y15850000D03*
X38000000Y23999996D03*
X31408851Y29704977D03*
X32500000Y10500000D03*
X41250000Y10000000D03*
X41560000Y26000000D03*
X12500000Y24750000D03*
X12400000Y36599996D03*
X4500000Y38750000D03*
X4500000Y20500000D03*
X13250000Y19750000D03*
X13400000Y40100000D03*
X3250000Y4750000D03*
X2680000Y41070000D03*
X12209999Y38040001D03*
X10974799Y22075500D03*
X21862096Y34362096D03*
X33010000Y7691422D03*
X32000000Y31000000D03*
X37500000Y8100000D03*
X36985306Y29119636D03*
X3750000Y23000000D03*
X3370000Y39370000D03*
X33500000Y4750000D03*
X32750000Y32440000D03*
X40750000Y31500000D03*
X40750000Y5250000D03*
X18799996Y16000000D03*
X17929386Y34620566D03*
X1750000Y10750000D03*
X23500000Y43760000D03*
X2750000Y44000000D03*
X23965220Y34581299D03*
D14*
X36985306Y29119636D02*
X37360000Y28744942D01*
X37360000Y28744942D02*
X37360000Y8240000D01*
X37360000Y8240000D02*
X37500000Y8100000D01*
X16574997Y19250000D02*
X16800000Y19475003D01*
X16800000Y19475003D02*
X16800000Y39200000D01*
X16800000Y39200000D02*
X18250000Y40650000D01*
X18250000Y40650000D02*
X18250000Y41000000D01*
X28810000Y9750000D02*
X28810000Y24460000D01*
X28810000Y24460000D02*
X29800000Y25450000D01*
X29800000Y35360000D02*
X29940000Y35500000D01*
X29800000Y25450000D02*
X29800000Y35360000D01*
X30250000Y45250000D02*
X30630000Y44870000D01*
X30630000Y44870000D02*
X30630000Y34130000D01*
X30630000Y34130000D02*
X30250000Y33750000D01*
X30250000Y33750000D02*
X30250000Y24850000D01*
X30250000Y24850000D02*
X29322096Y23922096D01*
X29322096Y23922096D02*
X29322096Y10226288D01*
X29322096Y10226288D02*
X29500004Y10048380D01*
X29500004Y10048380D02*
X29500004Y8750004D01*
X29500004Y8750004D02*
X29250000Y8500000D01*
X31500000Y33250000D02*
X30610000Y32360000D01*
X30610000Y32360000D02*
X30610000Y24010000D01*
X29750000Y23150000D02*
X29750000Y10774192D01*
X30610000Y24010000D02*
X29750000Y23150000D01*
X29750000Y10774192D02*
X30012096Y10512096D01*
X31500000Y15250000D02*
X31500000Y26000004D01*
X31500000Y26000004D02*
X31300004Y26200000D01*
X17525000Y19250000D02*
X17289386Y19485614D01*
X17289386Y19485614D02*
X17289386Y38389386D01*
X17289386Y38389386D02*
X18900000Y40000000D01*
X18900000Y40000000D02*
X19099998Y40000000D01*
X17000000Y46750000D02*
X16500000Y46250000D01*
X16500000Y46250000D02*
X16500000Y41600000D01*
X16500000Y41600000D02*
X16214997Y41314997D01*
X16214997Y41314997D02*
X16214997Y28306637D01*
X16214997Y28306637D02*
X15541582Y27633222D01*
D15*
X25600000Y34913527D02*
X25600000Y48900000D01*
X25600000Y48900000D02*
X26000000Y49300000D01*
X26172288Y34341239D02*
X25600000Y34913527D01*
X1750000Y10750000D02*
X1975000Y10975000D01*
X1225000Y28187903D02*
X1225000Y41425000D01*
X1975000Y10975000D02*
X1975000Y27437903D01*
X1975000Y27437903D02*
X1225000Y28187903D01*
X1225000Y41425000D02*
X2750000Y42950000D01*
X2750000Y42950000D02*
X2750000Y44000000D01*
D14*
X3370000Y39370000D02*
X3370000Y37330000D01*
X3370000Y37330000D02*
X4060000Y36640000D01*
X4060000Y36640000D02*
X4060000Y23310000D01*
X4060000Y23310000D02*
X3750000Y23000000D01*
X10974799Y22075500D02*
X10800000Y22250299D01*
X10800000Y22250299D02*
X10800000Y36630002D01*
X10800000Y36630002D02*
X12209999Y38040001D01*
X36500000Y23500000D02*
X36980000Y23020000D01*
X36980000Y23020000D02*
X36980000Y16725653D01*
X36980000Y16725653D02*
X36554346Y16299999D01*
X43110000Y21367753D02*
X43100000Y21357753D01*
X43100000Y21357753D02*
X43100000Y17510000D01*
X43100000Y17510000D02*
X43110000Y17500000D01*
X43500000Y8500000D02*
X42420000Y9580000D01*
X42420000Y9580000D02*
X42420000Y21920000D01*
X42420000Y21920000D02*
X42620000Y22120000D01*
X42620000Y22120000D02*
X42620000Y29120000D01*
X42620000Y29120000D02*
X43250000Y29750000D01*
X42250000Y6000000D02*
X42060000Y6190000D01*
X42060000Y6190000D02*
X42060000Y25060000D01*
X42060000Y25060000D02*
X42250000Y25250000D01*
X42250000Y25250000D02*
X42250000Y32250000D01*
X42250000Y32250000D02*
X42000000Y32500000D01*
X35250000Y22750000D02*
X34900000Y23100000D01*
X35250000Y18399500D02*
X35250000Y22750000D01*
X33300000Y7981422D02*
X33010000Y7691422D01*
X33300000Y29700000D02*
X33300000Y7981422D01*
X33500000Y5000000D02*
X33500000Y4750000D01*
X32000000Y31000000D02*
X33300000Y29700000D01*
X33700000Y31490000D02*
X33700000Y5200000D01*
X32750000Y32440000D02*
X33700000Y31490000D01*
X33700000Y5200000D02*
X33500000Y5000000D01*
X12500000Y24750000D02*
X12500000Y29274192D01*
X12500000Y29274192D02*
X12950000Y29724192D01*
X12950000Y29724192D02*
X12950000Y36049996D01*
X12950000Y36049996D02*
X12400000Y36599996D01*
D15*
X1250000Y21350500D02*
X649083Y21951417D01*
X649083Y21951417D02*
X649083Y41849083D01*
X649083Y41849083D02*
X1500000Y42700000D01*
X1500000Y42700000D02*
X1500000Y43250000D01*
D14*
X43800000Y11550000D02*
X43800000Y27400000D01*
X43500000Y11250000D02*
X43800000Y11550000D01*
X43800000Y27400000D02*
X43500000Y27700000D01*
D15*
X13822996Y25104589D02*
X13547996Y25379589D01*
X13547996Y25379589D02*
X13547996Y28890179D01*
X13547996Y28890179D02*
X14029931Y29372114D01*
X26638851Y33874676D02*
X26638851Y22320648D01*
X26172288Y34341239D02*
X26638851Y33874676D01*
X26638851Y22320648D02*
X26909499Y22050000D01*
X24750000Y22777595D02*
X24318001Y22345596D01*
X24750000Y48250000D02*
X24750000Y22777595D01*
X15439997Y29781651D02*
X14978513Y29320167D01*
X15000000Y45250000D02*
X15439997Y44810003D01*
X14978513Y28821994D02*
X14978513Y29320167D01*
X15439997Y44810003D02*
X15439997Y29781651D01*
X14856248Y25943896D02*
X14000000Y26800144D01*
X14000000Y26800144D02*
X14000000Y27843481D01*
X14000000Y27843481D02*
X14978513Y28821994D01*
X14856248Y25096643D02*
X14856248Y25943896D01*
X27342175Y22757825D02*
X27342175Y28156423D01*
X27725000Y22375000D02*
X27342175Y22757825D01*
X27725000Y11475000D02*
X27725000Y22375000D01*
X26500000Y10250000D02*
X27725000Y11475000D01*
D14*
X2000000Y28750000D02*
X2000000Y37500000D01*
X14060000Y37190000D02*
X14060000Y30433462D01*
X14060000Y30433462D02*
X14100000Y30393462D01*
X3370000Y34769515D02*
X3275504Y34675019D01*
X3275504Y34675019D02*
X3275504Y31675962D01*
X3275504Y31675962D02*
X3370000Y31581466D01*
X11500000Y31952000D02*
X11500000Y35000000D01*
X11749038Y31702962D02*
X11500000Y31952000D01*
X15000000Y41789227D02*
X14714997Y42074230D01*
X7200000Y41450000D02*
X6900000Y41750000D01*
X7200000Y31900000D02*
X7200000Y41450000D01*
X15000000Y32554550D02*
X15000000Y41789227D01*
X14755450Y32310000D02*
X15000000Y32554550D01*
X5250000Y30015767D02*
X5250000Y33639500D01*
X5222801Y29988568D02*
X5250000Y30015767D01*
X12500000Y34129502D02*
X12300002Y34329500D01*
X12500000Y30250000D02*
X12500000Y34129502D01*
X12250000Y30000000D02*
X12500000Y30250000D01*
X14674820Y27854123D02*
X14674820Y27408962D01*
X15854997Y46755362D02*
X15854997Y29034300D01*
X16133978Y47034343D02*
X15854997Y46755362D01*
X15854997Y29034300D02*
X14674820Y27854123D01*
X7210000Y8370000D02*
X7330000Y8250000D01*
X7210000Y26460000D02*
X7210000Y8370000D01*
X7387096Y26637096D02*
X7210000Y26460000D01*
X7750000Y45425000D02*
X7890000Y45285000D01*
X7890000Y45285000D02*
X7890000Y28090000D01*
X7890000Y28090000D02*
X7600000Y27800000D01*
X9720000Y40220006D02*
X12499994Y43000000D01*
X9500000Y23500000D02*
X9720000Y23720000D01*
X9720000Y23720000D02*
X9720000Y40220006D01*
X7950000Y13800000D02*
X7950000Y25700000D01*
X8250000Y13500000D02*
X7950000Y13800000D01*
X7950000Y25700000D02*
X7850000Y25800000D01*
X21000000Y41200002D02*
X21299998Y41500000D01*
X21000000Y13750000D02*
X21000000Y41200002D01*
X29300000Y26000000D02*
X29300000Y36200000D01*
X28140000Y9890000D02*
X28140000Y24840000D01*
X29300000Y36200000D02*
X29400000Y36300000D01*
X28140000Y24840000D02*
X29300000Y26000000D01*
X27750000Y9500000D02*
X28140000Y9890000D01*
X23600000Y33600000D02*
X23600000Y19150000D01*
X21900000Y37900000D02*
X21900000Y35300000D01*
X37250000Y31250000D02*
X37000000Y31000000D01*
X37250000Y38750000D02*
X37250000Y31250000D01*
X21900000Y35300000D02*
X23600000Y33600000D01*
X39500000Y13780500D02*
X39520000Y13800500D01*
X39520000Y13800500D02*
X39520000Y28480000D01*
X39520000Y28480000D02*
X39250000Y28750000D01*
X30750000Y17750000D02*
X30500000Y17500000D01*
X30750000Y23000000D02*
X30750000Y17750000D01*
X38000000Y23999996D02*
X37820000Y23819996D01*
X37820000Y23819996D02*
X37820000Y16280000D01*
X37820000Y16280000D02*
X38250000Y15850000D01*
X32500000Y28613828D02*
X31408851Y29704977D01*
X32500000Y10500000D02*
X32500000Y28613828D01*
X41560000Y10310000D02*
X41250000Y10000000D01*
X41560000Y26000000D02*
X41560000Y10310000D01*
X4500000Y38750000D02*
X4500000Y20500000D01*
X13250000Y19750000D02*
X13132996Y19867004D01*
X13132996Y19867004D02*
X13132996Y29398072D01*
X13132996Y29398072D02*
X13410000Y29675076D01*
X13410000Y29675076D02*
X13410000Y40090000D01*
X13410000Y40090000D02*
X13400000Y40100000D01*
X2680000Y5320000D02*
X3250000Y4750000D01*
X2680000Y41070000D02*
X2680000Y5320000D01*
D16*
X21800000Y34024192D02*
X22000000Y34224192D01*
X21800000Y4900000D02*
X21800000Y34024192D01*
D14*
X22500000Y4200000D02*
X22000000Y4700000D01*
X22000000Y34224192D02*
X21862096Y34362096D01*
D16*
X22000000Y4700000D02*
X21800000Y4900000D01*
D14*
X40940000Y12714192D02*
X40560000Y12334192D01*
X40940000Y31310000D02*
X40940000Y12714192D01*
X40560000Y5440000D02*
X40750000Y5250000D01*
X40560000Y12334192D02*
X40560000Y5440000D01*
X40750000Y31500000D02*
X40940000Y31310000D01*
D15*
X19000000Y33549952D02*
X19000000Y16200004D01*
X17929386Y34620566D02*
X19000000Y33549952D01*
X19000000Y16200004D02*
X18799996Y16000000D01*
X23300000Y35246519D02*
X23965220Y34581299D01*
X23300000Y43560000D02*
X23300000Y35246519D01*
X23500000Y43760000D02*
X23300000Y43560000D01*
G04 #@! TA.AperFunction,Conductor*
G36*
X14446563Y29804247D02*
G01*
X14482215Y29744158D01*
X14479721Y29674333D01*
X14460444Y29638008D01*
X14450485Y29625030D01*
X14450482Y29625024D01*
X14389574Y29477977D01*
X14389573Y29477973D01*
X14371269Y29338940D01*
X14368797Y29320167D01*
X14388780Y29168381D01*
X14389573Y29162362D01*
X14389574Y29162358D01*
X14450481Y29015312D01*
X14450482Y29015310D01*
X14450483Y29015309D01*
X14464453Y28997104D01*
X14489648Y28931938D01*
X14475611Y28863492D01*
X14453759Y28833936D01*
X13768577Y28148754D01*
X13748727Y28132633D01*
X13739419Y28126552D01*
X13717359Y28098209D01*
X13712281Y28092457D01*
X13709424Y28089600D01*
X13709413Y28089586D01*
X13702409Y28079777D01*
X13647431Y28036658D01*
X13577869Y28030108D01*
X13515809Y28062205D01*
X13480953Y28122760D01*
X13477496Y28151836D01*
X13477496Y29204014D01*
X13497181Y29271053D01*
X13513810Y29291691D01*
X13641062Y29418944D01*
X13645022Y29422573D01*
X13677973Y29450220D01*
X13699484Y29487480D01*
X13702371Y29492010D01*
X13727039Y29527238D01*
X13727040Y29527241D01*
X13728233Y29529799D01*
X13737754Y29552783D01*
X13738717Y29555431D01*
X13738717Y29555432D01*
X13738718Y29555433D01*
X13746188Y29597807D01*
X13747344Y29603020D01*
X13758483Y29644588D01*
X13754735Y29687421D01*
X13754500Y29692824D01*
X13754500Y29696689D01*
X13774185Y29763728D01*
X13826989Y29809483D01*
X13896147Y29819427D01*
X13925950Y29811251D01*
X13942194Y29804522D01*
X14081640Y29786164D01*
X14099999Y29783746D01*
X14100000Y29783746D01*
X14100001Y29783746D01*
X14116446Y29785912D01*
X14257806Y29804522D01*
X14314616Y29828054D01*
X14384084Y29835522D01*
X14446563Y29804247D01*
G37*
G04 #@! TD.AperFunction*
G04 #@! TA.AperFunction,Conductor*
G36*
X19003031Y52199201D02*
G01*
X19050947Y52194483D01*
X19124317Y52187256D01*
X19148145Y52182517D01*
X19256005Y52149798D01*
X19278453Y52140499D01*
X19377849Y52087371D01*
X19398059Y52073867D01*
X19485179Y52002370D01*
X19502369Y51985180D01*
X19573866Y51898060D01*
X19587370Y51877850D01*
X19640495Y51778462D01*
X19649798Y51756003D01*
X19682514Y51648152D01*
X19687256Y51624312D01*
X19699201Y51503033D01*
X19699500Y51496952D01*
X19699500Y50897649D01*
X19731522Y50695466D01*
X19794781Y50500777D01*
X19858691Y50375347D01*
X19886736Y50320307D01*
X19887715Y50318387D01*
X20008028Y50152787D01*
X20152786Y50008029D01*
X20288105Y49909716D01*
X20318390Y49887713D01*
X20434607Y49828497D01*
X20500776Y49794782D01*
X20500778Y49794782D01*
X20500781Y49794780D01*
X20605137Y49760873D01*
X20695465Y49731523D01*
X20796557Y49715512D01*
X20897648Y49699500D01*
X20897649Y49699500D01*
X24102351Y49699500D01*
X24102352Y49699500D01*
X24304534Y49731523D01*
X24499219Y49794780D01*
X24681610Y49887713D01*
X24774590Y49955268D01*
X24847213Y50008029D01*
X24847215Y50008032D01*
X24847219Y50008034D01*
X24991966Y50152781D01*
X24991968Y50152785D01*
X24991971Y50152787D01*
X25106914Y50310995D01*
X25112287Y50318390D01*
X25205220Y50500781D01*
X25268477Y50695466D01*
X25300500Y50897648D01*
X25300500Y51000000D01*
X25300500Y51047595D01*
X25300500Y51496952D01*
X25300799Y51503032D01*
X25306033Y51556173D01*
X25312744Y51624320D01*
X25317483Y51648144D01*
X25350203Y51756010D01*
X25359499Y51778451D01*
X25412632Y51877856D01*
X25426133Y51898060D01*
X25445251Y51921355D01*
X25497635Y51985186D01*
X25514814Y52002365D01*
X25601942Y52073869D01*
X25622144Y52087368D01*
X25721549Y52140501D01*
X25743990Y52149797D01*
X25851856Y52182517D01*
X25875682Y52187256D01*
X25949052Y52194483D01*
X25996969Y52199201D01*
X26003049Y52199500D01*
X26047595Y52199500D01*
X42952405Y52199500D01*
X42997786Y52199500D01*
X43002208Y52199343D01*
X43233020Y52182835D01*
X43250529Y52180317D01*
X43470144Y52132542D01*
X43487103Y52127563D01*
X43697694Y52049017D01*
X43713777Y52041673D01*
X43911036Y51933960D01*
X43925919Y51924395D01*
X44105836Y51789711D01*
X44119207Y51778125D01*
X44278124Y51619208D01*
X44289710Y51605837D01*
X44424394Y51425920D01*
X44433959Y51411037D01*
X44541669Y51213783D01*
X44549019Y51197689D01*
X44627559Y50987113D01*
X44632543Y50970138D01*
X44680316Y50750530D01*
X44682834Y50733018D01*
X44699342Y50502211D01*
X44699500Y50497787D01*
X44699500Y2002214D01*
X44699342Y1997790D01*
X44682834Y1766983D01*
X44680316Y1749471D01*
X44632543Y1529863D01*
X44627559Y1512888D01*
X44549019Y1302312D01*
X44541669Y1286218D01*
X44433959Y1088964D01*
X44424394Y1074081D01*
X44289710Y894164D01*
X44278124Y880793D01*
X44119207Y721876D01*
X44105836Y710290D01*
X43925919Y575606D01*
X43911036Y566041D01*
X43713782Y458331D01*
X43697688Y450981D01*
X43487112Y372441D01*
X43470137Y367457D01*
X43250529Y319684D01*
X43233017Y317166D01*
X43019172Y301872D01*
X43002208Y300658D01*
X42997786Y300500D01*
X26097309Y300500D01*
X26030270Y320185D01*
X26009628Y336819D01*
X25403108Y943339D01*
X25541948Y1030577D01*
X25669423Y1158052D01*
X25756661Y1296892D01*
X26337732Y715821D01*
X26338424Y716629D01*
X26338432Y716640D01*
X26470019Y931369D01*
X26566396Y1164044D01*
X26625187Y1408928D01*
X26644947Y1660000D01*
X26625187Y1911073D01*
X26585717Y2075480D01*
X35365618Y2075480D01*
X35396488Y1900404D01*
X35466904Y1737161D01*
X35524349Y1660000D01*
X35573067Y1594561D01*
X35709254Y1480286D01*
X35787990Y1440743D01*
X35868118Y1400501D01*
X35868119Y1400501D01*
X35868123Y1400499D01*
X36041110Y1359500D01*
X36041113Y1359500D01*
X36174285Y1359500D01*
X36174292Y1359500D01*
X36306577Y1374962D01*
X36473635Y1435766D01*
X36622168Y1533457D01*
X36744167Y1662769D01*
X36833057Y1816731D01*
X36884045Y1987042D01*
X36889131Y2074372D01*
X36912680Y2140151D01*
X36968055Y2182759D01*
X37037674Y2188664D01*
X37056491Y2183253D01*
X37065976Y2179693D01*
X37121345Y2169645D01*
X37287450Y2139500D01*
X37287453Y2139500D01*
X37456148Y2139500D01*
X37456155Y2139500D01*
X37624188Y2154623D01*
X37748770Y2189006D01*
X37818627Y2187867D01*
X37876782Y2149139D01*
X37904766Y2085118D01*
X37905546Y2076698D01*
X37905616Y2075489D01*
X37936488Y1900404D01*
X38006904Y1737161D01*
X38064349Y1660000D01*
X38113067Y1594561D01*
X38249254Y1480286D01*
X38327990Y1440743D01*
X38408118Y1400501D01*
X38408119Y1400501D01*
X38408123Y1400499D01*
X38581110Y1359500D01*
X38581113Y1359500D01*
X38714285Y1359500D01*
X38714292Y1359500D01*
X38846577Y1374962D01*
X39013635Y1435766D01*
X39162168Y1533457D01*
X39284167Y1662769D01*
X39373057Y1816731D01*
X39424045Y1987042D01*
X39434382Y2164520D01*
X39403511Y2339599D01*
X39333096Y2502838D01*
X39226933Y2645439D01*
X39154112Y2706543D01*
X39090746Y2759714D01*
X39090744Y2759715D01*
X38931881Y2839500D01*
X38931877Y2839501D01*
X38758890Y2880500D01*
X38721860Y2880500D01*
X38654821Y2900185D01*
X38609066Y2952989D01*
X38599122Y3022147D01*
X38600969Y3032092D01*
X38636187Y3186397D01*
X38644191Y3221463D01*
X38654290Y3446330D01*
X38624075Y3669387D01*
X38602007Y3737303D01*
X38600013Y3807141D01*
X38636093Y3866974D01*
X38698793Y3897803D01*
X38712725Y3899409D01*
X38714284Y3899500D01*
X38714292Y3899500D01*
X38846577Y3914962D01*
X39013635Y3975766D01*
X39162168Y4073457D01*
X39284167Y4202769D01*
X39373057Y4356731D01*
X39424045Y4527042D01*
X39434382Y4704520D01*
X39403511Y4879599D01*
X39333096Y5042838D01*
X39324147Y5054858D01*
X39238787Y5169516D01*
X39226933Y5185439D01*
X39225039Y5187028D01*
X39149992Y5250000D01*
X40140284Y5250000D01*
X40157763Y5117233D01*
X40161060Y5092195D01*
X40161061Y5092191D01*
X40221968Y4945145D01*
X40221969Y4945143D01*
X40221970Y4945142D01*
X40318866Y4818866D01*
X40445142Y4721970D01*
X40592194Y4661060D01*
X40731640Y4642702D01*
X40749999Y4640284D01*
X40750000Y4640284D01*
X40750001Y4640284D01*
X40766446Y4642450D01*
X40907806Y4661060D01*
X41054858Y4721970D01*
X41181134Y4818866D01*
X41278030Y4945142D01*
X41338940Y5092194D01*
X41359716Y5250000D01*
X41338940Y5407806D01*
X41278030Y5554858D01*
X41181134Y5681134D01*
X41054858Y5778030D01*
X41039851Y5784246D01*
X40981047Y5808604D01*
X40926643Y5852446D01*
X40904579Y5918740D01*
X40904500Y5923165D01*
X40904500Y9303227D01*
X40924185Y9370266D01*
X40976989Y9416021D01*
X41046147Y9425965D01*
X41075950Y9417789D01*
X41092194Y9411060D01*
X41231640Y9392702D01*
X41249999Y9390284D01*
X41250000Y9390284D01*
X41250001Y9390284D01*
X41266446Y9392450D01*
X41407806Y9411060D01*
X41544050Y9467494D01*
X41613517Y9474962D01*
X41675996Y9443687D01*
X41711648Y9383598D01*
X41715500Y9352932D01*
X41715500Y6313902D01*
X41706061Y6266450D01*
X41661061Y6157810D01*
X41661060Y6157806D01*
X41640284Y6000001D01*
X41640284Y6000000D01*
X41661060Y5842195D01*
X41661061Y5842191D01*
X41721968Y5695145D01*
X41721969Y5695143D01*
X41721970Y5695142D01*
X41818866Y5568866D01*
X41945142Y5471970D01*
X42092194Y5411060D01*
X42231640Y5392702D01*
X42249999Y5390284D01*
X42250000Y5390284D01*
X42250001Y5390284D01*
X42266446Y5392450D01*
X42407806Y5411060D01*
X42554858Y5471970D01*
X42681134Y5568866D01*
X42778030Y5695142D01*
X42838940Y5842194D01*
X42859716Y6000000D01*
X42838940Y6157806D01*
X42778030Y6304858D01*
X42681134Y6431134D01*
X42554858Y6528030D01*
X42539851Y6534246D01*
X42481047Y6558604D01*
X42426643Y6602446D01*
X42404579Y6668740D01*
X42404500Y6673165D01*
X42404500Y8808942D01*
X42424185Y8875981D01*
X42476989Y8921736D01*
X42546147Y8931680D01*
X42609703Y8902655D01*
X42616174Y8896629D01*
X42745055Y8767748D01*
X42861297Y8651506D01*
X42894782Y8590183D01*
X42896555Y8547641D01*
X42890768Y8503680D01*
X42890284Y8500000D01*
X42910697Y8344948D01*
X42911060Y8342195D01*
X42911061Y8342191D01*
X42971968Y8195145D01*
X42971969Y8195143D01*
X42971970Y8195142D01*
X43068866Y8068866D01*
X43195142Y7971970D01*
X43342194Y7911060D01*
X43481640Y7892702D01*
X43499999Y7890284D01*
X43500000Y7890284D01*
X43500001Y7890284D01*
X43516446Y7892450D01*
X43657806Y7911060D01*
X43804858Y7971970D01*
X43931134Y8068866D01*
X44028030Y8195142D01*
X44088940Y8342194D01*
X44109716Y8500000D01*
X44088940Y8657806D01*
X44039141Y8778033D01*
X44028031Y8804856D01*
X44028030Y8804857D01*
X44028030Y8804858D01*
X43931134Y8931134D01*
X43804858Y9028030D01*
X43804857Y9028031D01*
X43804855Y9028032D01*
X43657809Y9088939D01*
X43657807Y9088940D01*
X43657806Y9088940D01*
X43578903Y9099328D01*
X43500001Y9109716D01*
X43499997Y9109716D01*
X43452359Y9103445D01*
X43383323Y9114211D01*
X43348494Y9138703D01*
X42800819Y9686378D01*
X42767334Y9747701D01*
X42764500Y9774059D01*
X42764500Y10850231D01*
X42784185Y10917270D01*
X42836989Y10963025D01*
X42906147Y10972969D01*
X42969703Y10943944D01*
X42986873Y10925720D01*
X43030017Y10869495D01*
X43059853Y10830611D01*
X43068866Y10818866D01*
X43195142Y10721970D01*
X43342194Y10661060D01*
X43481640Y10642702D01*
X43499999Y10640284D01*
X43500000Y10640284D01*
X43500001Y10640284D01*
X43516446Y10642450D01*
X43657806Y10661060D01*
X43804858Y10721970D01*
X43931134Y10818866D01*
X44028030Y10945142D01*
X44088940Y11092194D01*
X44109716Y11250000D01*
X44100306Y11321470D01*
X44111071Y11390502D01*
X44113775Y11395164D01*
X44118233Y11404723D01*
X44127754Y11427707D01*
X44128717Y11430355D01*
X44128717Y11430356D01*
X44128718Y11430357D01*
X44136188Y11472731D01*
X44137344Y11477944D01*
X44148483Y11519512D01*
X44144735Y11562341D01*
X44144500Y11567744D01*
X44144500Y27382258D01*
X44144736Y27387665D01*
X44148483Y27430489D01*
X44137353Y27472027D01*
X44136184Y27477298D01*
X44128718Y27519643D01*
X44128715Y27519648D01*
X44127759Y27522277D01*
X44118223Y27545297D01*
X44117040Y27547835D01*
X44117039Y27547838D01*
X44117036Y27547842D01*
X44112454Y27557670D01*
X44115625Y27559150D01*
X44099343Y27607425D01*
X44100305Y27628526D01*
X44109716Y27700000D01*
X44088940Y27857806D01*
X44039473Y27977231D01*
X44028031Y28004856D01*
X44028030Y28004857D01*
X44028030Y28004858D01*
X43931134Y28131134D01*
X43804858Y28228030D01*
X43804857Y28228031D01*
X43804855Y28228032D01*
X43657809Y28288939D01*
X43657807Y28288940D01*
X43657806Y28288940D01*
X43554810Y28302500D01*
X43500001Y28309716D01*
X43499999Y28309716D01*
X43342194Y28288940D01*
X43342190Y28288939D01*
X43195143Y28228031D01*
X43195142Y28228031D01*
X43163985Y28204123D01*
X43098816Y28178930D01*
X43030371Y28192969D01*
X42980382Y28241784D01*
X42964500Y28302500D01*
X42964500Y28925942D01*
X42984185Y28992981D01*
X43000813Y29013618D01*
X43098496Y29111301D01*
X43159815Y29144783D01*
X43202360Y29146556D01*
X43249999Y29140284D01*
X43250000Y29140284D01*
X43250001Y29140284D01*
X43266446Y29142450D01*
X43407806Y29161060D01*
X43554858Y29221970D01*
X43681134Y29318866D01*
X43778030Y29445142D01*
X43838940Y29592194D01*
X43859716Y29750000D01*
X43838940Y29907806D01*
X43778030Y30054858D01*
X43681134Y30181134D01*
X43554858Y30278030D01*
X43554857Y30278031D01*
X43554855Y30278032D01*
X43407809Y30338939D01*
X43407807Y30338940D01*
X43407806Y30338940D01*
X43273182Y30356664D01*
X43250001Y30359716D01*
X43249999Y30359716D01*
X43092194Y30338940D01*
X43092190Y30338939D01*
X42945144Y30278032D01*
X42818865Y30181134D01*
X42816873Y30178537D01*
X42814631Y30176901D01*
X42813119Y30175388D01*
X42812883Y30175624D01*
X42760443Y30137337D01*
X42690697Y30133185D01*
X42629778Y30167400D01*
X42597028Y30229119D01*
X42594500Y30254028D01*
X42594500Y32232267D01*
X42594736Y32237674D01*
X42596132Y32253623D01*
X42598482Y32280489D01*
X42593019Y32300875D01*
X42589856Y32349153D01*
X42593971Y32380404D01*
X42609716Y32500000D01*
X42588940Y32657806D01*
X42548333Y32755841D01*
X42528031Y32804856D01*
X42528030Y32804857D01*
X42528030Y32804858D01*
X42431134Y32931134D01*
X42304858Y33028030D01*
X42304857Y33028031D01*
X42304855Y33028032D01*
X42157809Y33088939D01*
X42157807Y33088940D01*
X42157806Y33088940D01*
X42078903Y33099328D01*
X42000001Y33109716D01*
X41999999Y33109716D01*
X41842194Y33088940D01*
X41842190Y33088939D01*
X41695144Y33028032D01*
X41568866Y32931134D01*
X41471968Y32804856D01*
X41411061Y32657810D01*
X41411060Y32657806D01*
X41390284Y32500000D01*
X41406029Y32380404D01*
X41411060Y32342195D01*
X41411061Y32342191D01*
X41471968Y32195145D01*
X41471969Y32195143D01*
X41471970Y32195142D01*
X41568866Y32068866D01*
X41695142Y31971970D01*
X41695143Y31971970D01*
X41695144Y31971969D01*
X41828952Y31916545D01*
X41883356Y31872705D01*
X41905421Y31806411D01*
X41905500Y31801984D01*
X41905500Y26696774D01*
X41885815Y26629735D01*
X41833011Y26583980D01*
X41763853Y26574036D01*
X41734050Y26582212D01*
X41717809Y26588939D01*
X41717807Y26588940D01*
X41717806Y26588940D01*
X41613534Y26602668D01*
X41560001Y26609716D01*
X41559998Y26609716D01*
X41424685Y26591902D01*
X41355650Y26602668D01*
X41303394Y26649048D01*
X41284500Y26714841D01*
X41284500Y31186099D01*
X41293939Y31233551D01*
X41308098Y31267735D01*
X41338940Y31342194D01*
X41359716Y31500000D01*
X41338940Y31657806D01*
X41283277Y31792191D01*
X41278031Y31804856D01*
X41278030Y31804857D01*
X41278030Y31804858D01*
X41181134Y31931134D01*
X41054858Y32028030D01*
X41054857Y32028031D01*
X41054855Y32028032D01*
X40907809Y32088939D01*
X40907807Y32088940D01*
X40907806Y32088940D01*
X40828903Y32099328D01*
X40750001Y32109716D01*
X40749999Y32109716D01*
X40592194Y32088940D01*
X40592190Y32088939D01*
X40445144Y32028032D01*
X40318866Y31931134D01*
X40221968Y31804856D01*
X40161061Y31657810D01*
X40161060Y31657806D01*
X40140284Y31500001D01*
X40140284Y31500000D01*
X40161060Y31342195D01*
X40161061Y31342191D01*
X40221968Y31195145D01*
X40221969Y31195143D01*
X40221970Y31195142D01*
X40318866Y31068866D01*
X40445142Y30971970D01*
X40518954Y30941397D01*
X40573355Y30897559D01*
X40595421Y30831265D01*
X40595500Y30826837D01*
X40595500Y12908252D01*
X40575815Y12841213D01*
X40559181Y12820571D01*
X40328946Y12590336D01*
X40324957Y12586681D01*
X40292031Y12559052D01*
X40292025Y12559046D01*
X40270533Y12521820D01*
X40267627Y12517258D01*
X40242960Y12482029D01*
X40241794Y12479529D01*
X40232233Y12456449D01*
X40231281Y12453832D01*
X40223814Y12411488D01*
X40222643Y12406207D01*
X40211516Y12364681D01*
X40214346Y12332343D01*
X40215030Y12324520D01*
X40215264Y12321853D01*
X40215500Y12316446D01*
X40215500Y5563902D01*
X40206061Y5516450D01*
X40161061Y5407810D01*
X40161060Y5407806D01*
X40143975Y5278032D01*
X40140284Y5250000D01*
X39149992Y5250000D01*
X39090746Y5299714D01*
X39090744Y5299715D01*
X38931881Y5379500D01*
X38931877Y5379501D01*
X38758890Y5420500D01*
X38625708Y5420500D01*
X38517139Y5407810D01*
X38493422Y5405038D01*
X38493419Y5405037D01*
X38326367Y5344236D01*
X38227343Y5279107D01*
X38177832Y5246543D01*
X38177831Y5246543D01*
X38177831Y5246542D01*
X38055833Y5117233D01*
X37966944Y4963272D01*
X37915955Y4792959D01*
X37915954Y4792954D01*
X37910868Y4705630D01*
X37887318Y4639849D01*
X37831943Y4597242D01*
X37762323Y4591337D01*
X37743507Y4596748D01*
X37734022Y4600308D01*
X37512550Y4640500D01*
X37512547Y4640500D01*
X37343845Y4640500D01*
X37305399Y4637040D01*
X37175813Y4625378D01*
X37175807Y4625377D01*
X37051231Y4590995D01*
X36981370Y4592135D01*
X36923217Y4630863D01*
X36895233Y4694884D01*
X36894452Y4703317D01*
X36894381Y4704512D01*
X36894382Y4704520D01*
X36863511Y4879599D01*
X36793096Y5042838D01*
X36784147Y5054858D01*
X36698787Y5169516D01*
X36686933Y5185439D01*
X36685039Y5187028D01*
X36550746Y5299714D01*
X36550744Y5299715D01*
X36391881Y5379500D01*
X36391877Y5379501D01*
X36218890Y5420500D01*
X36085708Y5420500D01*
X35977139Y5407810D01*
X35953422Y5405038D01*
X35953419Y5405037D01*
X35786367Y5344236D01*
X35687343Y5279107D01*
X35637832Y5246543D01*
X35637831Y5246543D01*
X35637831Y5246542D01*
X35515833Y5117233D01*
X35426944Y4963272D01*
X35375955Y4792959D01*
X35375954Y4792954D01*
X35365618Y4615481D01*
X35365618Y4615480D01*
X35395652Y4445145D01*
X35396489Y4440401D01*
X35402102Y4427389D01*
X35466904Y4277161D01*
X35524349Y4200000D01*
X35573067Y4134561D01*
X35709254Y4020286D01*
X35787990Y3980743D01*
X35868118Y3940501D01*
X35868119Y3940501D01*
X35868123Y3940499D01*
X36041110Y3899500D01*
X36041113Y3899500D01*
X36078140Y3899500D01*
X36145179Y3879815D01*
X36190934Y3827011D01*
X36200878Y3757853D01*
X36199031Y3747908D01*
X36155810Y3558543D01*
X36155808Y3558532D01*
X36146815Y3358281D01*
X36145710Y3333670D01*
X36175925Y3110613D01*
X36175926Y3110609D01*
X36197991Y3042700D01*
X36199986Y2972859D01*
X36163906Y2913026D01*
X36101205Y2882198D01*
X36087299Y2880594D01*
X36085737Y2880503D01*
X36085711Y2880500D01*
X36085708Y2880500D01*
X35997775Y2870222D01*
X35953422Y2865038D01*
X35953419Y2865037D01*
X35786367Y2804236D01*
X35718675Y2759714D01*
X35637832Y2706543D01*
X35637831Y2706543D01*
X35637831Y2706542D01*
X35515833Y2577233D01*
X35426944Y2423272D01*
X35375955Y2252959D01*
X35375954Y2252954D01*
X35365618Y2075481D01*
X35365618Y2075480D01*
X26585717Y2075480D01*
X26566396Y2155957D01*
X26470019Y2388632D01*
X26338432Y2603362D01*
X26338430Y2603364D01*
X26337732Y2604181D01*
X25756660Y2023110D01*
X25669423Y2161948D01*
X25541948Y2289423D01*
X25403107Y2376662D01*
X25984178Y2957734D01*
X25984178Y2957736D01*
X25983374Y2958423D01*
X25983358Y2958434D01*
X25768631Y3090020D01*
X25535956Y3186397D01*
X25291072Y3245188D01*
X25040000Y3264948D01*
X24788927Y3245188D01*
X24544043Y3186397D01*
X24311368Y3090020D01*
X24096637Y2958432D01*
X24095820Y2957734D01*
X24676892Y2376662D01*
X24538052Y2289423D01*
X24410577Y2161948D01*
X24323338Y2023108D01*
X23742266Y2604180D01*
X23741568Y2603363D01*
X23609980Y2388632D01*
X23513603Y2155957D01*
X23454812Y1911073D01*
X23435052Y1660000D01*
X23454812Y1408928D01*
X23513603Y1164044D01*
X23609980Y931369D01*
X23741566Y716642D01*
X23741577Y716626D01*
X23742264Y715822D01*
X23742266Y715822D01*
X24323337Y1296893D01*
X24410577Y1158052D01*
X24538052Y1030577D01*
X24676891Y943339D01*
X24070371Y336819D01*
X24009048Y303334D01*
X23982690Y300500D01*
X21017309Y300500D01*
X20950270Y320185D01*
X20929628Y336819D01*
X20323108Y943339D01*
X20461948Y1030577D01*
X20589423Y1158052D01*
X20676661Y1296892D01*
X21257732Y715821D01*
X21258424Y716629D01*
X21258432Y716640D01*
X21390019Y931369D01*
X21486396Y1164044D01*
X21545187Y1408928D01*
X21564947Y1660000D01*
X21545187Y1911073D01*
X21486396Y2155957D01*
X21390019Y2388632D01*
X21258432Y2603362D01*
X21258430Y2603364D01*
X21257732Y2604181D01*
X20676660Y2023110D01*
X20589423Y2161948D01*
X20461948Y2289423D01*
X20323107Y2376662D01*
X20904178Y2957734D01*
X20904178Y2957736D01*
X20903374Y2958423D01*
X20903358Y2958434D01*
X20688631Y3090020D01*
X20455956Y3186397D01*
X20211072Y3245188D01*
X19960000Y3264948D01*
X19708927Y3245188D01*
X19464043Y3186397D01*
X19231368Y3090020D01*
X19016637Y2958432D01*
X19015820Y2957734D01*
X19596892Y2376662D01*
X19458052Y2289423D01*
X19330577Y2161948D01*
X19243338Y2023108D01*
X18662266Y2604180D01*
X18661568Y2603363D01*
X18529980Y2388632D01*
X18433603Y2155957D01*
X18374812Y1911073D01*
X18355052Y1660000D01*
X18374812Y1408928D01*
X18433603Y1164044D01*
X18529980Y931369D01*
X18661566Y716642D01*
X18661577Y716626D01*
X18662264Y715822D01*
X18662266Y715822D01*
X19243337Y1296893D01*
X19330577Y1158052D01*
X19458052Y1030577D01*
X19596891Y943339D01*
X18990371Y336819D01*
X18929048Y303334D01*
X18902690Y300500D01*
X2002214Y300500D01*
X1997791Y300658D01*
X1979142Y301992D01*
X1766982Y317166D01*
X1749470Y319684D01*
X1529862Y367457D01*
X1512887Y372441D01*
X1302311Y450981D01*
X1286217Y458331D01*
X1088963Y566041D01*
X1074080Y575606D01*
X894163Y710290D01*
X880792Y721876D01*
X721875Y880793D01*
X710289Y894164D01*
X575605Y1074081D01*
X566040Y1088964D01*
X458330Y1286218D01*
X450983Y1302306D01*
X372437Y1512897D01*
X367458Y1529856D01*
X319683Y1749471D01*
X317165Y1766983D01*
X300658Y1997790D01*
X300500Y2002214D01*
X300500Y2075480D01*
X5565618Y2075480D01*
X5596488Y1900404D01*
X5666904Y1737161D01*
X5724349Y1660000D01*
X5773067Y1594561D01*
X5909254Y1480286D01*
X5987990Y1440743D01*
X6068118Y1400501D01*
X6068119Y1400501D01*
X6068123Y1400499D01*
X6241110Y1359500D01*
X6241113Y1359500D01*
X6374285Y1359500D01*
X6374292Y1359500D01*
X6506577Y1374962D01*
X6673635Y1435766D01*
X6822168Y1533457D01*
X6944167Y1662769D01*
X7033057Y1816731D01*
X7084045Y1987042D01*
X7089131Y2074372D01*
X7112680Y2140151D01*
X7168055Y2182759D01*
X7237674Y2188664D01*
X7256491Y2183253D01*
X7265976Y2179693D01*
X7321345Y2169645D01*
X7487450Y2139500D01*
X7487453Y2139500D01*
X7656148Y2139500D01*
X7656155Y2139500D01*
X7824188Y2154623D01*
X7948770Y2189006D01*
X8018627Y2187867D01*
X8076782Y2149139D01*
X8104766Y2085118D01*
X8105546Y2076698D01*
X8105616Y2075489D01*
X8136488Y1900404D01*
X8206904Y1737161D01*
X8264349Y1660000D01*
X8313067Y1594561D01*
X8449254Y1480286D01*
X8527990Y1440743D01*
X8608118Y1400501D01*
X8608119Y1400501D01*
X8608123Y1400499D01*
X8781110Y1359500D01*
X8781113Y1359500D01*
X8914285Y1359500D01*
X8914292Y1359500D01*
X9046577Y1374962D01*
X9213635Y1435766D01*
X9362168Y1533457D01*
X9484167Y1662769D01*
X9573057Y1816731D01*
X9624045Y1987042D01*
X9634382Y2164520D01*
X9603511Y2339599D01*
X9533096Y2502838D01*
X9426933Y2645439D01*
X9354112Y2706543D01*
X9290746Y2759714D01*
X9290744Y2759715D01*
X9131881Y2839500D01*
X9131877Y2839501D01*
X8958890Y2880500D01*
X8921860Y2880500D01*
X8854821Y2900185D01*
X8809066Y2952989D01*
X8799122Y3022147D01*
X8800969Y3032092D01*
X8836187Y3186397D01*
X8844191Y3221463D01*
X8854290Y3446330D01*
X8824075Y3669387D01*
X8802007Y3737303D01*
X8800013Y3807141D01*
X8836093Y3866974D01*
X8898793Y3897803D01*
X8912725Y3899409D01*
X8914284Y3899500D01*
X8914292Y3899500D01*
X9046577Y3914962D01*
X9213635Y3975766D01*
X9362168Y4073457D01*
X9484167Y4202769D01*
X9573057Y4356731D01*
X9624045Y4527042D01*
X9634382Y4704520D01*
X9603511Y4879599D01*
X9533096Y5042838D01*
X9524147Y5054858D01*
X9438787Y5169516D01*
X9426933Y5185439D01*
X9425039Y5187028D01*
X9290746Y5299714D01*
X9290744Y5299715D01*
X9131881Y5379500D01*
X9131877Y5379501D01*
X8958890Y5420500D01*
X8825708Y5420500D01*
X8717139Y5407810D01*
X8693422Y5405038D01*
X8693419Y5405037D01*
X8526367Y5344236D01*
X8427343Y5279107D01*
X8377832Y5246543D01*
X8377831Y5246543D01*
X8377831Y5246542D01*
X8255833Y5117233D01*
X8166944Y4963272D01*
X8115955Y4792959D01*
X8115954Y4792954D01*
X8110868Y4705630D01*
X8087318Y4639849D01*
X8031943Y4597242D01*
X7962323Y4591337D01*
X7943507Y4596748D01*
X7934022Y4600308D01*
X7712550Y4640500D01*
X7712547Y4640500D01*
X7543845Y4640500D01*
X7505399Y4637040D01*
X7375813Y4625378D01*
X7375807Y4625377D01*
X7251231Y4590995D01*
X7181370Y4592135D01*
X7123217Y4630863D01*
X7095233Y4694884D01*
X7094452Y4703317D01*
X7094381Y4704512D01*
X7094382Y4704520D01*
X7063511Y4879599D01*
X6993096Y5042838D01*
X6984147Y5054858D01*
X6898787Y5169516D01*
X6886933Y5185439D01*
X6885039Y5187028D01*
X6750746Y5299714D01*
X6750744Y5299715D01*
X6591881Y5379500D01*
X6591877Y5379501D01*
X6418890Y5420500D01*
X6285708Y5420500D01*
X6177139Y5407810D01*
X6153422Y5405038D01*
X6153419Y5405037D01*
X5986367Y5344236D01*
X5887343Y5279107D01*
X5837832Y5246543D01*
X5837831Y5246543D01*
X5837831Y5246542D01*
X5715833Y5117233D01*
X5626944Y4963272D01*
X5575955Y4792959D01*
X5575954Y4792954D01*
X5565618Y4615481D01*
X5565618Y4615480D01*
X5595652Y4445145D01*
X5596489Y4440401D01*
X5602102Y4427389D01*
X5666904Y4277161D01*
X5724349Y4200000D01*
X5773067Y4134561D01*
X5909254Y4020286D01*
X5987990Y3980743D01*
X6068118Y3940501D01*
X6068119Y3940501D01*
X6068123Y3940499D01*
X6241110Y3899500D01*
X6241113Y3899500D01*
X6278140Y3899500D01*
X6345179Y3879815D01*
X6390934Y3827011D01*
X6400878Y3757853D01*
X6399031Y3747908D01*
X6355810Y3558543D01*
X6355808Y3558532D01*
X6346815Y3358281D01*
X6345710Y3333670D01*
X6375925Y3110613D01*
X6375926Y3110609D01*
X6397991Y3042700D01*
X6399986Y2972859D01*
X6363906Y2913026D01*
X6301205Y2882198D01*
X6287299Y2880594D01*
X6285737Y2880503D01*
X6285711Y2880500D01*
X6285708Y2880500D01*
X6197775Y2870222D01*
X6153422Y2865038D01*
X6153419Y2865037D01*
X5986367Y2804236D01*
X5918675Y2759714D01*
X5837832Y2706543D01*
X5837831Y2706543D01*
X5837831Y2706542D01*
X5715833Y2577233D01*
X5626944Y2423272D01*
X5575955Y2252959D01*
X5575954Y2252954D01*
X5565618Y2075481D01*
X5565618Y2075480D01*
X300500Y2075480D01*
X300500Y21463944D01*
X320185Y21530983D01*
X372989Y21576738D01*
X442147Y21586682D01*
X505703Y21557657D01*
X512181Y21551625D01*
X605539Y21458267D01*
X639024Y21396944D01*
X640798Y21354405D01*
X640284Y21350500D01*
X661060Y21192695D01*
X661061Y21192691D01*
X721968Y21045645D01*
X721969Y21045643D01*
X721970Y21045642D01*
X818866Y20919366D01*
X945142Y20822470D01*
X1092194Y20761560D01*
X1221904Y20744483D01*
X1249999Y20740784D01*
X1250000Y20740784D01*
X1250001Y20740784D01*
X1266446Y20742950D01*
X1407806Y20761560D01*
X1424047Y20768288D01*
X1493515Y20775757D01*
X1555994Y20744483D01*
X1591648Y20684395D01*
X1595500Y20653727D01*
X1595500Y11423165D01*
X1575815Y11356126D01*
X1523011Y11310371D01*
X1518953Y11308604D01*
X1445144Y11278031D01*
X1445142Y11278030D01*
X1408613Y11250000D01*
X1318866Y11181134D01*
X1221968Y11054856D01*
X1161061Y10907810D01*
X1161060Y10907806D01*
X1143975Y10778032D01*
X1140284Y10750000D01*
X1147291Y10696774D01*
X1161060Y10592195D01*
X1161061Y10592191D01*
X1221968Y10445145D01*
X1221969Y10445143D01*
X1221970Y10445142D01*
X1318866Y10318866D01*
X1445142Y10221970D01*
X1592194Y10161060D01*
X1731640Y10142702D01*
X1749999Y10140284D01*
X1750000Y10140284D01*
X1750001Y10140284D01*
X1766446Y10142450D01*
X1907806Y10161060D01*
X2054858Y10221970D01*
X2136013Y10284243D01*
X2201182Y10309438D01*
X2269627Y10295400D01*
X2319617Y10246586D01*
X2335500Y10185868D01*
X2335500Y5337748D01*
X2335264Y5332342D01*
X2331516Y5289513D01*
X2342644Y5247983D01*
X2343815Y5242701D01*
X2351282Y5200355D01*
X2352227Y5197758D01*
X2361795Y5174661D01*
X2362960Y5172162D01*
X2387622Y5136942D01*
X2390529Y5132379D01*
X2412027Y5095144D01*
X2412028Y5095143D01*
X2412029Y5095142D01*
X2444957Y5067512D01*
X2448947Y5063856D01*
X2611297Y4901506D01*
X2644782Y4840183D01*
X2646555Y4797641D01*
X2640284Y4750003D01*
X2640284Y4750000D01*
X2660460Y4596748D01*
X2661060Y4592195D01*
X2661061Y4592191D01*
X2721968Y4445145D01*
X2721969Y4445143D01*
X2721970Y4445142D01*
X2818866Y4318866D01*
X2945142Y4221970D01*
X3092194Y4161060D01*
X3231640Y4142702D01*
X3249999Y4140284D01*
X3250000Y4140284D01*
X3250001Y4140284D01*
X3266446Y4142450D01*
X3407806Y4161060D01*
X3554858Y4221970D01*
X3681134Y4318866D01*
X3778030Y4445142D01*
X3838940Y4592194D01*
X3859716Y4750000D01*
X3838940Y4907806D01*
X3778030Y5054858D01*
X3681134Y5181134D01*
X3554858Y5278030D01*
X3554857Y5278031D01*
X3554855Y5278032D01*
X3407809Y5338939D01*
X3407807Y5338940D01*
X3407806Y5338940D01*
X3297632Y5353445D01*
X3250001Y5359716D01*
X3249997Y5359716D01*
X3202359Y5353445D01*
X3133323Y5364211D01*
X3098494Y5388703D01*
X3060819Y5426378D01*
X3027334Y5487701D01*
X3024500Y5514059D01*
X3024500Y22587199D01*
X3044185Y22654238D01*
X3096989Y22699993D01*
X3166147Y22709937D01*
X3229703Y22680912D01*
X3246872Y22662689D01*
X3273638Y22627808D01*
X3299214Y22594476D01*
X3318866Y22568866D01*
X3445142Y22471970D01*
X3592194Y22411060D01*
X3731640Y22392702D01*
X3749999Y22390284D01*
X3750000Y22390284D01*
X3750001Y22390284D01*
X3766446Y22392450D01*
X3907806Y22411060D01*
X3984048Y22442641D01*
X4053517Y22450109D01*
X4115996Y22418834D01*
X4151648Y22358745D01*
X4155500Y22328079D01*
X4155500Y21058762D01*
X4135815Y20991723D01*
X4106988Y20960387D01*
X4068866Y20931135D01*
X3971970Y20804860D01*
X3971969Y20804857D01*
X3911061Y20657810D01*
X3911060Y20657806D01*
X3895513Y20539714D01*
X3890284Y20500000D01*
X3904380Y20392929D01*
X3911060Y20342195D01*
X3911061Y20342191D01*
X3971968Y20195145D01*
X3971969Y20195143D01*
X3971970Y20195142D01*
X4068866Y20068866D01*
X4195142Y19971970D01*
X4342194Y19911060D01*
X4481640Y19892702D01*
X4499999Y19890284D01*
X4500000Y19890284D01*
X4500001Y19890284D01*
X4516446Y19892450D01*
X4657806Y19911060D01*
X4804858Y19971970D01*
X4931134Y20068866D01*
X5028030Y20195142D01*
X5088940Y20342194D01*
X5109716Y20500000D01*
X5088940Y20657806D01*
X5028030Y20804858D01*
X5028029Y20804859D01*
X5028029Y20804860D01*
X4931133Y20931135D01*
X4893012Y20960387D01*
X4851810Y21016816D01*
X4844500Y21058762D01*
X4844500Y29305381D01*
X4864185Y29372420D01*
X4916989Y29418175D01*
X4986147Y29428119D01*
X5015951Y29419943D01*
X5064995Y29399628D01*
X5204441Y29381270D01*
X5222800Y29378852D01*
X5222801Y29378852D01*
X5222802Y29378852D01*
X5239247Y29381018D01*
X5380607Y29399628D01*
X5527659Y29460538D01*
X5622968Y29533673D01*
X5688137Y29558867D01*
X5756582Y29544829D01*
X5778161Y29530286D01*
X5861284Y29460538D01*
X5909254Y29420286D01*
X5987990Y29380743D01*
X6068118Y29340501D01*
X6068119Y29340501D01*
X6068123Y29340499D01*
X6241110Y29299500D01*
X6241113Y29299500D01*
X6374285Y29299500D01*
X6374292Y29299500D01*
X6506577Y29314962D01*
X6673635Y29375766D01*
X6822168Y29473457D01*
X6944167Y29602769D01*
X7033057Y29756731D01*
X7084045Y29927042D01*
X7094382Y30104520D01*
X7063511Y30279599D01*
X6993096Y30442838D01*
X6980138Y30460243D01*
X6912372Y30551268D01*
X6886933Y30585439D01*
X6872827Y30597275D01*
X6750746Y30699714D01*
X6750744Y30699715D01*
X6591881Y30779500D01*
X6580299Y30782245D01*
X6418890Y30820500D01*
X6285708Y30820500D01*
X6169958Y30806971D01*
X6153422Y30805038D01*
X6153419Y30805037D01*
X5986367Y30744236D01*
X5837833Y30646544D01*
X5808694Y30615658D01*
X5748370Y30580404D01*
X5678563Y30583360D01*
X5621436Y30623588D01*
X5595125Y30688314D01*
X5594500Y30700753D01*
X5594500Y31958478D01*
X5614185Y32025517D01*
X5666989Y32071272D01*
X5736147Y32081216D01*
X5798205Y32053468D01*
X5909254Y31960286D01*
X5986459Y31921512D01*
X6068118Y31880501D01*
X6068119Y31880501D01*
X6068123Y31880499D01*
X6241110Y31839500D01*
X6241113Y31839500D01*
X6374285Y31839500D01*
X6374292Y31839500D01*
X6473472Y31851093D01*
X6542342Y31839325D01*
X6593918Y31792191D01*
X6608745Y31749989D01*
X6608956Y31750045D01*
X6609695Y31747284D01*
X6610805Y31744127D01*
X6611059Y31742195D01*
X6671968Y31595145D01*
X6671969Y31595143D01*
X6671970Y31595142D01*
X6768866Y31468866D01*
X6895142Y31371970D01*
X7042194Y31311060D01*
X7171904Y31293983D01*
X7199999Y31290284D01*
X7200000Y31290284D01*
X7200001Y31290284D01*
X7216446Y31292450D01*
X7357806Y31311060D01*
X7374047Y31317788D01*
X7443515Y31325257D01*
X7505994Y31293983D01*
X7541648Y31233895D01*
X7545500Y31203227D01*
X7545500Y28511286D01*
X7525815Y28444247D01*
X7473011Y28398492D01*
X7449832Y28391833D01*
X7450044Y28391043D01*
X7442190Y28388939D01*
X7295144Y28328032D01*
X7168866Y28231134D01*
X7071967Y28104855D01*
X7070696Y28101784D01*
X7068930Y28099593D01*
X7067906Y28097819D01*
X7067629Y28097979D01*
X7026853Y28047382D01*
X6960558Y28025320D01*
X6892860Y28042602D01*
X6876431Y28054251D01*
X6871092Y28058731D01*
X6750746Y28159714D01*
X6691350Y28189544D01*
X6591881Y28239500D01*
X6566637Y28245483D01*
X6418890Y28280500D01*
X6285708Y28280500D01*
X6169958Y28266971D01*
X6153422Y28265038D01*
X6153419Y28265037D01*
X5986367Y28204236D01*
X5918675Y28159714D01*
X5837832Y28106543D01*
X5837831Y28106543D01*
X5837831Y28106542D01*
X5715833Y27977233D01*
X5626944Y27823272D01*
X5575955Y27652959D01*
X5575954Y27652954D01*
X5565618Y27475481D01*
X5565618Y27475480D01*
X5595727Y27304719D01*
X5596489Y27300401D01*
X5608753Y27271970D01*
X5666904Y27137161D01*
X5751518Y27023506D01*
X5773067Y26994561D01*
X5909254Y26880286D01*
X5937487Y26866107D01*
X6068118Y26800501D01*
X6068119Y26800501D01*
X6068123Y26800499D01*
X6241110Y26759500D01*
X6241113Y26759500D01*
X6374285Y26759500D01*
X6374292Y26759500D01*
X6506577Y26774962D01*
X6618054Y26815537D01*
X6687779Y26819967D01*
X6748835Y26785997D01*
X6781832Y26724411D01*
X6783400Y26682830D01*
X6777380Y26637100D01*
X6777380Y26637097D01*
X6777380Y26637096D01*
X6797555Y26483852D01*
X6798156Y26479291D01*
X6798157Y26479287D01*
X6856061Y26339493D01*
X6865500Y26292041D01*
X6865500Y25763117D01*
X6845815Y25696078D01*
X6793011Y25650323D01*
X6723853Y25640379D01*
X6685849Y25652307D01*
X6591881Y25699500D01*
X6591877Y25699501D01*
X6418890Y25740500D01*
X6285708Y25740500D01*
X6169958Y25726971D01*
X6153422Y25725038D01*
X6153419Y25725037D01*
X5986367Y25664236D01*
X5918675Y25619714D01*
X5837832Y25566543D01*
X5837831Y25566543D01*
X5837831Y25566542D01*
X5715833Y25437233D01*
X5626944Y25283272D01*
X5575955Y25112959D01*
X5575954Y25112954D01*
X5565618Y24935481D01*
X5565618Y24935480D01*
X5596488Y24760404D01*
X5666904Y24597161D01*
X5733503Y24507704D01*
X5773067Y24454561D01*
X5909254Y24340286D01*
X5957940Y24315835D01*
X6068118Y24260501D01*
X6068119Y24260501D01*
X6068123Y24260499D01*
X6241110Y24219500D01*
X6241113Y24219500D01*
X6374285Y24219500D01*
X6374292Y24219500D01*
X6506577Y24234962D01*
X6673635Y24295766D01*
X6673641Y24295771D01*
X6680086Y24299006D01*
X6680682Y24297820D01*
X6740180Y24315979D01*
X6807425Y24297009D01*
X6853739Y24244696D01*
X6865500Y24191986D01*
X6865500Y23223117D01*
X6845815Y23156078D01*
X6793011Y23110323D01*
X6723853Y23100379D01*
X6685849Y23112307D01*
X6591881Y23159500D01*
X6591877Y23159501D01*
X6418890Y23200500D01*
X6285708Y23200500D01*
X6177567Y23187860D01*
X6153422Y23185038D01*
X6153419Y23185037D01*
X5986367Y23124236D01*
X5918675Y23079714D01*
X5837832Y23026543D01*
X5837831Y23026543D01*
X5837831Y23026542D01*
X5715833Y22897233D01*
X5626944Y22743272D01*
X5575955Y22572959D01*
X5575954Y22572954D01*
X5565618Y22395481D01*
X5565618Y22395480D01*
X5595790Y22224360D01*
X5596489Y22220401D01*
X5620106Y22165651D01*
X5666904Y22057161D01*
X5752796Y21941789D01*
X5773067Y21914561D01*
X5909254Y21800286D01*
X5963157Y21773215D01*
X6068118Y21720501D01*
X6068119Y21720501D01*
X6068123Y21720499D01*
X6241110Y21679500D01*
X6241113Y21679500D01*
X6374285Y21679500D01*
X6374292Y21679500D01*
X6506577Y21694962D01*
X6673635Y21755766D01*
X6673641Y21755771D01*
X6680086Y21759006D01*
X6680682Y21757820D01*
X6740180Y21775979D01*
X6807425Y21757009D01*
X6853739Y21704696D01*
X6865500Y21651986D01*
X6865500Y20683117D01*
X6845815Y20616078D01*
X6793011Y20570323D01*
X6723853Y20560379D01*
X6685849Y20572307D01*
X6591881Y20619500D01*
X6591877Y20619501D01*
X6418890Y20660500D01*
X6285708Y20660500D01*
X6169958Y20646971D01*
X6153422Y20645038D01*
X6153419Y20645037D01*
X5986367Y20584236D01*
X5918675Y20539714D01*
X5837832Y20486543D01*
X5837831Y20486543D01*
X5837831Y20486542D01*
X5715833Y20357233D01*
X5626944Y20203272D01*
X5575955Y20032959D01*
X5575954Y20032954D01*
X5565618Y19855481D01*
X5565618Y19855480D01*
X5596488Y19680404D01*
X5666904Y19517161D01*
X5748314Y19407810D01*
X5773067Y19374561D01*
X5909254Y19260286D01*
X5970200Y19229678D01*
X6068118Y19180501D01*
X6068119Y19180501D01*
X6068123Y19180499D01*
X6241110Y19139500D01*
X6241113Y19139500D01*
X6374285Y19139500D01*
X6374292Y19139500D01*
X6506577Y19154962D01*
X6673635Y19215766D01*
X6673641Y19215771D01*
X6680086Y19219006D01*
X6680682Y19217820D01*
X6740180Y19235979D01*
X6807425Y19217009D01*
X6853739Y19164696D01*
X6865500Y19111986D01*
X6865500Y18143117D01*
X6845815Y18076078D01*
X6793011Y18030323D01*
X6723853Y18020379D01*
X6685849Y18032307D01*
X6591881Y18079500D01*
X6584843Y18081168D01*
X6418890Y18120500D01*
X6285708Y18120500D01*
X6169958Y18106971D01*
X6153422Y18105038D01*
X6153419Y18105037D01*
X5986367Y18044236D01*
X5918675Y17999714D01*
X5837832Y17946543D01*
X5837831Y17946543D01*
X5837831Y17946542D01*
X5715833Y17817233D01*
X5626944Y17663272D01*
X5626943Y17663270D01*
X5626943Y17663269D01*
X5618696Y17635721D01*
X5575955Y17492959D01*
X5575954Y17492954D01*
X5565618Y17315481D01*
X5565618Y17315480D01*
X5596488Y17140404D01*
X5666904Y16977161D01*
X5746485Y16870266D01*
X5773067Y16834561D01*
X5909254Y16720286D01*
X5987990Y16680743D01*
X6068118Y16640501D01*
X6068119Y16640501D01*
X6068123Y16640499D01*
X6241110Y16599500D01*
X6241113Y16599500D01*
X6374285Y16599500D01*
X6374292Y16599500D01*
X6506577Y16614962D01*
X6673635Y16675766D01*
X6673641Y16675771D01*
X6680086Y16679006D01*
X6680682Y16677820D01*
X6740180Y16695979D01*
X6807425Y16677009D01*
X6853739Y16624696D01*
X6865500Y16571986D01*
X6865500Y15603117D01*
X6845815Y15536078D01*
X6793011Y15490323D01*
X6723853Y15480379D01*
X6685849Y15492307D01*
X6591881Y15539500D01*
X6591877Y15539501D01*
X6418890Y15580500D01*
X6285708Y15580500D01*
X6169958Y15566971D01*
X6153422Y15565038D01*
X6153419Y15565037D01*
X5986367Y15504236D01*
X5918675Y15459714D01*
X5837832Y15406543D01*
X5837831Y15406543D01*
X5837831Y15406542D01*
X5715833Y15277233D01*
X5626944Y15123272D01*
X5575955Y14952959D01*
X5575954Y14952954D01*
X5565618Y14775481D01*
X5565618Y14775480D01*
X5596488Y14600404D01*
X5666904Y14437161D01*
X5722290Y14362766D01*
X5773067Y14294561D01*
X5909254Y14180286D01*
X5987990Y14140743D01*
X6068118Y14100501D01*
X6068119Y14100501D01*
X6068123Y14100499D01*
X6241110Y14059500D01*
X6241113Y14059500D01*
X6374285Y14059500D01*
X6374292Y14059500D01*
X6506577Y14074962D01*
X6673635Y14135766D01*
X6673641Y14135771D01*
X6680086Y14139006D01*
X6680682Y14137820D01*
X6740180Y14155979D01*
X6807425Y14137009D01*
X6853739Y14084696D01*
X6865500Y14031986D01*
X6865500Y13063117D01*
X6845815Y12996078D01*
X6793011Y12950323D01*
X6723853Y12940379D01*
X6685849Y12952307D01*
X6591881Y12999500D01*
X6591877Y12999501D01*
X6418890Y13040500D01*
X6285708Y13040500D01*
X6169958Y13026971D01*
X6153422Y13025038D01*
X6153419Y13025037D01*
X5986367Y12964236D01*
X5918675Y12919714D01*
X5837832Y12866543D01*
X5837831Y12866543D01*
X5837831Y12866542D01*
X5715833Y12737233D01*
X5626944Y12583272D01*
X5575955Y12412959D01*
X5575954Y12412954D01*
X5565618Y12235481D01*
X5565618Y12235480D01*
X5596488Y12060404D01*
X5666904Y11897161D01*
X5722290Y11822766D01*
X5773067Y11754561D01*
X5909254Y11640286D01*
X5987990Y11600743D01*
X6068118Y11560501D01*
X6068119Y11560501D01*
X6068123Y11560499D01*
X6241110Y11519500D01*
X6241113Y11519500D01*
X6374285Y11519500D01*
X6374292Y11519500D01*
X6506577Y11534962D01*
X6673635Y11595766D01*
X6673641Y11595771D01*
X6680086Y11599006D01*
X6680682Y11597820D01*
X6740180Y11615979D01*
X6807425Y11597009D01*
X6853739Y11544696D01*
X6865500Y11491986D01*
X6865500Y10523117D01*
X6845815Y10456078D01*
X6793011Y10410323D01*
X6723853Y10400379D01*
X6685849Y10412307D01*
X6591881Y10459500D01*
X6591877Y10459501D01*
X6418890Y10500500D01*
X6285708Y10500500D01*
X6169958Y10486971D01*
X6153422Y10485038D01*
X6153419Y10485037D01*
X5986367Y10424236D01*
X5918675Y10379714D01*
X5837832Y10326543D01*
X5837831Y10326543D01*
X5837831Y10326542D01*
X5715833Y10197233D01*
X5626944Y10043272D01*
X5575955Y9872959D01*
X5575954Y9872954D01*
X5565618Y9695481D01*
X5565618Y9695480D01*
X5595727Y9524719D01*
X5596489Y9520401D01*
X5623544Y9457680D01*
X5666904Y9357161D01*
X5744331Y9253160D01*
X5773067Y9214561D01*
X5909254Y9100286D01*
X5987194Y9061143D01*
X6068118Y9020501D01*
X6068119Y9020501D01*
X6068123Y9020499D01*
X6241110Y8979500D01*
X6241113Y8979500D01*
X6374285Y8979500D01*
X6374292Y8979500D01*
X6506577Y8994962D01*
X6673635Y9055766D01*
X6673641Y9055771D01*
X6680086Y9059006D01*
X6680682Y9057820D01*
X6740180Y9075979D01*
X6807425Y9057009D01*
X6853739Y9004696D01*
X6865500Y8951986D01*
X6865500Y8679745D01*
X6845815Y8612706D01*
X6839876Y8604259D01*
X6801969Y8554859D01*
X6741061Y8407810D01*
X6741060Y8407806D01*
X6720284Y8250000D01*
X6741060Y8092194D01*
X6743931Y8085263D01*
X6751397Y8015793D01*
X6720120Y7953315D01*
X6660030Y7917665D01*
X6599377Y7919834D01*
X6598904Y7917835D01*
X6591879Y7919500D01*
X6591877Y7919501D01*
X6418890Y7960500D01*
X6285708Y7960500D01*
X6169958Y7946971D01*
X6153422Y7945038D01*
X6153419Y7945037D01*
X5986367Y7884236D01*
X5887343Y7819107D01*
X5837832Y7786543D01*
X5837831Y7786543D01*
X5837831Y7786542D01*
X5715833Y7657233D01*
X5626944Y7503272D01*
X5575955Y7332959D01*
X5575954Y7332954D01*
X5565618Y7155481D01*
X5565618Y7155480D01*
X5596488Y6980404D01*
X5666904Y6817161D01*
X5724349Y6740000D01*
X5773067Y6674561D01*
X5909254Y6560286D01*
X5973479Y6528031D01*
X6068118Y6480501D01*
X6068119Y6480501D01*
X6068123Y6480499D01*
X6241110Y6439500D01*
X6241113Y6439500D01*
X6374285Y6439500D01*
X6374292Y6439500D01*
X6506577Y6454962D01*
X6673635Y6515766D01*
X6822168Y6613457D01*
X6944167Y6742769D01*
X7033057Y6896731D01*
X7084045Y7067042D01*
X7089196Y7155480D01*
X8105618Y7155480D01*
X8136488Y6980404D01*
X8206904Y6817161D01*
X8264349Y6740000D01*
X8313067Y6674561D01*
X8449254Y6560286D01*
X8513479Y6528031D01*
X8608118Y6480501D01*
X8608119Y6480501D01*
X8608123Y6480499D01*
X8781110Y6439500D01*
X8781113Y6439500D01*
X8914285Y6439500D01*
X8914292Y6439500D01*
X9046577Y6454962D01*
X9213635Y6515766D01*
X9362168Y6613457D01*
X9481555Y6740000D01*
X18355052Y6740000D01*
X18374812Y6488928D01*
X18433603Y6244044D01*
X18529980Y6011369D01*
X18661566Y5796642D01*
X18661577Y5796626D01*
X18662264Y5795822D01*
X18662266Y5795822D01*
X19243337Y6376893D01*
X19330577Y6238052D01*
X19458052Y6110577D01*
X19596891Y6023339D01*
X19015819Y5442268D01*
X19016636Y5441570D01*
X19016638Y5441568D01*
X19231368Y5309981D01*
X19464043Y5213604D01*
X19708927Y5154813D01*
X19960000Y5135053D01*
X20211072Y5154813D01*
X20455956Y5213604D01*
X20688631Y5309981D01*
X20903360Y5441568D01*
X20903371Y5441576D01*
X20904179Y5442268D01*
X20323108Y6023339D01*
X20461948Y6110577D01*
X20589423Y6238052D01*
X20676661Y6376892D01*
X21257732Y5795821D01*
X21283410Y5796814D01*
X21285866Y5798412D01*
X21355734Y5798823D01*
X21414734Y5761395D01*
X21444132Y5698011D01*
X21445500Y5679642D01*
X21445500Y5007442D01*
X21425815Y4940403D01*
X21423075Y4936319D01*
X21365954Y4854743D01*
X21365953Y4854741D01*
X21269489Y4647872D01*
X21269485Y4647863D01*
X21210412Y4427395D01*
X21210410Y4427384D01*
X21190517Y4200002D01*
X21190517Y4199999D01*
X21210410Y3972617D01*
X21210412Y3972606D01*
X21269485Y3752138D01*
X21269487Y3752134D01*
X21269488Y3752130D01*
X21308070Y3669390D01*
X21365953Y3545259D01*
X21365955Y3545255D01*
X21496872Y3358288D01*
X21496881Y3358278D01*
X21658277Y3196882D01*
X21658287Y3196873D01*
X21845254Y3065956D01*
X21845258Y3065954D01*
X22052130Y2969488D01*
X22052136Y2969487D01*
X22052137Y2969486D01*
X22093392Y2958432D01*
X22272611Y2910411D01*
X22431203Y2896536D01*
X22499998Y2890517D01*
X22500000Y2890517D01*
X22500002Y2890517D01*
X22568797Y2896536D01*
X22727389Y2910411D01*
X22947870Y2969488D01*
X23154742Y3065954D01*
X23189112Y3090020D01*
X23341712Y3196873D01*
X23341712Y3196874D01*
X23341719Y3196878D01*
X23503122Y3358281D01*
X23634046Y3545258D01*
X23730512Y3752130D01*
X23789589Y3972611D01*
X23809483Y4200000D01*
X23789589Y4427389D01*
X23730512Y4647870D01*
X23634046Y4854741D01*
X23634045Y4854743D01*
X23634044Y4854745D01*
X23527123Y5007442D01*
X23503122Y5041719D01*
X23341719Y5203122D01*
X23341717Y5203124D01*
X23341712Y5203128D01*
X23154745Y5334045D01*
X23154741Y5334047D01*
X22996563Y5407806D01*
X22947870Y5430512D01*
X22947866Y5430513D01*
X22947862Y5430515D01*
X22727394Y5489588D01*
X22727390Y5489589D01*
X22727389Y5489589D01*
X22727388Y5489590D01*
X22727383Y5489590D01*
X22500002Y5509483D01*
X22499998Y5509483D01*
X22289307Y5491050D01*
X22220807Y5504817D01*
X22170624Y5553432D01*
X22154500Y5614578D01*
X22154500Y6740000D01*
X23435052Y6740000D01*
X23454812Y6488928D01*
X23513603Y6244044D01*
X23609980Y6011369D01*
X23741566Y5796642D01*
X23741577Y5796626D01*
X23742264Y5795822D01*
X23742266Y5795822D01*
X24323337Y6376893D01*
X24410577Y6238052D01*
X24538052Y6110577D01*
X24676891Y6023339D01*
X24095819Y5442268D01*
X24096636Y5441570D01*
X24096638Y5441568D01*
X24311368Y5309981D01*
X24544043Y5213604D01*
X24788927Y5154813D01*
X25040000Y5135053D01*
X25291072Y5154813D01*
X25535956Y5213604D01*
X25768631Y5309981D01*
X25983360Y5441568D01*
X25983371Y5441576D01*
X25984179Y5442268D01*
X25403108Y6023339D01*
X25541948Y6110577D01*
X25669423Y6238052D01*
X25756661Y6376892D01*
X26337732Y5795821D01*
X26338424Y5796629D01*
X26338432Y5796640D01*
X26470019Y6011369D01*
X26566396Y6244044D01*
X26625187Y6488928D01*
X26644947Y6740000D01*
X26625187Y6991073D01*
X26566396Y7235957D01*
X26470019Y7468632D01*
X26338432Y7683362D01*
X26338430Y7683364D01*
X26337732Y7684181D01*
X25756660Y7103110D01*
X25669423Y7241948D01*
X25541948Y7369423D01*
X25403107Y7456662D01*
X25984178Y8037734D01*
X25984178Y8037736D01*
X25983374Y8038423D01*
X25983358Y8038434D01*
X25768631Y8170020D01*
X25535956Y8266397D01*
X25291072Y8325188D01*
X25040000Y8344948D01*
X24788927Y8325188D01*
X24544043Y8266397D01*
X24311368Y8170020D01*
X24096637Y8038432D01*
X24095820Y8037734D01*
X24676892Y7456662D01*
X24538052Y7369423D01*
X24410577Y7241948D01*
X24323338Y7103108D01*
X23742266Y7684180D01*
X23741569Y7683364D01*
X23609980Y7468632D01*
X23513603Y7235957D01*
X23454812Y6991073D01*
X23435052Y6740000D01*
X22154500Y6740000D01*
X22154500Y33763360D01*
X22174185Y33830399D01*
X22203010Y33861734D01*
X22293230Y33930962D01*
X22390126Y34057238D01*
X22396852Y34073478D01*
X22440692Y34127882D01*
X22506986Y34149948D01*
X22574685Y34132670D01*
X22599095Y34113708D01*
X23219181Y33493622D01*
X23252666Y33432299D01*
X23255500Y33405941D01*
X23255500Y19708762D01*
X23235815Y19641723D01*
X23206988Y19610387D01*
X23168866Y19581135D01*
X23071970Y19454860D01*
X23071969Y19454857D01*
X23011061Y19307810D01*
X23011060Y19307806D01*
X22990938Y19154964D01*
X22990284Y19150000D01*
X22997894Y19092194D01*
X23011060Y18992195D01*
X23011061Y18992191D01*
X23071968Y18845145D01*
X23071969Y18845143D01*
X23071970Y18845142D01*
X23168866Y18718866D01*
X23295142Y18621970D01*
X23442194Y18561060D01*
X23581640Y18542702D01*
X23599999Y18540284D01*
X23600000Y18540284D01*
X23600001Y18540284D01*
X23616446Y18542450D01*
X23757806Y18561060D01*
X23904858Y18621970D01*
X24031134Y18718866D01*
X24128030Y18845142D01*
X24188940Y18992194D01*
X24209716Y19150000D01*
X24209062Y19154964D01*
X24201275Y19214112D01*
X24188940Y19307806D01*
X24128030Y19454858D01*
X24128029Y19454859D01*
X24128029Y19454860D01*
X24031133Y19581135D01*
X23993012Y19610387D01*
X23951810Y19666816D01*
X23944500Y19708762D01*
X23944500Y21660421D01*
X23964185Y21727460D01*
X24016989Y21773215D01*
X24086147Y21783159D01*
X24115948Y21774984D01*
X24160195Y21756656D01*
X24299641Y21738298D01*
X24318000Y21735880D01*
X24318001Y21735880D01*
X24318002Y21735880D01*
X24334447Y21738046D01*
X24475807Y21756656D01*
X24622859Y21817566D01*
X24749135Y21914462D01*
X24846031Y22040738D01*
X24906941Y22187790D01*
X24927717Y22345596D01*
X24927204Y22349492D01*
X24927717Y22352782D01*
X24927717Y22353725D01*
X24927864Y22353725D01*
X24937966Y22418527D01*
X24962458Y22453361D01*
X24981425Y22472328D01*
X25001279Y22488450D01*
X25010582Y22494527D01*
X25032640Y22522869D01*
X25037729Y22528632D01*
X25040581Y22531482D01*
X25054294Y22550689D01*
X25088375Y22594476D01*
X25088376Y22594482D01*
X25092159Y22601469D01*
X25095653Y22608617D01*
X25111479Y22661777D01*
X25118048Y22680912D01*
X25129500Y22714268D01*
X25129500Y22714271D01*
X25130802Y22722074D01*
X25131792Y22730008D01*
X25129500Y22785431D01*
X25129500Y34547971D01*
X25149185Y34615010D01*
X25201989Y34660765D01*
X25271147Y34670709D01*
X25334703Y34641684D01*
X25341181Y34635652D01*
X25527827Y34449006D01*
X25561312Y34387683D01*
X25563086Y34345144D01*
X25562572Y34341239D01*
X25568686Y34294796D01*
X25583348Y34183434D01*
X25583349Y34183430D01*
X25644256Y34036384D01*
X25644257Y34036382D01*
X25644258Y34036381D01*
X25741154Y33910105D01*
X25867430Y33813209D01*
X26014482Y33752299D01*
X26151538Y33734255D01*
X26215433Y33705990D01*
X26253904Y33647665D01*
X26259351Y33611317D01*
X26259351Y22372869D01*
X26256712Y22347421D01*
X26254431Y22336548D01*
X26258874Y22300909D01*
X26259351Y22293232D01*
X26259351Y22289205D01*
X26260040Y22285078D01*
X26263234Y22265932D01*
X26270099Y22210861D01*
X26272356Y22203281D01*
X26274952Y22195718D01*
X26291224Y22165651D01*
X26305819Y22097323D01*
X26305108Y22090449D01*
X26304966Y22089366D01*
X26299783Y22050000D01*
X26320086Y21895783D01*
X26320559Y21892195D01*
X26320560Y21892191D01*
X26381467Y21745145D01*
X26381468Y21745143D01*
X26381469Y21745142D01*
X26478365Y21618866D01*
X26604641Y21521970D01*
X26751693Y21461060D01*
X26891139Y21442702D01*
X26909498Y21440284D01*
X26909499Y21440284D01*
X26909500Y21440284D01*
X26925945Y21442450D01*
X27067305Y21461060D01*
X27174048Y21505275D01*
X27243517Y21512743D01*
X27305996Y21481468D01*
X27341648Y21421379D01*
X27345500Y21390713D01*
X27345500Y11683557D01*
X27325815Y11616518D01*
X27309181Y11595876D01*
X26607765Y10894461D01*
X26546442Y10860976D01*
X26503900Y10859203D01*
X26500003Y10859716D01*
X26499999Y10859716D01*
X26342194Y10838940D01*
X26342190Y10838939D01*
X26195144Y10778032D01*
X26068866Y10681134D01*
X25971968Y10554856D01*
X25911061Y10407810D01*
X25911060Y10407806D01*
X25890284Y10250000D01*
X25908497Y10111658D01*
X25911060Y10092195D01*
X25911061Y10092191D01*
X25971968Y9945145D01*
X25971969Y9945143D01*
X25971970Y9945142D01*
X26068866Y9818866D01*
X26195142Y9721970D01*
X26342194Y9661060D01*
X26481640Y9642702D01*
X26499999Y9640284D01*
X26500000Y9640284D01*
X26500001Y9640284D01*
X26516446Y9642450D01*
X26657806Y9661060D01*
X26804858Y9721970D01*
X26931134Y9818866D01*
X27002362Y9911693D01*
X27031469Y9932946D01*
X27033604Y9958510D01*
X27034701Y9961248D01*
X27039142Y9971970D01*
X27088940Y10092194D01*
X27109716Y10250000D01*
X27109203Y10253896D01*
X27109716Y10257186D01*
X27109716Y10258129D01*
X27109863Y10258129D01*
X27119965Y10322931D01*
X27144457Y10357765D01*
X27583820Y10797127D01*
X27645142Y10830611D01*
X27714834Y10825627D01*
X27770767Y10783755D01*
X27795184Y10718291D01*
X27795500Y10709445D01*
X27795500Y10224452D01*
X27775815Y10157413D01*
X27723011Y10111658D01*
X27687687Y10101513D01*
X27592194Y10088940D01*
X27592190Y10088939D01*
X27445144Y10028032D01*
X27318863Y9931132D01*
X27247637Y9838309D01*
X27218529Y9817055D01*
X27216395Y9791492D01*
X27215299Y9788754D01*
X27176665Y9695481D01*
X27161060Y9657806D01*
X27140284Y9500000D01*
X27159089Y9357162D01*
X27161060Y9342195D01*
X27161061Y9342191D01*
X27221968Y9195145D01*
X27221969Y9195143D01*
X27221970Y9195142D01*
X27318866Y9068866D01*
X27445142Y8971970D01*
X27592194Y8911060D01*
X27720484Y8894170D01*
X27749999Y8890284D01*
X27750000Y8890284D01*
X27750001Y8890284D01*
X27779516Y8894170D01*
X27907806Y8911060D01*
X28054858Y8971970D01*
X28181134Y9068866D01*
X28278030Y9195142D01*
X28279395Y9198440D01*
X28281293Y9200794D01*
X28282094Y9202181D01*
X28282310Y9202057D01*
X28323234Y9252842D01*
X28389527Y9274909D01*
X28457227Y9257632D01*
X28469440Y9249366D01*
X28485577Y9236983D01*
X28505140Y9221971D01*
X28505141Y9221971D01*
X28505142Y9221970D01*
X28652194Y9161060D01*
X28753420Y9147734D01*
X28817315Y9119468D01*
X28855786Y9061143D01*
X28856617Y8991279D01*
X28823353Y8938140D01*
X28824612Y8936881D01*
X28818870Y8931140D01*
X28721968Y8804856D01*
X28661061Y8657810D01*
X28661060Y8657806D01*
X28640284Y8500000D01*
X28660697Y8344948D01*
X28661060Y8342195D01*
X28661061Y8342191D01*
X28721968Y8195145D01*
X28721969Y8195143D01*
X28721970Y8195142D01*
X28818866Y8068866D01*
X28945142Y7971970D01*
X29092194Y7911060D01*
X29231640Y7892702D01*
X29249999Y7890284D01*
X29250000Y7890284D01*
X29250001Y7890284D01*
X29266446Y7892450D01*
X29407806Y7911060D01*
X29554858Y7971970D01*
X29681134Y8068866D01*
X29778030Y8195142D01*
X29838940Y8342194D01*
X29859716Y8500000D01*
X29839856Y8650846D01*
X29843021Y8699120D01*
X29848487Y8719516D01*
X29844739Y8762345D01*
X29844504Y8767748D01*
X29844504Y9783050D01*
X29864189Y9850089D01*
X29916993Y9895844D01*
X29984688Y9905989D01*
X30012096Y9902380D01*
X30169902Y9923156D01*
X30316954Y9984066D01*
X30443230Y10080962D01*
X30540126Y10207238D01*
X30601036Y10354290D01*
X30621812Y10512096D01*
X30601036Y10669902D01*
X30545136Y10804858D01*
X30540127Y10816952D01*
X30540126Y10816953D01*
X30540126Y10816954D01*
X30443230Y10943230D01*
X30316954Y11040126D01*
X30316953Y11040127D01*
X30316951Y11040128D01*
X30171048Y11100562D01*
X30116644Y11144403D01*
X30094579Y11210697D01*
X30094500Y11215123D01*
X30094500Y16828079D01*
X30114185Y16895118D01*
X30166989Y16940873D01*
X30236147Y16950817D01*
X30265951Y16942641D01*
X30342194Y16911060D01*
X30471904Y16893983D01*
X30499999Y16890284D01*
X30500000Y16890284D01*
X30500001Y16890284D01*
X30516446Y16892450D01*
X30657806Y16911060D01*
X30804858Y16971970D01*
X30931134Y17068866D01*
X30933123Y17071458D01*
X30935361Y17073093D01*
X30936881Y17074612D01*
X30937117Y17074376D01*
X30989551Y17112662D01*
X31059297Y17116817D01*
X31120217Y17082606D01*
X31152971Y17020889D01*
X31155500Y16995973D01*
X31155500Y15808762D01*
X31135815Y15741723D01*
X31106988Y15710387D01*
X31068866Y15681135D01*
X30971970Y15554860D01*
X30971969Y15554857D01*
X30911061Y15407810D01*
X30911060Y15407806D01*
X30890284Y15250000D01*
X30906968Y15123272D01*
X30911060Y15092195D01*
X30911061Y15092191D01*
X30971968Y14945145D01*
X30971969Y14945143D01*
X30971970Y14945142D01*
X31068866Y14818866D01*
X31195142Y14721970D01*
X31342194Y14661060D01*
X31481640Y14642702D01*
X31499999Y14640284D01*
X31500000Y14640284D01*
X31500001Y14640284D01*
X31516446Y14642450D01*
X31657806Y14661060D01*
X31804858Y14721970D01*
X31931134Y14818866D01*
X31933123Y14821458D01*
X31935361Y14823093D01*
X31936881Y14824612D01*
X31937117Y14824376D01*
X31989551Y14862662D01*
X32059297Y14866817D01*
X32120217Y14832606D01*
X32152971Y14770889D01*
X32155500Y14745973D01*
X32155500Y11058762D01*
X32135815Y10991723D01*
X32106988Y10960387D01*
X32068866Y10931135D01*
X31971970Y10804860D01*
X31971969Y10804857D01*
X31911061Y10657810D01*
X31911060Y10657806D01*
X31891877Y10512096D01*
X31890284Y10500000D01*
X31909467Y10354290D01*
X31911060Y10342195D01*
X31911061Y10342191D01*
X31971968Y10195145D01*
X31971969Y10195143D01*
X31971970Y10195142D01*
X32068866Y10068866D01*
X32195142Y9971970D01*
X32195143Y9971970D01*
X32195144Y9971969D01*
X32227638Y9958510D01*
X32342194Y9911060D01*
X32481640Y9892702D01*
X32499999Y9890284D01*
X32500000Y9890284D01*
X32500001Y9890284D01*
X32516446Y9892450D01*
X32657806Y9911060D01*
X32784050Y9963352D01*
X32853517Y9970820D01*
X32915996Y9939545D01*
X32951648Y9879456D01*
X32955500Y9848790D01*
X32955500Y8402708D01*
X32935815Y8335669D01*
X32883011Y8289914D01*
X32859832Y8283255D01*
X32860044Y8282465D01*
X32852190Y8280361D01*
X32705144Y8219454D01*
X32578866Y8122556D01*
X32481968Y7996278D01*
X32421061Y7849232D01*
X32421060Y7849228D01*
X32404763Y7725439D01*
X32400284Y7691422D01*
X32416803Y7565947D01*
X32421060Y7533617D01*
X32421061Y7533613D01*
X32481968Y7386567D01*
X32481969Y7386565D01*
X32481970Y7386564D01*
X32578866Y7260288D01*
X32705142Y7163392D01*
X32705143Y7163392D01*
X32705144Y7163391D01*
X32754159Y7143089D01*
X32852194Y7102482D01*
X32981904Y7085405D01*
X33009999Y7081706D01*
X33010000Y7081706D01*
X33010001Y7081706D01*
X33026446Y7083872D01*
X33167806Y7102482D01*
X33184047Y7109210D01*
X33253515Y7116679D01*
X33315994Y7085405D01*
X33351648Y7025317D01*
X33355500Y6994649D01*
X33355500Y5427306D01*
X33335815Y5360267D01*
X33283011Y5314512D01*
X33278952Y5312745D01*
X33195144Y5278032D01*
X33068866Y5181134D01*
X32971968Y5054856D01*
X32911061Y4907810D01*
X32911060Y4907807D01*
X32911060Y4907806D01*
X32890284Y4750000D01*
X32910460Y4596748D01*
X32911060Y4592195D01*
X32911061Y4592191D01*
X32971968Y4445145D01*
X32971969Y4445143D01*
X32971970Y4445142D01*
X33068866Y4318866D01*
X33195142Y4221970D01*
X33342194Y4161060D01*
X33481640Y4142702D01*
X33499999Y4140284D01*
X33500000Y4140284D01*
X33500001Y4140284D01*
X33516446Y4142450D01*
X33657806Y4161060D01*
X33804858Y4221970D01*
X33931134Y4318866D01*
X34028030Y4445142D01*
X34088940Y4592194D01*
X34109716Y4750000D01*
X34088940Y4907806D01*
X34039188Y5027919D01*
X34031633Y5096893D01*
X34036190Y5122741D01*
X34037344Y5127944D01*
X34048483Y5169512D01*
X34044735Y5212345D01*
X34044500Y5217748D01*
X34044500Y7155480D01*
X35365618Y7155480D01*
X35396488Y6980404D01*
X35466904Y6817161D01*
X35524349Y6740000D01*
X35573067Y6674561D01*
X35709254Y6560286D01*
X35773479Y6528031D01*
X35868118Y6480501D01*
X35868119Y6480501D01*
X35868123Y6480499D01*
X36041110Y6439500D01*
X36041113Y6439500D01*
X36174285Y6439500D01*
X36174292Y6439500D01*
X36306577Y6454962D01*
X36473635Y6515766D01*
X36622168Y6613457D01*
X36744167Y6742769D01*
X36833057Y6896731D01*
X36884045Y7067042D01*
X36894382Y7244520D01*
X36863511Y7419599D01*
X36793096Y7582838D01*
X36729049Y7668867D01*
X36717649Y7684181D01*
X36686933Y7725439D01*
X36677488Y7733364D01*
X36550746Y7839714D01*
X36550744Y7839715D01*
X36391881Y7919500D01*
X36390472Y7919834D01*
X36218890Y7960500D01*
X36085708Y7960500D01*
X35969958Y7946971D01*
X35953422Y7945038D01*
X35953419Y7945037D01*
X35786367Y7884236D01*
X35687343Y7819107D01*
X35637832Y7786543D01*
X35637831Y7786543D01*
X35637831Y7786542D01*
X35515833Y7657233D01*
X35426944Y7503272D01*
X35375955Y7332959D01*
X35375954Y7332954D01*
X35365618Y7155481D01*
X35365618Y7155480D01*
X34044500Y7155480D01*
X34044500Y23075041D01*
X34050642Y23095960D01*
X34047277Y23103102D01*
X34288929Y23103102D01*
X34291439Y23091227D01*
X34311060Y22942195D01*
X34311061Y22942191D01*
X34371968Y22795145D01*
X34371969Y22795143D01*
X34371970Y22795142D01*
X34468866Y22668866D01*
X34595142Y22571970D01*
X34595143Y22571970D01*
X34595144Y22571969D01*
X34616769Y22563012D01*
X34742194Y22511060D01*
X34797687Y22503755D01*
X34861581Y22475489D01*
X34900053Y22417165D01*
X34905500Y22380816D01*
X34905500Y18958262D01*
X34885815Y18891223D01*
X34856988Y18859887D01*
X34818866Y18830635D01*
X34721970Y18704360D01*
X34721969Y18704357D01*
X34661061Y18557310D01*
X34661060Y18557306D01*
X34640284Y18399501D01*
X34640284Y18399500D01*
X34661060Y18241695D01*
X34661061Y18241691D01*
X34721968Y18094645D01*
X34721969Y18094643D01*
X34721970Y18094642D01*
X34818866Y17968366D01*
X34945142Y17871470D01*
X35092194Y17810560D01*
X35250000Y17789784D01*
X35283720Y17794224D01*
X35352753Y17783460D01*
X35405009Y17737081D01*
X35423896Y17669812D01*
X35418696Y17635721D01*
X35375955Y17492960D01*
X35375954Y17492954D01*
X35365618Y17315481D01*
X35365618Y17315480D01*
X35396488Y17140404D01*
X35466904Y16977161D01*
X35546485Y16870266D01*
X35573067Y16834561D01*
X35709254Y16720286D01*
X35868123Y16640499D01*
X35883927Y16636754D01*
X35944619Y16602142D01*
X35976966Y16540211D01*
X35970694Y16470623D01*
X35969896Y16468649D01*
X35965407Y16457811D01*
X35965406Y16457810D01*
X35954903Y16378030D01*
X35944630Y16299999D01*
X35963350Y16157806D01*
X35965406Y16142194D01*
X35965407Y16142190D01*
X36026314Y15995144D01*
X36123214Y15868863D01*
X36209210Y15802875D01*
X36250412Y15746447D01*
X36254567Y15676701D01*
X36220354Y15615781D01*
X36158637Y15583029D01*
X36133723Y15580500D01*
X36085708Y15580500D01*
X35969958Y15566971D01*
X35953422Y15565038D01*
X35953419Y15565037D01*
X35786367Y15504236D01*
X35718675Y15459714D01*
X35637832Y15406543D01*
X35637831Y15406543D01*
X35637831Y15406542D01*
X35515833Y15277233D01*
X35426944Y15123272D01*
X35375955Y14952959D01*
X35375954Y14952954D01*
X35365618Y14775481D01*
X35365618Y14775480D01*
X35396488Y14600404D01*
X35466904Y14437161D01*
X35522290Y14362766D01*
X35573067Y14294561D01*
X35709254Y14180286D01*
X35787990Y14140743D01*
X35868118Y14100501D01*
X35868119Y14100501D01*
X35868123Y14100499D01*
X36041110Y14059500D01*
X36041113Y14059500D01*
X36174285Y14059500D01*
X36174292Y14059500D01*
X36306577Y14074962D01*
X36473635Y14135766D01*
X36622168Y14233457D01*
X36744167Y14362769D01*
X36784113Y14431959D01*
X36834679Y14480173D01*
X36903286Y14493397D01*
X36968151Y14467429D01*
X37008680Y14410515D01*
X37015500Y14369958D01*
X37015500Y12738309D01*
X36995815Y12671270D01*
X36943011Y12625515D01*
X36873853Y12615571D01*
X36810297Y12644596D01*
X36792037Y12664261D01*
X36686932Y12805440D01*
X36550746Y12919714D01*
X36550744Y12919715D01*
X36391881Y12999500D01*
X36391877Y12999501D01*
X36218890Y13040500D01*
X36085708Y13040500D01*
X35969958Y13026971D01*
X35953422Y13025038D01*
X35953419Y13025037D01*
X35786367Y12964236D01*
X35718675Y12919714D01*
X35637832Y12866543D01*
X35637831Y12866543D01*
X35637831Y12866542D01*
X35515833Y12737233D01*
X35426944Y12583272D01*
X35375955Y12412959D01*
X35375954Y12412954D01*
X35365618Y12235481D01*
X35365618Y12235480D01*
X35396488Y12060404D01*
X35466904Y11897161D01*
X35522290Y11822766D01*
X35573067Y11754561D01*
X35709254Y11640286D01*
X35787990Y11600743D01*
X35868118Y11560501D01*
X35868119Y11560501D01*
X35868123Y11560499D01*
X36041110Y11519500D01*
X36041113Y11519500D01*
X36174285Y11519500D01*
X36174292Y11519500D01*
X36306577Y11534962D01*
X36473635Y11595766D01*
X36622168Y11693457D01*
X36744167Y11822769D01*
X36784113Y11891959D01*
X36834679Y11940173D01*
X36903286Y11953397D01*
X36968151Y11927429D01*
X37008680Y11870515D01*
X37015500Y11829958D01*
X37015500Y10198309D01*
X36995815Y10131270D01*
X36943011Y10085515D01*
X36873853Y10075571D01*
X36810297Y10104596D01*
X36792037Y10124261D01*
X36717447Y10224452D01*
X36686933Y10265439D01*
X36665499Y10283424D01*
X36550746Y10379714D01*
X36550744Y10379715D01*
X36391881Y10459500D01*
X36391877Y10459501D01*
X36218890Y10500500D01*
X36085708Y10500500D01*
X35969958Y10486971D01*
X35953422Y10485038D01*
X35953419Y10485037D01*
X35786367Y10424236D01*
X35718675Y10379714D01*
X35637832Y10326543D01*
X35637831Y10326543D01*
X35637831Y10326542D01*
X35515833Y10197233D01*
X35426944Y10043272D01*
X35375955Y9872959D01*
X35375954Y9872954D01*
X35365618Y9695481D01*
X35365618Y9695480D01*
X35395727Y9524719D01*
X35396489Y9520401D01*
X35423544Y9457680D01*
X35466904Y9357161D01*
X35544331Y9253160D01*
X35573067Y9214561D01*
X35709254Y9100286D01*
X35787194Y9061143D01*
X35868118Y9020501D01*
X35868119Y9020501D01*
X35868123Y9020499D01*
X36041110Y8979500D01*
X36041113Y8979500D01*
X36174285Y8979500D01*
X36174292Y8979500D01*
X36306577Y8994962D01*
X36473635Y9055766D01*
X36622168Y9153457D01*
X36744167Y9282769D01*
X36784113Y9351959D01*
X36834679Y9400173D01*
X36903286Y9413397D01*
X36968151Y9387429D01*
X37008680Y9330515D01*
X37015500Y9289958D01*
X37015500Y8503680D01*
X36995815Y8436641D01*
X36989876Y8428194D01*
X36971970Y8404859D01*
X36971969Y8404857D01*
X36911061Y8257810D01*
X36911060Y8257806D01*
X36899503Y8170020D01*
X36890284Y8100000D01*
X36910671Y7945145D01*
X36911060Y7942195D01*
X36911061Y7942191D01*
X36971968Y7795145D01*
X36971969Y7795143D01*
X36971970Y7795142D01*
X37068866Y7668866D01*
X37195142Y7571970D01*
X37342194Y7511060D01*
X37481640Y7492702D01*
X37499999Y7490284D01*
X37500000Y7490284D01*
X37500001Y7490284D01*
X37516446Y7492450D01*
X37657806Y7511060D01*
X37772285Y7558479D01*
X37841753Y7565947D01*
X37904232Y7534672D01*
X37939884Y7474583D01*
X37938527Y7408354D01*
X37915956Y7332962D01*
X37915954Y7332954D01*
X37905618Y7155481D01*
X37905618Y7155480D01*
X37936488Y6980404D01*
X38006904Y6817161D01*
X38064349Y6740000D01*
X38113067Y6674561D01*
X38249254Y6560286D01*
X38313479Y6528031D01*
X38408118Y6480501D01*
X38408119Y6480501D01*
X38408123Y6480499D01*
X38581110Y6439500D01*
X38581113Y6439500D01*
X38714285Y6439500D01*
X38714292Y6439500D01*
X38846577Y6454962D01*
X39013635Y6515766D01*
X39162168Y6613457D01*
X39284167Y6742769D01*
X39373057Y6896731D01*
X39424045Y7067042D01*
X39434382Y7244520D01*
X39403511Y7419599D01*
X39333096Y7582838D01*
X39269049Y7668867D01*
X39257649Y7684181D01*
X39226933Y7725439D01*
X39217488Y7733364D01*
X39090746Y7839714D01*
X39090744Y7839715D01*
X38931881Y7919500D01*
X38930472Y7919834D01*
X38758890Y7960500D01*
X38625708Y7960500D01*
X38509958Y7946971D01*
X38493422Y7945038D01*
X38493419Y7945037D01*
X38326366Y7884235D01*
X38326365Y7884235D01*
X38284533Y7856722D01*
X38217705Y7836331D01*
X38150461Y7855307D01*
X38104152Y7907625D01*
X38093457Y7976508D01*
X38109716Y8100000D01*
X38088940Y8257806D01*
X38028030Y8404858D01*
X37931134Y8531134D01*
X37804858Y8628030D01*
X37804855Y8628031D01*
X37804853Y8628033D01*
X37781045Y8637895D01*
X37726642Y8681737D01*
X37704579Y8748032D01*
X37704500Y8752455D01*
X37704500Y9457680D01*
X37724185Y9524719D01*
X37776989Y9570474D01*
X37846147Y9580418D01*
X37909703Y9551393D01*
X37942357Y9506796D01*
X37972581Y9436731D01*
X38006904Y9357161D01*
X38084331Y9253160D01*
X38113067Y9214561D01*
X38249254Y9100286D01*
X38327194Y9061143D01*
X38408118Y9020501D01*
X38408119Y9020501D01*
X38408123Y9020499D01*
X38581110Y8979500D01*
X38581113Y8979500D01*
X38714285Y8979500D01*
X38714292Y8979500D01*
X38846577Y8994962D01*
X39013635Y9055766D01*
X39162168Y9153457D01*
X39284167Y9282769D01*
X39373057Y9436731D01*
X39424045Y9607042D01*
X39434382Y9784520D01*
X39403511Y9959599D01*
X39333096Y10122838D01*
X39279267Y10195142D01*
X39257447Y10224452D01*
X39226933Y10265439D01*
X39205499Y10283424D01*
X39090746Y10379714D01*
X39090744Y10379715D01*
X38931881Y10459500D01*
X38931877Y10459501D01*
X38758890Y10500500D01*
X38625708Y10500500D01*
X38509958Y10486971D01*
X38493422Y10485038D01*
X38493419Y10485037D01*
X38326367Y10424236D01*
X38258675Y10379714D01*
X38177832Y10326543D01*
X38177831Y10326543D01*
X38177831Y10326542D01*
X38055833Y10197233D01*
X37981722Y10068867D01*
X37966943Y10043269D01*
X37947289Y9977624D01*
X37909206Y9919048D01*
X37845497Y9890359D01*
X37776392Y9900669D01*
X37723831Y9946703D01*
X37704500Y10013189D01*
X37704500Y11997680D01*
X37724185Y12064719D01*
X37776989Y12110474D01*
X37846147Y12120418D01*
X37909703Y12091393D01*
X37942357Y12046796D01*
X37972581Y11976731D01*
X38006904Y11897161D01*
X38062290Y11822766D01*
X38113067Y11754561D01*
X38249254Y11640286D01*
X38327990Y11600743D01*
X38408118Y11560501D01*
X38408119Y11560501D01*
X38408123Y11560499D01*
X38581110Y11519500D01*
X38581113Y11519500D01*
X38714285Y11519500D01*
X38714292Y11519500D01*
X38846577Y11534962D01*
X39013635Y11595766D01*
X39162168Y11693457D01*
X39284167Y11822769D01*
X39373057Y11976731D01*
X39424045Y12147042D01*
X39434382Y12324520D01*
X39403511Y12499599D01*
X39333096Y12662838D01*
X39291996Y12718044D01*
X39226932Y12805440D01*
X39090746Y12919714D01*
X39090744Y12919715D01*
X38931881Y12999500D01*
X38931877Y12999501D01*
X38758890Y13040500D01*
X38625708Y13040500D01*
X38509958Y13026971D01*
X38493422Y13025038D01*
X38493419Y13025037D01*
X38326367Y12964236D01*
X38258675Y12919714D01*
X38177832Y12866543D01*
X38177831Y12866543D01*
X38177831Y12866542D01*
X38055833Y12737233D01*
X37971023Y12590336D01*
X37966943Y12583269D01*
X37947289Y12517624D01*
X37909206Y12459048D01*
X37845497Y12430359D01*
X37776392Y12440669D01*
X37723831Y12486703D01*
X37704500Y12553189D01*
X37704500Y14537680D01*
X37724185Y14604719D01*
X37776989Y14650474D01*
X37846147Y14660418D01*
X37909703Y14631393D01*
X37942357Y14586796D01*
X37972581Y14516731D01*
X38006904Y14437161D01*
X38062290Y14362766D01*
X38113067Y14294561D01*
X38249254Y14180286D01*
X38327990Y14140743D01*
X38408118Y14100501D01*
X38408119Y14100501D01*
X38408123Y14100499D01*
X38581110Y14059500D01*
X38581113Y14059500D01*
X38714285Y14059500D01*
X38714292Y14059500D01*
X38772226Y14066272D01*
X38841097Y14054504D01*
X38892673Y14007370D01*
X38910579Y13939833D01*
X38909561Y13926926D01*
X38890284Y13780503D01*
X38890284Y13780500D01*
X38894299Y13750000D01*
X38911060Y13622695D01*
X38911061Y13622691D01*
X38971968Y13475645D01*
X38971969Y13475643D01*
X38971970Y13475642D01*
X39068866Y13349366D01*
X39195142Y13252470D01*
X39342194Y13191560D01*
X39481640Y13173202D01*
X39499999Y13170784D01*
X39500000Y13170784D01*
X39500001Y13170784D01*
X39516446Y13172950D01*
X39657806Y13191560D01*
X39804858Y13252470D01*
X39931134Y13349366D01*
X40028030Y13475642D01*
X40088940Y13622694D01*
X40109716Y13780500D01*
X40088940Y13938306D01*
X40028030Y14085358D01*
X40028029Y14085359D01*
X40028029Y14085360D01*
X39931133Y14211635D01*
X39913012Y14225540D01*
X39871810Y14281969D01*
X39864500Y14323915D01*
X39864500Y28462254D01*
X39864736Y28467660D01*
X39865040Y28471132D01*
X39868483Y28510488D01*
X39863068Y28530698D01*
X39857353Y28552027D01*
X39856185Y28557293D01*
X39848718Y28599643D01*
X39848717Y28599644D01*
X39846995Y28609416D01*
X39846172Y28647128D01*
X39859716Y28750000D01*
X39838940Y28907806D01*
X39795110Y29013623D01*
X39778031Y29054856D01*
X39778030Y29054857D01*
X39778030Y29054858D01*
X39681134Y29181134D01*
X39554858Y29278030D01*
X39554857Y29278031D01*
X39554855Y29278032D01*
X39407809Y29338939D01*
X39407807Y29338940D01*
X39407806Y29338940D01*
X39316834Y29350917D01*
X39252938Y29379184D01*
X39214467Y29437509D01*
X39213636Y29507373D01*
X39242827Y29558951D01*
X39275538Y29593623D01*
X39284167Y29602769D01*
X39373057Y29756731D01*
X39424045Y29927042D01*
X39434382Y30104520D01*
X39403511Y30279599D01*
X39333096Y30442838D01*
X39320138Y30460243D01*
X39252372Y30551268D01*
X39226933Y30585439D01*
X39212827Y30597275D01*
X39090746Y30699714D01*
X39090744Y30699715D01*
X38931881Y30779500D01*
X38920299Y30782245D01*
X38758890Y30820500D01*
X38625708Y30820500D01*
X38509958Y30806971D01*
X38493422Y30805038D01*
X38493419Y30805037D01*
X38326367Y30744236D01*
X38241342Y30688314D01*
X38177832Y30646543D01*
X38177831Y30646543D01*
X38177831Y30646542D01*
X38055833Y30517233D01*
X37966944Y30363272D01*
X37915955Y30192959D01*
X37915954Y30192954D01*
X37905618Y30015481D01*
X37905618Y30015480D01*
X37936172Y29842194D01*
X37936489Y29840401D01*
X37953122Y29801841D01*
X38006904Y29677161D01*
X38096135Y29557304D01*
X38113067Y29534561D01*
X38249254Y29420286D01*
X38327990Y29380743D01*
X38408118Y29340501D01*
X38408119Y29340501D01*
X38408123Y29340499D01*
X38581110Y29299500D01*
X38581113Y29299500D01*
X38658244Y29299500D01*
X38725283Y29279815D01*
X38771038Y29227011D01*
X38780982Y29157853D01*
X38756619Y29100013D01*
X38721970Y29054860D01*
X38721969Y29054857D01*
X38661061Y28907810D01*
X38661060Y28907806D01*
X38640284Y28750001D01*
X38640284Y28750000D01*
X38661059Y28592197D01*
X38661059Y28592195D01*
X38661060Y28592194D01*
X38696161Y28507451D01*
X38719791Y28450403D01*
X38727259Y28380933D01*
X38695983Y28318454D01*
X38635894Y28282802D01*
X38619625Y28279790D01*
X38493429Y28265040D01*
X38493419Y28265037D01*
X38326367Y28204236D01*
X38258675Y28159714D01*
X38177832Y28106543D01*
X38177831Y28106543D01*
X38177831Y28106542D01*
X38055833Y27977233D01*
X37966945Y27823272D01*
X37966943Y27823269D01*
X37947289Y27757624D01*
X37909206Y27699048D01*
X37845497Y27670359D01*
X37776392Y27680669D01*
X37723831Y27726703D01*
X37704500Y27793189D01*
X37704500Y28727209D01*
X37704736Y28732616D01*
X37708482Y28775431D01*
X37697355Y28816958D01*
X37696184Y28822242D01*
X37694122Y28833936D01*
X37688718Y28864585D01*
X37688714Y28864592D01*
X37687750Y28867241D01*
X37678224Y28890239D01*
X37677040Y28892777D01*
X37677039Y28892781D01*
X37652375Y28928004D01*
X37649467Y28932569D01*
X37632573Y28961830D01*
X37627973Y28969798D01*
X37627972Y28969799D01*
X37620999Y28978110D01*
X37623251Y28980000D01*
X37593946Y29024048D01*
X37589415Y29077052D01*
X37591221Y29090768D01*
X37595022Y29119636D01*
X37574246Y29277442D01*
X37523635Y29399630D01*
X37513337Y29424492D01*
X37513336Y29424493D01*
X37513336Y29424494D01*
X37416440Y29550770D01*
X37290164Y29647666D01*
X37290163Y29647667D01*
X37290161Y29647668D01*
X37143115Y29708575D01*
X37143113Y29708576D01*
X37143112Y29708576D01*
X37056819Y29719937D01*
X36977248Y29730413D01*
X36977641Y29733399D01*
X36924382Y29749037D01*
X36878627Y29801841D01*
X36868683Y29870999D01*
X36872631Y29888917D01*
X36878287Y29907810D01*
X36884045Y29927042D01*
X36894382Y30104520D01*
X36869653Y30244766D01*
X36877397Y30314205D01*
X36921454Y30368434D01*
X36987835Y30390236D01*
X36991872Y30390028D01*
X36991872Y30390284D01*
X37000001Y30390284D01*
X37016446Y30392450D01*
X37157806Y30411060D01*
X37304858Y30471970D01*
X37431134Y30568866D01*
X37528030Y30695142D01*
X37588940Y30842194D01*
X37609716Y31000000D01*
X37589856Y31150849D01*
X37593021Y31199130D01*
X37598482Y31219511D01*
X37594736Y31262329D01*
X37594500Y31267735D01*
X37594500Y32555480D01*
X37905618Y32555480D01*
X37936488Y32380404D01*
X38006904Y32217161D01*
X38109903Y32078811D01*
X38113067Y32074561D01*
X38249254Y31960286D01*
X38326459Y31921512D01*
X38408118Y31880501D01*
X38408119Y31880501D01*
X38408123Y31880499D01*
X38581110Y31839500D01*
X38581113Y31839500D01*
X38714285Y31839500D01*
X38714292Y31839500D01*
X38846577Y31854962D01*
X39013635Y31915766D01*
X39162168Y32013457D01*
X39284167Y32142769D01*
X39373057Y32296731D01*
X39424045Y32467042D01*
X39434382Y32644520D01*
X39403511Y32819599D01*
X39333096Y32982838D01*
X39312953Y33009894D01*
X39230384Y33120803D01*
X39226933Y33125439D01*
X39195499Y33151815D01*
X39090746Y33239714D01*
X39090744Y33239715D01*
X38931881Y33319500D01*
X38920299Y33322245D01*
X38758890Y33360500D01*
X38625708Y33360500D01*
X38509958Y33346971D01*
X38493422Y33345038D01*
X38493419Y33345037D01*
X38326367Y33284236D01*
X38258675Y33239714D01*
X38177832Y33186543D01*
X38177831Y33186543D01*
X38177831Y33186542D01*
X38055833Y33057233D01*
X37966944Y32903272D01*
X37966943Y32903270D01*
X37966943Y32903269D01*
X37962955Y32889947D01*
X37915955Y32732959D01*
X37915954Y32732954D01*
X37905618Y32555481D01*
X37905618Y32555480D01*
X37594500Y32555480D01*
X37594500Y35095480D01*
X37905618Y35095480D01*
X37935603Y34925422D01*
X37936489Y34920401D01*
X37953935Y34879957D01*
X38006904Y34757161D01*
X38094391Y34639647D01*
X38113067Y34614561D01*
X38249254Y34500286D01*
X38286447Y34481607D01*
X38408118Y34420501D01*
X38408119Y34420501D01*
X38408123Y34420499D01*
X38581110Y34379500D01*
X38581113Y34379500D01*
X38714285Y34379500D01*
X38714292Y34379500D01*
X38846577Y34394962D01*
X39013635Y34455766D01*
X39162168Y34553457D01*
X39284167Y34682769D01*
X39373057Y34836731D01*
X39424045Y35007042D01*
X39434382Y35184520D01*
X39403511Y35359599D01*
X39333096Y35522838D01*
X39329229Y35528032D01*
X39226932Y35665440D01*
X39090746Y35779714D01*
X39090744Y35779715D01*
X38931881Y35859500D01*
X38920299Y35862245D01*
X38758890Y35900500D01*
X38625708Y35900500D01*
X38509958Y35886971D01*
X38493422Y35885038D01*
X38493419Y35885037D01*
X38326367Y35824236D01*
X38258675Y35779714D01*
X38177832Y35726543D01*
X38177831Y35726543D01*
X38177831Y35726542D01*
X38055833Y35597233D01*
X37966944Y35443272D01*
X37915955Y35272959D01*
X37915954Y35272954D01*
X37905618Y35095481D01*
X37905618Y35095480D01*
X37594500Y35095480D01*
X37594500Y37635480D01*
X37905618Y37635480D01*
X37936488Y37460404D01*
X38006904Y37297161D01*
X38087476Y37188935D01*
X38113067Y37154561D01*
X38249254Y37040286D01*
X38310801Y37009376D01*
X38408118Y36960501D01*
X38408119Y36960501D01*
X38408123Y36960499D01*
X38581110Y36919500D01*
X38581113Y36919500D01*
X38714285Y36919500D01*
X38714292Y36919500D01*
X38846577Y36934962D01*
X39013635Y36995766D01*
X39162168Y37093457D01*
X39284167Y37222769D01*
X39373057Y37376731D01*
X39424045Y37547042D01*
X39434382Y37724520D01*
X39403511Y37899599D01*
X39333096Y38062838D01*
X39331521Y38064953D01*
X39227367Y38204856D01*
X39226933Y38205439D01*
X39195499Y38231815D01*
X39090746Y38319714D01*
X39090744Y38319715D01*
X38931881Y38399500D01*
X38920299Y38402245D01*
X38758890Y38440500D01*
X38625708Y38440500D01*
X38509958Y38426971D01*
X38493422Y38425038D01*
X38493419Y38425037D01*
X38326367Y38364236D01*
X38258675Y38319714D01*
X38177832Y38266543D01*
X38177831Y38266543D01*
X38177831Y38266542D01*
X38055833Y38137233D01*
X37966944Y37983272D01*
X37915955Y37812959D01*
X37915954Y37812954D01*
X37905618Y37635481D01*
X37905618Y37635480D01*
X37594500Y37635480D01*
X37594500Y38191240D01*
X37614185Y38258279D01*
X37643011Y38289614D01*
X37681134Y38318866D01*
X37778030Y38445142D01*
X37838940Y38592194D01*
X37859716Y38750000D01*
X37838940Y38907806D01*
X37778030Y39054858D01*
X37681134Y39181134D01*
X37554858Y39278030D01*
X37554857Y39278031D01*
X37554855Y39278032D01*
X37407809Y39338939D01*
X37407807Y39338940D01*
X37407806Y39338940D01*
X37328903Y39349328D01*
X37250001Y39359716D01*
X37249999Y39359716D01*
X37092194Y39338940D01*
X37092190Y39338939D01*
X36945144Y39278032D01*
X36818866Y39181134D01*
X36721968Y39054856D01*
X36661061Y38907810D01*
X36661060Y38907806D01*
X36640284Y38750001D01*
X36640284Y38750000D01*
X36661060Y38592195D01*
X36661061Y38592191D01*
X36705063Y38485960D01*
X36712532Y38416491D01*
X36681257Y38354012D01*
X36621168Y38318360D01*
X36551342Y38320854D01*
X36534851Y38327697D01*
X36391878Y38399501D01*
X36342747Y38411145D01*
X36218890Y38440500D01*
X36085708Y38440500D01*
X35969958Y38426971D01*
X35953422Y38425038D01*
X35953419Y38425037D01*
X35786367Y38364236D01*
X35718675Y38319714D01*
X35637832Y38266543D01*
X35637831Y38266543D01*
X35637831Y38266542D01*
X35515833Y38137233D01*
X35426944Y37983272D01*
X35375955Y37812959D01*
X35375954Y37812954D01*
X35365618Y37635481D01*
X35365618Y37635480D01*
X35396488Y37460404D01*
X35466904Y37297161D01*
X35547476Y37188935D01*
X35573067Y37154561D01*
X35709254Y37040286D01*
X35770801Y37009376D01*
X35868118Y36960501D01*
X35868119Y36960501D01*
X35868123Y36960499D01*
X36041110Y36919500D01*
X36041113Y36919500D01*
X36174285Y36919500D01*
X36174292Y36919500D01*
X36306577Y36934962D01*
X36473635Y36995766D01*
X36622168Y37093457D01*
X36691306Y37166739D01*
X36751629Y37201993D01*
X36821436Y37199038D01*
X36878564Y37158811D01*
X36904874Y37094085D01*
X36905500Y37081645D01*
X36905500Y35745898D01*
X36885815Y35678859D01*
X36833011Y35633104D01*
X36763853Y35623160D01*
X36700297Y35652185D01*
X36691306Y35660803D01*
X36686937Y35665433D01*
X36686933Y35665439D01*
X36550746Y35779714D01*
X36550048Y35780065D01*
X36391881Y35859500D01*
X36380299Y35862245D01*
X36218890Y35900500D01*
X36085708Y35900500D01*
X35969958Y35886971D01*
X35953422Y35885038D01*
X35953419Y35885037D01*
X35786367Y35824236D01*
X35718675Y35779714D01*
X35637832Y35726543D01*
X35637831Y35726543D01*
X35637831Y35726542D01*
X35515833Y35597233D01*
X35426944Y35443272D01*
X35375955Y35272959D01*
X35375954Y35272954D01*
X35365618Y35095481D01*
X35365618Y35095480D01*
X35395603Y34925422D01*
X35396489Y34920401D01*
X35413935Y34879957D01*
X35466904Y34757161D01*
X35554391Y34639647D01*
X35573067Y34614561D01*
X35709254Y34500286D01*
X35746447Y34481607D01*
X35868118Y34420501D01*
X35868119Y34420501D01*
X35868123Y34420499D01*
X36041110Y34379500D01*
X36041113Y34379500D01*
X36174285Y34379500D01*
X36174292Y34379500D01*
X36306577Y34394962D01*
X36473635Y34455766D01*
X36622168Y34553457D01*
X36691306Y34626739D01*
X36751629Y34661993D01*
X36821436Y34659038D01*
X36878564Y34618811D01*
X36904874Y34554085D01*
X36905500Y34541645D01*
X36905500Y33205898D01*
X36885815Y33138859D01*
X36833011Y33093104D01*
X36763853Y33083160D01*
X36700297Y33112185D01*
X36691306Y33120803D01*
X36686937Y33125433D01*
X36686933Y33125439D01*
X36550746Y33239714D01*
X36530263Y33250001D01*
X36391881Y33319500D01*
X36380299Y33322245D01*
X36218890Y33360500D01*
X36085708Y33360500D01*
X35969958Y33346971D01*
X35953422Y33345038D01*
X35953419Y33345037D01*
X35786367Y33284236D01*
X35718675Y33239714D01*
X35637832Y33186543D01*
X35637831Y33186543D01*
X35637831Y33186542D01*
X35515833Y33057233D01*
X35426944Y32903272D01*
X35426943Y32903270D01*
X35426943Y32903269D01*
X35422955Y32889947D01*
X35375955Y32732959D01*
X35375954Y32732954D01*
X35365618Y32555481D01*
X35365618Y32555480D01*
X35396488Y32380404D01*
X35466904Y32217161D01*
X35569903Y32078811D01*
X35573067Y32074561D01*
X35709254Y31960286D01*
X35786459Y31921512D01*
X35868118Y31880501D01*
X35868119Y31880501D01*
X35868123Y31880499D01*
X36041110Y31839500D01*
X36041113Y31839500D01*
X36174285Y31839500D01*
X36174292Y31839500D01*
X36306577Y31854962D01*
X36473635Y31915766D01*
X36622168Y32013457D01*
X36691306Y32086739D01*
X36751629Y32121993D01*
X36821436Y32119038D01*
X36878564Y32078811D01*
X36904874Y32014085D01*
X36905500Y32001645D01*
X36905500Y31698017D01*
X36885815Y31630978D01*
X36833011Y31585223D01*
X36828953Y31583456D01*
X36695143Y31528031D01*
X36568866Y31431134D01*
X36471968Y31304856D01*
X36411061Y31157810D01*
X36411060Y31157806D01*
X36390284Y31000001D01*
X36390284Y30999998D01*
X36396720Y30951111D01*
X36385954Y30882076D01*
X36339574Y30829820D01*
X36272305Y30810935D01*
X36245186Y30814268D01*
X36218890Y30820500D01*
X36085708Y30820500D01*
X35969958Y30806971D01*
X35953422Y30805038D01*
X35953419Y30805037D01*
X35786367Y30744236D01*
X35701342Y30688314D01*
X35637832Y30646543D01*
X35637831Y30646543D01*
X35637831Y30646542D01*
X35515833Y30517233D01*
X35426944Y30363272D01*
X35375955Y30192959D01*
X35375954Y30192954D01*
X35365618Y30015481D01*
X35365618Y30015480D01*
X35396172Y29842194D01*
X35396489Y29840401D01*
X35413122Y29801841D01*
X35466904Y29677161D01*
X35556135Y29557304D01*
X35573067Y29534561D01*
X35709254Y29420286D01*
X35787990Y29380743D01*
X35868118Y29340501D01*
X35868119Y29340501D01*
X35868123Y29340499D01*
X36041110Y29299500D01*
X36041113Y29299500D01*
X36174285Y29299500D01*
X36174292Y29299500D01*
X36244673Y29307727D01*
X36313543Y29295960D01*
X36365119Y29248825D01*
X36383025Y29181289D01*
X36382007Y29168381D01*
X36375590Y29119639D01*
X36375590Y29119636D01*
X36396366Y28961831D01*
X36396367Y28961827D01*
X36457274Y28814781D01*
X36457275Y28814779D01*
X36457276Y28814778D01*
X36554172Y28688502D01*
X36680448Y28591606D01*
X36827500Y28530696D01*
X36907687Y28520139D01*
X36971581Y28491874D01*
X37010053Y28433550D01*
X37015500Y28397201D01*
X37015500Y27978309D01*
X36995815Y27911270D01*
X36943011Y27865515D01*
X36873853Y27855571D01*
X36810297Y27884596D01*
X36792037Y27904261D01*
X36700958Y28026600D01*
X36686933Y28045439D01*
X36684617Y28047382D01*
X36550746Y28159714D01*
X36550744Y28159715D01*
X36391881Y28239500D01*
X36366637Y28245483D01*
X36218890Y28280500D01*
X36085708Y28280500D01*
X35969958Y28266971D01*
X35953422Y28265038D01*
X35953419Y28265037D01*
X35786367Y28204236D01*
X35718675Y28159714D01*
X35637832Y28106543D01*
X35637831Y28106543D01*
X35637831Y28106542D01*
X35515833Y27977233D01*
X35426944Y27823272D01*
X35375955Y27652959D01*
X35375954Y27652954D01*
X35365618Y27475481D01*
X35365618Y27475480D01*
X35395727Y27304719D01*
X35396489Y27300401D01*
X35408753Y27271970D01*
X35466904Y27137161D01*
X35551518Y27023506D01*
X35573067Y26994561D01*
X35709254Y26880286D01*
X35737487Y26866107D01*
X35868118Y26800501D01*
X35868119Y26800501D01*
X35868123Y26800499D01*
X36041110Y26759500D01*
X36041113Y26759500D01*
X36174285Y26759500D01*
X36174292Y26759500D01*
X36306577Y26774962D01*
X36473635Y26835766D01*
X36622168Y26933457D01*
X36744167Y27062769D01*
X36784113Y27131959D01*
X36834679Y27180173D01*
X36903286Y27193397D01*
X36968151Y27167429D01*
X37008680Y27110515D01*
X37015500Y27069958D01*
X37015500Y25438309D01*
X36995815Y25371270D01*
X36943011Y25325515D01*
X36873853Y25315571D01*
X36810297Y25344596D01*
X36792037Y25364261D01*
X36728593Y25449481D01*
X36686933Y25505439D01*
X36665499Y25523424D01*
X36550746Y25619714D01*
X36550744Y25619715D01*
X36391881Y25699500D01*
X36391877Y25699501D01*
X36218890Y25740500D01*
X36085708Y25740500D01*
X35969958Y25726971D01*
X35953422Y25725038D01*
X35953419Y25725037D01*
X35786367Y25664236D01*
X35718675Y25619714D01*
X35637832Y25566543D01*
X35637831Y25566543D01*
X35637831Y25566542D01*
X35515833Y25437233D01*
X35426944Y25283272D01*
X35375955Y25112959D01*
X35375954Y25112954D01*
X35365618Y24935481D01*
X35365618Y24935480D01*
X35396488Y24760404D01*
X35466904Y24597161D01*
X35533503Y24507704D01*
X35573067Y24454561D01*
X35709254Y24340286D01*
X35757940Y24315835D01*
X35868118Y24260501D01*
X35868119Y24260501D01*
X35868123Y24260499D01*
X36041110Y24219500D01*
X36041113Y24219500D01*
X36079379Y24219500D01*
X36146418Y24199815D01*
X36192173Y24147011D01*
X36202117Y24077853D01*
X36173092Y24014297D01*
X36154870Y23997129D01*
X36074384Y23935368D01*
X36068866Y23931134D01*
X35971968Y23804856D01*
X35911061Y23657810D01*
X35911060Y23657806D01*
X35890284Y23500001D01*
X35890284Y23500000D01*
X35911060Y23342195D01*
X35911061Y23342191D01*
X35923608Y23311898D01*
X35931075Y23242428D01*
X35899799Y23179950D01*
X35851457Y23147926D01*
X35786364Y23124234D01*
X35694084Y23063541D01*
X35627257Y23043149D01*
X35560013Y23062124D01*
X35513702Y23114441D01*
X35503007Y23150957D01*
X35502418Y23155428D01*
X35488940Y23257806D01*
X35428030Y23404858D01*
X35331134Y23531134D01*
X35204858Y23628030D01*
X35204857Y23628031D01*
X35204855Y23628032D01*
X35057809Y23688939D01*
X35057807Y23688940D01*
X35057806Y23688940D01*
X34978903Y23699328D01*
X34900001Y23709716D01*
X34899999Y23709716D01*
X34742194Y23688940D01*
X34742190Y23688939D01*
X34595144Y23628032D01*
X34468866Y23531134D01*
X34371968Y23404856D01*
X34311061Y23257810D01*
X34311060Y23257806D01*
X34291439Y23108774D01*
X34288929Y23103102D01*
X34047277Y23103102D01*
X34045981Y23105854D01*
X34044500Y23124960D01*
X34044500Y31472254D01*
X34044736Y31477660D01*
X34048483Y31520488D01*
X34037351Y31562029D01*
X34036184Y31567298D01*
X34028718Y31609643D01*
X34028715Y31609648D01*
X34027759Y31612277D01*
X34018219Y31635309D01*
X34017039Y31637838D01*
X34003057Y31657806D01*
X33992375Y31673062D01*
X33989473Y31677617D01*
X33967973Y31714856D01*
X33935030Y31742499D01*
X33931046Y31746150D01*
X33388702Y32288495D01*
X33355217Y32349818D01*
X33353444Y32392362D01*
X33359716Y32440000D01*
X33356155Y32467047D01*
X33338940Y32597806D01*
X33278030Y32744858D01*
X33181134Y32871134D01*
X33054858Y32968030D01*
X33054857Y32968031D01*
X33054855Y32968032D01*
X32907809Y33028939D01*
X32907807Y33028940D01*
X32907806Y33028940D01*
X32798126Y33043380D01*
X32750001Y33049716D01*
X32749999Y33049716D01*
X32592194Y33028940D01*
X32592190Y33028939D01*
X32445144Y32968032D01*
X32318866Y32871134D01*
X32221968Y32744856D01*
X32161061Y32597810D01*
X32161060Y32597806D01*
X32140284Y32440000D01*
X32160556Y32286019D01*
X32161060Y32282195D01*
X32161061Y32282191D01*
X32221968Y32135145D01*
X32221969Y32135143D01*
X32221970Y32135142D01*
X32318866Y32008866D01*
X32445142Y31911970D01*
X32592194Y31851060D01*
X32750000Y31830284D01*
X32750001Y31830284D01*
X32797638Y31836556D01*
X32866673Y31825791D01*
X32901505Y31801298D01*
X33319181Y31383623D01*
X33352666Y31322300D01*
X33355500Y31295942D01*
X33355500Y30431059D01*
X33335815Y30364020D01*
X33283011Y30318265D01*
X33213853Y30308321D01*
X33150297Y30337346D01*
X33143819Y30343378D01*
X32638702Y30848495D01*
X32605217Y30909818D01*
X32603444Y30952362D01*
X32609716Y31000000D01*
X32600649Y31068867D01*
X32588940Y31157806D01*
X32528030Y31304858D01*
X32431134Y31431134D01*
X32304858Y31528030D01*
X32304857Y31528031D01*
X32304855Y31528032D01*
X32157809Y31588939D01*
X32157807Y31588940D01*
X32157806Y31588940D01*
X32078903Y31599328D01*
X32000001Y31609716D01*
X31999999Y31609716D01*
X31842194Y31588940D01*
X31842190Y31588939D01*
X31695144Y31528032D01*
X31568866Y31431134D01*
X31471968Y31304856D01*
X31411061Y31157810D01*
X31411060Y31157806D01*
X31390284Y31000000D01*
X31410230Y30848495D01*
X31411060Y30842195D01*
X31411061Y30842191D01*
X31471968Y30695145D01*
X31471969Y30695143D01*
X31471970Y30695142D01*
X31568866Y30568866D01*
X31634710Y30518342D01*
X31675912Y30461914D01*
X31680067Y30392168D01*
X31645854Y30331247D01*
X31584137Y30298495D01*
X31543038Y30297027D01*
X31408853Y30314693D01*
X31408850Y30314693D01*
X31251045Y30293917D01*
X31251041Y30293916D01*
X31125952Y30242103D01*
X31056483Y30234634D01*
X30994004Y30265910D01*
X30958352Y30325999D01*
X30954500Y30356664D01*
X30954500Y32165942D01*
X30974185Y32232981D01*
X30990815Y32253619D01*
X31348494Y32611299D01*
X31409817Y32644783D01*
X31452361Y32646556D01*
X31499999Y32640284D01*
X31500000Y32640284D01*
X31500001Y32640284D01*
X31516446Y32642450D01*
X31657806Y32661060D01*
X31804858Y32721970D01*
X31931134Y32818866D01*
X32028030Y32945142D01*
X32088940Y33092194D01*
X32109716Y33250000D01*
X32088940Y33407806D01*
X32046365Y33510593D01*
X32028031Y33554856D01*
X32028030Y33554857D01*
X32028030Y33554858D01*
X31931134Y33681134D01*
X31804858Y33778030D01*
X31804857Y33778031D01*
X31804855Y33778032D01*
X31657809Y33838939D01*
X31657807Y33838940D01*
X31657806Y33838940D01*
X31541685Y33854228D01*
X31500001Y33859716D01*
X31499999Y33859716D01*
X31342194Y33838940D01*
X31342190Y33838939D01*
X31195144Y33778032D01*
X31068866Y33681134D01*
X30971968Y33554856D01*
X30911061Y33407810D01*
X30911060Y33407806D01*
X30890284Y33250001D01*
X30890284Y33249998D01*
X30896555Y33202361D01*
X30885789Y33133326D01*
X30861298Y33098497D01*
X30806182Y33043380D01*
X30744859Y33009894D01*
X30675167Y33014878D01*
X30619234Y33056749D01*
X30594816Y33122213D01*
X30594500Y33131060D01*
X30594500Y33555942D01*
X30614185Y33622981D01*
X30630815Y33643619D01*
X30861062Y33873867D01*
X30865035Y33877507D01*
X30897973Y33905144D01*
X30919482Y33942401D01*
X30922359Y33946918D01*
X30947039Y33982162D01*
X30947039Y33982165D01*
X30948232Y33984721D01*
X30957754Y34007707D01*
X30958717Y34010355D01*
X30958717Y34010356D01*
X30958718Y34010357D01*
X30966188Y34052731D01*
X30967344Y34057944D01*
X30978483Y34099512D01*
X30974735Y34142341D01*
X30974500Y34147744D01*
X30974500Y40175480D01*
X35365618Y40175480D01*
X35396488Y40000404D01*
X35466904Y39837161D01*
X35534729Y39746057D01*
X35573067Y39694561D01*
X35709254Y39580286D01*
X35746447Y39561607D01*
X35868118Y39500501D01*
X35868119Y39500501D01*
X35868123Y39500499D01*
X36041110Y39459500D01*
X36041113Y39459500D01*
X36174285Y39459500D01*
X36174292Y39459500D01*
X36306577Y39474962D01*
X36473635Y39535766D01*
X36622168Y39633457D01*
X36744167Y39762769D01*
X36833057Y39916731D01*
X36884045Y40087042D01*
X36889196Y40175480D01*
X37905618Y40175480D01*
X37936488Y40000404D01*
X38006904Y39837161D01*
X38074729Y39746057D01*
X38113067Y39694561D01*
X38249254Y39580286D01*
X38286447Y39561607D01*
X38408118Y39500501D01*
X38408119Y39500501D01*
X38408123Y39500499D01*
X38581110Y39459500D01*
X38581113Y39459500D01*
X38714285Y39459500D01*
X38714292Y39459500D01*
X38846577Y39474962D01*
X39013635Y39535766D01*
X39162168Y39633457D01*
X39284167Y39762769D01*
X39373057Y39916731D01*
X39424045Y40087042D01*
X39434382Y40264520D01*
X39403511Y40439599D01*
X39333096Y40602838D01*
X39327975Y40609716D01*
X39226932Y40745440D01*
X39090746Y40859714D01*
X39090744Y40859715D01*
X38931881Y40939500D01*
X38920299Y40942245D01*
X38758890Y40980500D01*
X38625708Y40980500D01*
X38509958Y40966971D01*
X38493422Y40965038D01*
X38493419Y40965037D01*
X38326367Y40904236D01*
X38258675Y40859714D01*
X38177832Y40806543D01*
X38177831Y40806543D01*
X38177831Y40806542D01*
X38055833Y40677233D01*
X37966944Y40523272D01*
X37915955Y40352959D01*
X37915954Y40352954D01*
X37905618Y40175481D01*
X37905618Y40175480D01*
X36889196Y40175480D01*
X36894382Y40264520D01*
X36863511Y40439599D01*
X36793096Y40602838D01*
X36787975Y40609716D01*
X36686932Y40745440D01*
X36550746Y40859714D01*
X36550744Y40859715D01*
X36391881Y40939500D01*
X36380299Y40942245D01*
X36218890Y40980500D01*
X36085708Y40980500D01*
X35969958Y40966971D01*
X35953422Y40965038D01*
X35953419Y40965037D01*
X35786367Y40904236D01*
X35718675Y40859714D01*
X35637832Y40806543D01*
X35637831Y40806543D01*
X35637831Y40806542D01*
X35515833Y40677233D01*
X35426944Y40523272D01*
X35375955Y40352959D01*
X35375954Y40352954D01*
X35365618Y40175481D01*
X35365618Y40175480D01*
X30974500Y40175480D01*
X30974500Y42715480D01*
X35365618Y42715480D01*
X35396488Y42540404D01*
X35466904Y42377161D01*
X35540704Y42278032D01*
X35573067Y42234561D01*
X35709254Y42120286D01*
X35771669Y42088940D01*
X35868118Y42040501D01*
X35868119Y42040501D01*
X35868123Y42040499D01*
X36041110Y41999500D01*
X36041113Y41999500D01*
X36174285Y41999500D01*
X36174292Y41999500D01*
X36306577Y42014962D01*
X36473635Y42075766D01*
X36622168Y42173457D01*
X36744167Y42302769D01*
X36833057Y42456731D01*
X36884045Y42627042D01*
X36889196Y42715480D01*
X37905618Y42715480D01*
X37936488Y42540404D01*
X38006904Y42377161D01*
X38080704Y42278032D01*
X38113067Y42234561D01*
X38249254Y42120286D01*
X38311669Y42088940D01*
X38408118Y42040501D01*
X38408119Y42040501D01*
X38408123Y42040499D01*
X38581110Y41999500D01*
X38581113Y41999500D01*
X38714285Y41999500D01*
X38714292Y41999500D01*
X38846577Y42014962D01*
X39013635Y42075766D01*
X39162168Y42173457D01*
X39284167Y42302769D01*
X39373057Y42456731D01*
X39424045Y42627042D01*
X39434382Y42804520D01*
X39403511Y42979599D01*
X39333096Y43142838D01*
X39317169Y43164231D01*
X39226932Y43285440D01*
X39090746Y43399714D01*
X39090744Y43399715D01*
X38931881Y43479500D01*
X38920299Y43482245D01*
X38758890Y43520500D01*
X38625708Y43520500D01*
X38509958Y43506971D01*
X38493422Y43505038D01*
X38493419Y43505037D01*
X38326367Y43444236D01*
X38258675Y43399714D01*
X38177832Y43346543D01*
X38177831Y43346543D01*
X38177831Y43346542D01*
X38055833Y43217233D01*
X37966944Y43063272D01*
X37915955Y42892959D01*
X37915954Y42892954D01*
X37905618Y42715481D01*
X37905618Y42715480D01*
X36889196Y42715480D01*
X36894382Y42804520D01*
X36863511Y42979599D01*
X36793096Y43142838D01*
X36777169Y43164231D01*
X36686932Y43285440D01*
X36550746Y43399714D01*
X36550744Y43399715D01*
X36391881Y43479500D01*
X36380299Y43482245D01*
X36218890Y43520500D01*
X36085708Y43520500D01*
X35969958Y43506971D01*
X35953422Y43505038D01*
X35953419Y43505037D01*
X35786367Y43444236D01*
X35718675Y43399714D01*
X35637832Y43346543D01*
X35637831Y43346543D01*
X35637831Y43346542D01*
X35515833Y43217233D01*
X35426944Y43063272D01*
X35375955Y42892959D01*
X35375954Y42892954D01*
X35365618Y42715481D01*
X35365618Y42715480D01*
X30974500Y42715480D01*
X30974500Y44852258D01*
X30974736Y44857665D01*
X30978483Y44900489D01*
X30967353Y44942027D01*
X30966184Y44947298D01*
X30958718Y44989643D01*
X30958715Y44989648D01*
X30957759Y44992277D01*
X30948223Y45015297D01*
X30947038Y45017840D01*
X30922375Y45053063D01*
X30919467Y45057626D01*
X30897972Y45094858D01*
X30897241Y45095471D01*
X30896409Y45096721D01*
X30890999Y45103169D01*
X30891718Y45103773D01*
X30858539Y45153642D01*
X30854008Y45206646D01*
X30859716Y45250000D01*
X30859716Y45250001D01*
X30858995Y45255480D01*
X35365618Y45255480D01*
X35396488Y45080404D01*
X35466904Y44917161D01*
X35540082Y44818867D01*
X35573067Y44774561D01*
X35709254Y44660286D01*
X35786406Y44621539D01*
X35868118Y44580501D01*
X35868119Y44580501D01*
X35868123Y44580499D01*
X36041110Y44539500D01*
X36041113Y44539500D01*
X36174285Y44539500D01*
X36174292Y44539500D01*
X36306577Y44554962D01*
X36473635Y44615766D01*
X36622168Y44713457D01*
X36744167Y44842769D01*
X36833057Y44996731D01*
X36884045Y45167042D01*
X36889196Y45255480D01*
X37905618Y45255480D01*
X37936488Y45080404D01*
X38006904Y44917161D01*
X38080082Y44818867D01*
X38113067Y44774561D01*
X38249254Y44660286D01*
X38326406Y44621539D01*
X38408118Y44580501D01*
X38408119Y44580501D01*
X38408123Y44580499D01*
X38581110Y44539500D01*
X38581113Y44539500D01*
X38714285Y44539500D01*
X38714292Y44539500D01*
X38846577Y44554962D01*
X39013635Y44615766D01*
X39162168Y44713457D01*
X39284167Y44842769D01*
X39373057Y44996731D01*
X39424045Y45167042D01*
X39434382Y45344520D01*
X39403511Y45519599D01*
X39333096Y45682838D01*
X39317403Y45703917D01*
X39226932Y45825440D01*
X39090746Y45939714D01*
X39090744Y45939715D01*
X38931881Y46019500D01*
X38931877Y46019501D01*
X38758890Y46060500D01*
X38625708Y46060500D01*
X38509958Y46046971D01*
X38493422Y46045038D01*
X38493419Y46045037D01*
X38326367Y45984236D01*
X38258675Y45939714D01*
X38177832Y45886543D01*
X38177831Y45886543D01*
X38177831Y45886542D01*
X38055833Y45757233D01*
X37966944Y45603272D01*
X37915955Y45432959D01*
X37915954Y45432954D01*
X37905618Y45255481D01*
X37905618Y45255480D01*
X36889196Y45255480D01*
X36894382Y45344520D01*
X36863511Y45519599D01*
X36793096Y45682838D01*
X36777403Y45703917D01*
X36686932Y45825440D01*
X36550746Y45939714D01*
X36550744Y45939715D01*
X36391881Y46019500D01*
X36391877Y46019501D01*
X36218890Y46060500D01*
X36085708Y46060500D01*
X35969958Y46046971D01*
X35953422Y46045038D01*
X35953419Y46045037D01*
X35786367Y45984236D01*
X35718675Y45939714D01*
X35637832Y45886543D01*
X35637831Y45886543D01*
X35637831Y45886542D01*
X35515833Y45757233D01*
X35426944Y45603272D01*
X35375955Y45432959D01*
X35375954Y45432954D01*
X35365618Y45255481D01*
X35365618Y45255480D01*
X30858995Y45255480D01*
X30838940Y45407806D01*
X30778030Y45554858D01*
X30681134Y45681134D01*
X30554858Y45778030D01*
X30554857Y45778031D01*
X30554855Y45778032D01*
X30407809Y45838939D01*
X30407807Y45838940D01*
X30407806Y45838940D01*
X30328903Y45849328D01*
X30250001Y45859716D01*
X30249999Y45859716D01*
X30092194Y45838940D01*
X30092190Y45838939D01*
X29945144Y45778032D01*
X29818866Y45681134D01*
X29721968Y45554856D01*
X29661061Y45407810D01*
X29661060Y45407806D01*
X29641006Y45255481D01*
X29640284Y45250000D01*
X29657380Y45120142D01*
X29661060Y45092195D01*
X29661061Y45092191D01*
X29721968Y44945145D01*
X29721969Y44945143D01*
X29721970Y44945142D01*
X29818866Y44818866D01*
X29945142Y44721970D01*
X29945143Y44721970D01*
X29945144Y44721969D01*
X29994159Y44701667D01*
X30092194Y44661060D01*
X30177686Y44649805D01*
X30241582Y44621539D01*
X30280053Y44563214D01*
X30285500Y44526866D01*
X30285500Y36196774D01*
X30265815Y36129735D01*
X30213011Y36083980D01*
X30143853Y36074036D01*
X30114050Y36082212D01*
X30097807Y36088940D01*
X30090913Y36090787D01*
X30031254Y36127154D01*
X30000726Y36190001D01*
X30000071Y36226742D01*
X30009716Y36300000D01*
X29988940Y36457806D01*
X29930044Y36599996D01*
X29928031Y36604856D01*
X29928030Y36604857D01*
X29928030Y36604858D01*
X29831134Y36731134D01*
X29704858Y36828030D01*
X29704857Y36828031D01*
X29704855Y36828032D01*
X29557809Y36888939D01*
X29557807Y36888940D01*
X29557806Y36888940D01*
X29478903Y36899328D01*
X29400001Y36909716D01*
X29399999Y36909716D01*
X29242194Y36888940D01*
X29242190Y36888939D01*
X29095144Y36828032D01*
X28968866Y36731134D01*
X28871968Y36604856D01*
X28811061Y36457810D01*
X28811060Y36457806D01*
X28790284Y36300001D01*
X28790284Y36300000D01*
X28811060Y36142195D01*
X28811061Y36142191D01*
X28871969Y35995144D01*
X28871970Y35995142D01*
X28929875Y35919680D01*
X28955070Y35854511D01*
X28955500Y35844193D01*
X28955500Y26194059D01*
X28935815Y26127020D01*
X28919181Y26106378D01*
X27933356Y25120553D01*
X27872033Y25087068D01*
X27802341Y25092052D01*
X27746408Y25133924D01*
X27721991Y25199388D01*
X27721675Y25208234D01*
X27721675Y27624520D01*
X27741360Y27691559D01*
X27770190Y27722896D01*
X27773309Y27725289D01*
X27870205Y27851565D01*
X27931115Y27998617D01*
X27951891Y28156423D01*
X27951457Y28159716D01*
X27947530Y28189544D01*
X27931115Y28314229D01*
X27876890Y28445142D01*
X27870206Y28461279D01*
X27870205Y28461280D01*
X27870205Y28461281D01*
X27773309Y28587557D01*
X27647033Y28684453D01*
X27647032Y28684454D01*
X27647030Y28684455D01*
X27499984Y28745362D01*
X27499982Y28745363D01*
X27499981Y28745363D01*
X27421078Y28755751D01*
X27342176Y28766139D01*
X27342174Y28766139D01*
X27184369Y28745363D01*
X27176518Y28743259D01*
X27175756Y28746103D01*
X27120330Y28740146D01*
X27057852Y28771423D01*
X27022202Y28831513D01*
X27018351Y28862175D01*
X27018351Y33822456D01*
X27020990Y33847901D01*
X27022316Y33854228D01*
X27023270Y33858776D01*
X27021151Y33875773D01*
X27018828Y33894416D01*
X27018351Y33902092D01*
X27018351Y33906119D01*
X27014467Y33929395D01*
X27007889Y33982163D01*
X27007603Y33984458D01*
X27007602Y33984460D01*
X27007602Y33984462D01*
X27005340Y33992058D01*
X27002749Y33999608D01*
X26976350Y34048387D01*
X26972023Y34057238D01*
X26951977Y34098244D01*
X26951974Y34098247D01*
X26951974Y34098248D01*
X26947392Y34104667D01*
X26942471Y34110990D01*
X26942470Y34110992D01*
X26901664Y34148557D01*
X26816748Y34233473D01*
X26783263Y34294796D01*
X26781491Y34337345D01*
X26782004Y34341239D01*
X26761228Y34499045D01*
X26720621Y34597080D01*
X26700319Y34646095D01*
X26700318Y34646096D01*
X26700318Y34646097D01*
X26603422Y34772373D01*
X26477146Y34869269D01*
X26477145Y34869270D01*
X26477143Y34869271D01*
X26330097Y34930178D01*
X26330095Y34930179D01*
X26330094Y34930179D01*
X26235924Y34942577D01*
X26172289Y34950955D01*
X26172288Y34950955D01*
X26168383Y34950441D01*
X26165088Y34950955D01*
X26164161Y34950955D01*
X26164161Y34951100D01*
X26099348Y34961209D01*
X26064521Y34985700D01*
X26015819Y35034402D01*
X25982334Y35095725D01*
X25979500Y35122083D01*
X25979500Y47795480D01*
X35365618Y47795480D01*
X35396488Y47620404D01*
X35466904Y47457161D01*
X35554917Y47338940D01*
X35573067Y47314561D01*
X35709254Y47200286D01*
X35747389Y47181134D01*
X35868118Y47120501D01*
X35868119Y47120501D01*
X35868123Y47120499D01*
X36041110Y47079500D01*
X36041113Y47079500D01*
X36174285Y47079500D01*
X36174292Y47079500D01*
X36306577Y47094962D01*
X36473635Y47155766D01*
X36622168Y47253457D01*
X36744167Y47382769D01*
X36833057Y47536731D01*
X36884045Y47707042D01*
X36889131Y47794372D01*
X36912680Y47860151D01*
X36968055Y47902759D01*
X37037674Y47908664D01*
X37056491Y47903253D01*
X37065976Y47899693D01*
X37121345Y47889645D01*
X37287450Y47859500D01*
X37287453Y47859500D01*
X37456148Y47859500D01*
X37456155Y47859500D01*
X37624188Y47874623D01*
X37748770Y47909006D01*
X37818627Y47907867D01*
X37876782Y47869139D01*
X37904766Y47805118D01*
X37905546Y47796698D01*
X37905616Y47795489D01*
X37936488Y47620404D01*
X38006904Y47457161D01*
X38094917Y47338940D01*
X38113067Y47314561D01*
X38249254Y47200286D01*
X38287389Y47181134D01*
X38408118Y47120501D01*
X38408119Y47120501D01*
X38408123Y47120499D01*
X38581110Y47079500D01*
X38581113Y47079500D01*
X38714285Y47079500D01*
X38714292Y47079500D01*
X38846577Y47094962D01*
X39013635Y47155766D01*
X39162168Y47253457D01*
X39284167Y47382769D01*
X39373057Y47536731D01*
X39424045Y47707042D01*
X39434382Y47884520D01*
X39403511Y48059599D01*
X39333096Y48222838D01*
X39226933Y48365439D01*
X39176437Y48407810D01*
X39090746Y48479714D01*
X39090744Y48479715D01*
X38931881Y48559500D01*
X38931877Y48559501D01*
X38758890Y48600500D01*
X38721860Y48600500D01*
X38654821Y48620185D01*
X38609066Y48672989D01*
X38599122Y48742147D01*
X38600969Y48752092D01*
X38627621Y48868866D01*
X38644191Y48941463D01*
X38654290Y49166330D01*
X38624075Y49389387D01*
X38602007Y49457303D01*
X38600013Y49527141D01*
X38636093Y49586974D01*
X38698793Y49617803D01*
X38712725Y49619409D01*
X38714284Y49619500D01*
X38714292Y49619500D01*
X38846577Y49634962D01*
X39013635Y49695766D01*
X39162168Y49793457D01*
X39284167Y49922769D01*
X39373057Y50076731D01*
X39424045Y50247042D01*
X39434382Y50424520D01*
X39403511Y50599599D01*
X39333096Y50762838D01*
X39226933Y50905439D01*
X39154112Y50966543D01*
X39090746Y51019714D01*
X39090744Y51019715D01*
X38931881Y51099500D01*
X38931877Y51099501D01*
X38758890Y51140500D01*
X38625708Y51140500D01*
X38509958Y51126971D01*
X38493422Y51125038D01*
X38493419Y51125037D01*
X38326367Y51064236D01*
X38258675Y51019714D01*
X38177832Y50966543D01*
X38177831Y50966543D01*
X38177831Y50966542D01*
X38055833Y50837233D01*
X37966944Y50683272D01*
X37915955Y50512959D01*
X37915954Y50512954D01*
X37910868Y50425630D01*
X37887318Y50359849D01*
X37831943Y50317242D01*
X37762323Y50311337D01*
X37743507Y50316748D01*
X37734022Y50320308D01*
X37512550Y50360500D01*
X37512547Y50360500D01*
X37343845Y50360500D01*
X37305399Y50357040D01*
X37175813Y50345378D01*
X37175807Y50345377D01*
X37051231Y50310995D01*
X36981370Y50312135D01*
X36923217Y50350863D01*
X36895233Y50414884D01*
X36894452Y50423317D01*
X36894381Y50424512D01*
X36894382Y50424520D01*
X36863511Y50599599D01*
X36793096Y50762838D01*
X36686933Y50905439D01*
X36614112Y50966543D01*
X36550746Y51019714D01*
X36550744Y51019715D01*
X36391881Y51099500D01*
X36391877Y51099501D01*
X36218890Y51140500D01*
X36085708Y51140500D01*
X35969958Y51126971D01*
X35953422Y51125038D01*
X35953419Y51125037D01*
X35786367Y51064236D01*
X35718675Y51019714D01*
X35637832Y50966543D01*
X35637831Y50966543D01*
X35637831Y50966542D01*
X35515833Y50837233D01*
X35426944Y50683272D01*
X35375955Y50512959D01*
X35375954Y50512954D01*
X35365618Y50335481D01*
X35365618Y50335480D01*
X35380769Y50249550D01*
X35396489Y50160401D01*
X35399776Y50152781D01*
X35466904Y49997161D01*
X35547473Y49888939D01*
X35573067Y49854561D01*
X35709254Y49740286D01*
X35787990Y49700743D01*
X35868118Y49660501D01*
X35868119Y49660501D01*
X35868123Y49660499D01*
X36041110Y49619500D01*
X36041113Y49619500D01*
X36078140Y49619500D01*
X36145179Y49599815D01*
X36190934Y49547011D01*
X36200878Y49477853D01*
X36199031Y49467908D01*
X36155810Y49278543D01*
X36155808Y49278532D01*
X36146397Y49068977D01*
X36145710Y49053670D01*
X36175925Y48830613D01*
X36175926Y48830609D01*
X36197991Y48762700D01*
X36199986Y48692859D01*
X36163906Y48633026D01*
X36101205Y48602198D01*
X36087299Y48600594D01*
X36085737Y48600503D01*
X36085711Y48600500D01*
X36085708Y48600500D01*
X35997775Y48590222D01*
X35953422Y48585038D01*
X35953419Y48585037D01*
X35786367Y48524236D01*
X35718675Y48479714D01*
X35637832Y48426543D01*
X35637831Y48426543D01*
X35637831Y48426542D01*
X35515833Y48297233D01*
X35426944Y48143272D01*
X35375955Y47972959D01*
X35375954Y47972954D01*
X35365618Y47795481D01*
X35365618Y47795480D01*
X25979500Y47795480D01*
X25979500Y48578841D01*
X25999185Y48645880D01*
X26051989Y48691635D01*
X26087311Y48701780D01*
X26157806Y48711060D01*
X26304858Y48771970D01*
X26431134Y48868866D01*
X26528030Y48995142D01*
X26588940Y49142194D01*
X26589456Y49146109D01*
X26609716Y49300000D01*
X26609716Y49300001D01*
X26607298Y49318360D01*
X26588940Y49457806D01*
X26530119Y49599815D01*
X26528031Y49604856D01*
X26528030Y49604857D01*
X26528030Y49604858D01*
X26431134Y49731134D01*
X26304858Y49828030D01*
X26304857Y49828031D01*
X26304855Y49828032D01*
X26157809Y49888939D01*
X26157807Y49888940D01*
X26157806Y49888940D01*
X26078903Y49899328D01*
X26000001Y49909716D01*
X25999999Y49909716D01*
X25842194Y49888940D01*
X25842190Y49888939D01*
X25695144Y49828032D01*
X25568866Y49731134D01*
X25471968Y49604856D01*
X25411061Y49457810D01*
X25411060Y49457806D01*
X25390284Y49300001D01*
X25390284Y49291873D01*
X25388942Y49291873D01*
X25379481Y49231222D01*
X25345256Y49191892D01*
X25346975Y49190025D01*
X25339419Y49183071D01*
X25317359Y49154728D01*
X25312281Y49148976D01*
X25309424Y49146119D01*
X25309420Y49146115D01*
X25309419Y49146113D01*
X25295705Y49126907D01*
X25273992Y49099010D01*
X25261623Y49083117D01*
X25257849Y49076143D01*
X25254345Y49068977D01*
X25238520Y49015818D01*
X25220500Y48963330D01*
X25219195Y48955513D01*
X25218207Y48947586D01*
X25220167Y48900216D01*
X25203270Y48832421D01*
X25152402Y48784523D01*
X25083713Y48771730D01*
X25048821Y48780531D01*
X24907809Y48838939D01*
X24907807Y48838940D01*
X24907806Y48838940D01*
X24828903Y48849328D01*
X24750001Y48859716D01*
X24749999Y48859716D01*
X24592194Y48838940D01*
X24592190Y48838939D01*
X24445144Y48778032D01*
X24318866Y48681134D01*
X24221968Y48554856D01*
X24161061Y48407810D01*
X24161060Y48407806D01*
X24140284Y48250001D01*
X24140284Y48250000D01*
X24161060Y48092195D01*
X24161061Y48092191D01*
X24221968Y47945145D01*
X24221969Y47945143D01*
X24221970Y47945142D01*
X24249961Y47908664D01*
X24287186Y47860151D01*
X24318866Y47818866D01*
X24321983Y47816475D01*
X24323946Y47813786D01*
X24324609Y47813123D01*
X24324505Y47813020D01*
X24363187Y47760051D01*
X24370500Y47718097D01*
X24370500Y35253312D01*
X24350815Y35186273D01*
X24298011Y35140518D01*
X24228853Y35130574D01*
X24199049Y35138750D01*
X24165918Y35152473D01*
X24123026Y35170239D01*
X24029745Y35182520D01*
X23965221Y35191015D01*
X23965220Y35191015D01*
X23961315Y35190501D01*
X23958020Y35191015D01*
X23957093Y35191015D01*
X23957093Y35191160D01*
X23892280Y35201269D01*
X23857453Y35225760D01*
X23715819Y35367394D01*
X23682334Y35428717D01*
X23679500Y35455075D01*
X23679500Y43097192D01*
X23699185Y43164231D01*
X23751989Y43209986D01*
X23756003Y43211735D01*
X23804858Y43231970D01*
X23931134Y43328866D01*
X24028030Y43455142D01*
X24088940Y43602194D01*
X24109716Y43760000D01*
X24088940Y43917806D01*
X24028030Y44064858D01*
X23931134Y44191134D01*
X23804858Y44288030D01*
X23804857Y44288031D01*
X23804855Y44288032D01*
X23657809Y44348939D01*
X23657807Y44348940D01*
X23657806Y44348940D01*
X23578903Y44359328D01*
X23500001Y44369716D01*
X23499999Y44369716D01*
X23342194Y44348940D01*
X23342190Y44348939D01*
X23195144Y44288032D01*
X23068866Y44191134D01*
X22971968Y44064856D01*
X22911061Y43917810D01*
X22911060Y43917806D01*
X22890284Y43760001D01*
X22890284Y43760000D01*
X22911060Y43602194D01*
X22913163Y43594346D01*
X22912708Y43594225D01*
X22920158Y43560440D01*
X22920500Y43552176D01*
X22920500Y35298740D01*
X22917861Y35273292D01*
X22915580Y35262419D01*
X22920023Y35226780D01*
X22920500Y35219103D01*
X22920500Y35215076D01*
X22921430Y35209505D01*
X22924383Y35191803D01*
X22931248Y35136732D01*
X22933505Y35129152D01*
X22936099Y35121596D01*
X22936100Y35121592D01*
X22936101Y35121589D01*
X22936102Y35121588D01*
X22962497Y35072813D01*
X22969088Y35059332D01*
X22980846Y34990459D01*
X22953503Y34926162D01*
X22895738Y34886855D01*
X22825893Y34885017D01*
X22770006Y34917191D01*
X22280819Y35406378D01*
X22247334Y35467701D01*
X22244500Y35494059D01*
X22244500Y37341240D01*
X22264185Y37408279D01*
X22293011Y37439614D01*
X22331134Y37468866D01*
X22428030Y37595142D01*
X22488940Y37742194D01*
X22509716Y37900000D01*
X22488940Y38057806D01*
X22433671Y38191240D01*
X22428031Y38204856D01*
X22428030Y38204857D01*
X22428030Y38204858D01*
X22331134Y38331134D01*
X22204858Y38428030D01*
X22204857Y38428031D01*
X22204855Y38428032D01*
X22057809Y38488939D01*
X22057807Y38488940D01*
X22057806Y38488940D01*
X21978903Y38499328D01*
X21900001Y38509716D01*
X21899999Y38509716D01*
X21742194Y38488940D01*
X21742190Y38488939D01*
X21595143Y38428031D01*
X21595141Y38428030D01*
X21543986Y38388777D01*
X21478817Y38363583D01*
X21410372Y38377622D01*
X21360382Y38426436D01*
X21344500Y38487153D01*
X21344500Y40787399D01*
X21364185Y40854438D01*
X21416989Y40900193D01*
X21452311Y40910337D01*
X21457804Y40911060D01*
X21604856Y40971970D01*
X21731132Y41068866D01*
X21828028Y41195142D01*
X21888938Y41342194D01*
X21909714Y41500000D01*
X21888938Y41657806D01*
X21828028Y41804858D01*
X21731132Y41931134D01*
X21604856Y42028030D01*
X21604855Y42028031D01*
X21604853Y42028032D01*
X21457807Y42088939D01*
X21457805Y42088940D01*
X21457804Y42088940D01*
X21361591Y42101607D01*
X21299999Y42109716D01*
X21299997Y42109716D01*
X21142192Y42088940D01*
X21142188Y42088939D01*
X20995142Y42028032D01*
X20868864Y41931134D01*
X20771966Y41804856D01*
X20711059Y41657810D01*
X20711058Y41657806D01*
X20690282Y41500001D01*
X20690282Y41499999D01*
X20699691Y41428531D01*
X20688925Y41359496D01*
X20686225Y41354841D01*
X20681794Y41345339D01*
X20672233Y41322259D01*
X20671281Y41319642D01*
X20663814Y41277298D01*
X20662643Y41272017D01*
X20651516Y41230491D01*
X20655264Y41187663D01*
X20655500Y41182256D01*
X20655500Y14308762D01*
X20635815Y14241723D01*
X20606988Y14210387D01*
X20568866Y14181135D01*
X20471970Y14054860D01*
X20471969Y14054857D01*
X20411061Y13907810D01*
X20411060Y13907806D01*
X20390284Y13750001D01*
X20390284Y13750000D01*
X20411060Y13592195D01*
X20411061Y13592191D01*
X20471968Y13445145D01*
X20471969Y13445143D01*
X20471970Y13445142D01*
X20568866Y13318866D01*
X20695142Y13221970D01*
X20842194Y13161060D01*
X20981640Y13142702D01*
X20999999Y13140284D01*
X21000000Y13140284D01*
X21000001Y13140284D01*
X21016446Y13142450D01*
X21157806Y13161060D01*
X21274050Y13209210D01*
X21343517Y13216678D01*
X21405996Y13185403D01*
X21441648Y13125314D01*
X21445500Y13094648D01*
X21445500Y7800403D01*
X21425815Y7733364D01*
X21373011Y7687609D01*
X21303853Y7677665D01*
X21292558Y7682823D01*
X21257732Y7684181D01*
X20676660Y7103110D01*
X20589423Y7241948D01*
X20461948Y7369423D01*
X20323107Y7456662D01*
X20904178Y8037734D01*
X20904178Y8037736D01*
X20903374Y8038423D01*
X20903358Y8038434D01*
X20688631Y8170020D01*
X20455956Y8266397D01*
X20211072Y8325188D01*
X19960000Y8344948D01*
X19708927Y8325188D01*
X19464043Y8266397D01*
X19231368Y8170020D01*
X19016637Y8038432D01*
X19015820Y8037734D01*
X19596892Y7456662D01*
X19458052Y7369423D01*
X19330577Y7241948D01*
X19243338Y7103108D01*
X18662266Y7684180D01*
X18661569Y7683364D01*
X18529980Y7468632D01*
X18433603Y7235957D01*
X18374812Y6991073D01*
X18355052Y6740000D01*
X9481555Y6740000D01*
X9484167Y6742769D01*
X9573057Y6896731D01*
X9624045Y7067042D01*
X9634382Y7244520D01*
X9603511Y7419599D01*
X9533096Y7582838D01*
X9469049Y7668867D01*
X9457649Y7684181D01*
X9426933Y7725439D01*
X9417488Y7733364D01*
X9290746Y7839714D01*
X9290744Y7839715D01*
X9131881Y7919500D01*
X9130472Y7919834D01*
X8958890Y7960500D01*
X8825708Y7960500D01*
X8709958Y7946971D01*
X8693422Y7945038D01*
X8693419Y7945037D01*
X8526367Y7884236D01*
X8427343Y7819107D01*
X8377832Y7786543D01*
X8377831Y7786543D01*
X8377831Y7786542D01*
X8255833Y7657233D01*
X8166944Y7503272D01*
X8115955Y7332959D01*
X8115954Y7332954D01*
X8105618Y7155481D01*
X8105618Y7155480D01*
X7089196Y7155480D01*
X7094382Y7244520D01*
X7063511Y7419599D01*
X7032984Y7490366D01*
X7024507Y7559718D01*
X7054870Y7622646D01*
X7114434Y7659168D01*
X7163755Y7659227D01*
X7164137Y7662121D01*
X7172193Y7661061D01*
X7172194Y7661060D01*
X7273238Y7647757D01*
X7329999Y7640284D01*
X7330000Y7640284D01*
X7330001Y7640284D01*
X7346446Y7642450D01*
X7487806Y7661060D01*
X7634858Y7721970D01*
X7761134Y7818866D01*
X7858030Y7945142D01*
X7918940Y8092194D01*
X7939716Y8250000D01*
X7918940Y8407806D01*
X7858030Y8554858D01*
X7761134Y8681134D01*
X7634858Y8778030D01*
X7634857Y8778031D01*
X7634854Y8778033D01*
X7631043Y8779611D01*
X7628323Y8781803D01*
X7627819Y8782094D01*
X7627864Y8782173D01*
X7576641Y8823454D01*
X7554579Y8889749D01*
X7554500Y8894170D01*
X7554500Y9695480D01*
X8105618Y9695480D01*
X8135727Y9524719D01*
X8136489Y9520401D01*
X8163544Y9457680D01*
X8206904Y9357161D01*
X8284331Y9253160D01*
X8313067Y9214561D01*
X8449254Y9100286D01*
X8527194Y9061143D01*
X8608118Y9020501D01*
X8608119Y9020501D01*
X8608123Y9020499D01*
X8781110Y8979500D01*
X8781113Y8979500D01*
X8914285Y8979500D01*
X8914292Y8979500D01*
X9046577Y8994962D01*
X9213635Y9055766D01*
X9362168Y9153457D01*
X9484167Y9282769D01*
X9573057Y9436731D01*
X9624045Y9607042D01*
X9634382Y9784520D01*
X9603511Y9959599D01*
X9533096Y10122838D01*
X9479267Y10195142D01*
X9457447Y10224452D01*
X9426933Y10265439D01*
X9405499Y10283424D01*
X9290746Y10379714D01*
X9290744Y10379715D01*
X9131881Y10459500D01*
X9131877Y10459501D01*
X8958890Y10500500D01*
X8825708Y10500500D01*
X8709958Y10486971D01*
X8693422Y10485038D01*
X8693419Y10485037D01*
X8526367Y10424236D01*
X8458675Y10379714D01*
X8377832Y10326543D01*
X8377831Y10326543D01*
X8377831Y10326542D01*
X8255833Y10197233D01*
X8166944Y10043272D01*
X8115955Y9872959D01*
X8115954Y9872954D01*
X8105618Y9695481D01*
X8105618Y9695480D01*
X7554500Y9695480D01*
X7554500Y13048102D01*
X7574185Y13115141D01*
X7626989Y13160896D01*
X7696147Y13170840D01*
X7759703Y13141815D01*
X7776876Y13123588D01*
X7799082Y13094648D01*
X7818866Y13068866D01*
X7945142Y12971970D01*
X7945143Y12971970D01*
X7945144Y12971969D01*
X7990332Y12953252D01*
X8092194Y12911060D01*
X8153553Y12902982D01*
X8217449Y12874715D01*
X8255920Y12816391D01*
X8256751Y12746526D01*
X8244755Y12718044D01*
X8166943Y12583269D01*
X8147181Y12517258D01*
X8115955Y12412959D01*
X8115954Y12412954D01*
X8105618Y12235481D01*
X8105618Y12235480D01*
X8136488Y12060404D01*
X8206904Y11897161D01*
X8262290Y11822766D01*
X8313067Y11754561D01*
X8449254Y11640286D01*
X8527990Y11600743D01*
X8608118Y11560501D01*
X8608119Y11560501D01*
X8608123Y11560499D01*
X8781110Y11519500D01*
X8781113Y11519500D01*
X8914285Y11519500D01*
X8914292Y11519500D01*
X9046577Y11534962D01*
X9213635Y11595766D01*
X9362168Y11693457D01*
X9484167Y11822769D01*
X9573057Y11976731D01*
X9624045Y12147042D01*
X9634382Y12324520D01*
X9603511Y12499599D01*
X9533096Y12662838D01*
X9491996Y12718044D01*
X9426932Y12805440D01*
X9290746Y12919714D01*
X9290744Y12919715D01*
X9131881Y12999500D01*
X9131877Y12999501D01*
X8958890Y13040500D01*
X8899554Y13040500D01*
X8832515Y13060185D01*
X8786760Y13112989D01*
X8776816Y13182147D01*
X8784993Y13211952D01*
X8829277Y13318866D01*
X8838940Y13342194D01*
X8859716Y13500000D01*
X8838940Y13657806D01*
X8778030Y13804858D01*
X8735706Y13860015D01*
X8710513Y13925182D01*
X8724551Y13993627D01*
X8773365Y14043617D01*
X8834083Y14059500D01*
X8914285Y14059500D01*
X8914292Y14059500D01*
X9046577Y14074962D01*
X9213635Y14135766D01*
X9362168Y14233457D01*
X9484167Y14362769D01*
X9573057Y14516731D01*
X9624045Y14687042D01*
X9634382Y14864520D01*
X9603511Y15039599D01*
X9533096Y15202838D01*
X9497984Y15250001D01*
X9463370Y15296496D01*
X9426933Y15345439D01*
X9405499Y15363424D01*
X9290746Y15459714D01*
X9290744Y15459715D01*
X9131881Y15539500D01*
X9131877Y15539501D01*
X8958890Y15580500D01*
X8825708Y15580500D01*
X8709958Y15566971D01*
X8693422Y15565038D01*
X8693419Y15565037D01*
X8526366Y15504235D01*
X8526364Y15504234D01*
X8486638Y15478106D01*
X8419810Y15457714D01*
X8352566Y15476689D01*
X8306256Y15529007D01*
X8294500Y15581707D01*
X8294500Y16596972D01*
X8314185Y16664011D01*
X8366989Y16709766D01*
X8436147Y16719710D01*
X8474151Y16707782D01*
X8608118Y16640501D01*
X8608119Y16640501D01*
X8608123Y16640499D01*
X8781110Y16599500D01*
X8781113Y16599500D01*
X8914285Y16599500D01*
X8914292Y16599500D01*
X9046577Y16614962D01*
X9213635Y16675766D01*
X9362168Y16773457D01*
X9484167Y16902769D01*
X9573057Y17056731D01*
X9624045Y17227042D01*
X9634382Y17404520D01*
X9603511Y17579599D01*
X9533096Y17742838D01*
X9494840Y17794224D01*
X9437333Y17871469D01*
X9426933Y17885439D01*
X9405499Y17903424D01*
X9290746Y17999714D01*
X9290744Y17999715D01*
X9131881Y18079500D01*
X9124843Y18081168D01*
X8958890Y18120500D01*
X8825708Y18120500D01*
X8709958Y18106971D01*
X8693422Y18105038D01*
X8693419Y18105037D01*
X8526366Y18044235D01*
X8526364Y18044234D01*
X8486638Y18018106D01*
X8419810Y17997714D01*
X8352566Y18016689D01*
X8306256Y18069007D01*
X8294500Y18121707D01*
X8294500Y19136972D01*
X8314185Y19204011D01*
X8366989Y19249766D01*
X8436147Y19259710D01*
X8474151Y19247782D01*
X8608118Y19180501D01*
X8608119Y19180501D01*
X8608123Y19180499D01*
X8781110Y19139500D01*
X8781113Y19139500D01*
X8914285Y19139500D01*
X8914292Y19139500D01*
X9046577Y19154962D01*
X9213635Y19215766D01*
X9362168Y19313457D01*
X9484167Y19442769D01*
X9573057Y19596731D01*
X9624045Y19767042D01*
X9634382Y19944520D01*
X9603511Y20119599D01*
X9533096Y20282838D01*
X9532995Y20282973D01*
X9426932Y20425440D01*
X9290746Y20539714D01*
X9290744Y20539715D01*
X9131881Y20619500D01*
X9131877Y20619501D01*
X8958890Y20660500D01*
X8825708Y20660500D01*
X8709958Y20646971D01*
X8693422Y20645038D01*
X8693419Y20645037D01*
X8526366Y20584235D01*
X8526364Y20584234D01*
X8486638Y20558106D01*
X8419810Y20537714D01*
X8352566Y20556689D01*
X8306256Y20609007D01*
X8294500Y20661707D01*
X8294500Y21676972D01*
X8314185Y21744011D01*
X8366989Y21789766D01*
X8436147Y21799710D01*
X8474151Y21787782D01*
X8608118Y21720501D01*
X8608119Y21720501D01*
X8608123Y21720499D01*
X8781110Y21679500D01*
X8781113Y21679500D01*
X8914285Y21679500D01*
X8914292Y21679500D01*
X9046577Y21694962D01*
X9213635Y21755766D01*
X9362168Y21853457D01*
X9484167Y21982769D01*
X9537705Y22075500D01*
X10365083Y22075500D01*
X10380328Y21959702D01*
X10385859Y21917695D01*
X10385860Y21917691D01*
X10446767Y21770645D01*
X10446768Y21770643D01*
X10446769Y21770642D01*
X10543665Y21644366D01*
X10669941Y21547470D01*
X10816993Y21486560D01*
X10956439Y21468202D01*
X10974798Y21465784D01*
X10974799Y21465784D01*
X10974800Y21465784D01*
X10991245Y21467950D01*
X11132605Y21486560D01*
X11279657Y21547470D01*
X11405933Y21644366D01*
X11502829Y21770642D01*
X11563739Y21917694D01*
X11584515Y22075500D01*
X11563739Y22233306D01*
X11502829Y22380358D01*
X11405933Y22506634D01*
X11279657Y22603530D01*
X11243007Y22618711D01*
X11221046Y22627808D01*
X11166643Y22671650D01*
X11144579Y22737944D01*
X11144500Y22742369D01*
X11144500Y31153438D01*
X11164185Y31220477D01*
X11216989Y31266232D01*
X11286147Y31276176D01*
X11343985Y31251815D01*
X11444180Y31174932D01*
X11591232Y31114022D01*
X11730678Y31095664D01*
X11749037Y31093246D01*
X11749038Y31093246D01*
X11749039Y31093246D01*
X11765484Y31095412D01*
X11906844Y31114022D01*
X11984050Y31146002D01*
X12053516Y31153470D01*
X12115996Y31122195D01*
X12151648Y31062106D01*
X12155500Y31031440D01*
X12155500Y30698017D01*
X12135815Y30630978D01*
X12083011Y30585223D01*
X12078953Y30583456D01*
X11945143Y30528031D01*
X11818866Y30431134D01*
X11721968Y30304856D01*
X11661061Y30157810D01*
X11661060Y30157806D01*
X11640284Y30000001D01*
X11640284Y30000000D01*
X11661060Y29842195D01*
X11661061Y29842191D01*
X11721968Y29695145D01*
X11721969Y29695143D01*
X11721970Y29695142D01*
X11818866Y29568866D01*
X11945142Y29471970D01*
X12074574Y29418359D01*
X12128975Y29374520D01*
X12150648Y29314607D01*
X12151970Y29299501D01*
X12153848Y29278030D01*
X12155264Y29261853D01*
X12155500Y29256446D01*
X12155500Y25308762D01*
X12135815Y25241723D01*
X12106988Y25210387D01*
X12068866Y25181135D01*
X11971970Y25054860D01*
X11971969Y25054857D01*
X11911061Y24907810D01*
X11911060Y24907806D01*
X11890284Y24750000D01*
X11910957Y24592973D01*
X11911060Y24592195D01*
X11911061Y24592191D01*
X11971968Y24445145D01*
X11971969Y24445143D01*
X11971970Y24445142D01*
X12068866Y24318866D01*
X12195142Y24221970D01*
X12195143Y24221970D01*
X12195144Y24221969D01*
X12201105Y24219500D01*
X12342194Y24161060D01*
X12481640Y24142702D01*
X12499999Y24140284D01*
X12499999Y24140285D01*
X12500000Y24140284D01*
X12648313Y24159811D01*
X12717345Y24149046D01*
X12769601Y24102667D01*
X12788496Y24036872D01*
X12788496Y20183649D01*
X12768811Y20116610D01*
X12762872Y20108163D01*
X12721970Y20054859D01*
X12721969Y20054857D01*
X12661061Y19907810D01*
X12661060Y19907806D01*
X12640284Y19750001D01*
X12640284Y19750000D01*
X12661060Y19592195D01*
X12661061Y19592191D01*
X12721968Y19445145D01*
X12721969Y19445143D01*
X12721970Y19445142D01*
X12818866Y19318866D01*
X12945142Y19221970D01*
X12945143Y19221970D01*
X12945144Y19221969D01*
X12994159Y19201667D01*
X13092194Y19161060D01*
X13231640Y19142702D01*
X13249999Y19140284D01*
X13250000Y19140284D01*
X13250001Y19140284D01*
X13266446Y19142450D01*
X13407806Y19161060D01*
X13554858Y19221970D01*
X13681134Y19318866D01*
X13778030Y19445142D01*
X13838940Y19592194D01*
X13859716Y19750000D01*
X13838940Y19907806D01*
X13778030Y20054858D01*
X13681134Y20181134D01*
X13554858Y20278030D01*
X13554036Y20278371D01*
X13553450Y20278843D01*
X13547819Y20282094D01*
X13548326Y20282973D01*
X13499636Y20322214D01*
X13477575Y20388510D01*
X13477496Y20392929D01*
X13477496Y26483852D01*
X13497181Y26550891D01*
X13549985Y26596646D01*
X13619143Y26606590D01*
X13682699Y26577565D01*
X13691250Y26568552D01*
X13737186Y26526263D01*
X14440429Y25823021D01*
X14473914Y25761698D01*
X14476748Y25735340D01*
X14476748Y25628548D01*
X14457063Y25561509D01*
X14428237Y25530174D01*
X14425114Y25527779D01*
X14328218Y25401503D01*
X14328217Y25401500D01*
X14267309Y25254453D01*
X14267308Y25254449D01*
X14246532Y25096644D01*
X14246532Y25096643D01*
X14267308Y24938838D01*
X14267309Y24938834D01*
X14328216Y24791788D01*
X14328217Y24791786D01*
X14328218Y24791785D01*
X14425114Y24665509D01*
X14551390Y24568613D01*
X14698442Y24507703D01*
X14837888Y24489345D01*
X14856247Y24486927D01*
X14856248Y24486927D01*
X14856249Y24486927D01*
X14872694Y24489093D01*
X15014054Y24507703D01*
X15161106Y24568613D01*
X15287382Y24665509D01*
X15384278Y24791785D01*
X15445188Y24938837D01*
X15465964Y25096643D01*
X15445188Y25254449D01*
X15384278Y25401501D01*
X15384277Y25401502D01*
X15384277Y25401503D01*
X15287381Y25527779D01*
X15284259Y25530174D01*
X15282292Y25532868D01*
X15281632Y25533528D01*
X15281734Y25533631D01*
X15243058Y25586603D01*
X15235748Y25628548D01*
X15235748Y25891676D01*
X15238387Y25917121D01*
X15239049Y25920285D01*
X15240667Y25927996D01*
X15238560Y25944897D01*
X15236225Y25963636D01*
X15235748Y25971312D01*
X15235748Y25975339D01*
X15231864Y25998615D01*
X15230497Y26009580D01*
X15225000Y26053678D01*
X15224999Y26053680D01*
X15224999Y26053682D01*
X15222737Y26061278D01*
X15220146Y26068828D01*
X15193747Y26117607D01*
X15189145Y26127020D01*
X15169374Y26167464D01*
X15169371Y26167467D01*
X15169371Y26167468D01*
X15164789Y26173887D01*
X15159868Y26180210D01*
X15159867Y26180212D01*
X15119061Y26217777D01*
X14731355Y26605483D01*
X14697870Y26666806D01*
X14702854Y26736498D01*
X14744726Y26792431D01*
X14802846Y26816102D01*
X14832626Y26820022D01*
X14979678Y26880932D01*
X15105954Y26977828D01*
X15153731Y27040092D01*
X15210157Y27081294D01*
X15279903Y27085449D01*
X15299551Y27079169D01*
X15383776Y27044282D01*
X15523222Y27025924D01*
X15541581Y27023506D01*
X15541582Y27023506D01*
X15541583Y27023506D01*
X15558028Y27025672D01*
X15699388Y27044282D01*
X15846440Y27105192D01*
X15972716Y27202088D01*
X16069612Y27328364D01*
X16130522Y27475416D01*
X16151298Y27633222D01*
X16151298Y27633223D01*
X16145026Y27680862D01*
X16155791Y27749898D01*
X16180281Y27784727D01*
X16243820Y27848265D01*
X16305142Y27881749D01*
X16374834Y27876765D01*
X16430767Y27834893D01*
X16455184Y27769429D01*
X16455500Y27760583D01*
X16455500Y23375641D01*
X16435815Y23308602D01*
X16383011Y23262847D01*
X16313853Y23252903D01*
X16256014Y23277265D01*
X16189855Y23328030D01*
X16189853Y23328031D01*
X16042806Y23388939D01*
X16042804Y23388940D01*
X16042803Y23388940D01*
X15921912Y23404856D01*
X15884998Y23409716D01*
X15884996Y23409716D01*
X15727191Y23388940D01*
X15727187Y23388939D01*
X15580141Y23328032D01*
X15453863Y23231134D01*
X15356965Y23104856D01*
X15296058Y22957810D01*
X15296057Y22957806D01*
X15275281Y22800000D01*
X15292545Y22668866D01*
X15296057Y22642195D01*
X15296058Y22642191D01*
X15356965Y22495145D01*
X15356966Y22495143D01*
X15356967Y22495142D01*
X15453863Y22368866D01*
X15580139Y22271970D01*
X15727191Y22211060D01*
X15866637Y22192702D01*
X15884996Y22190284D01*
X15884997Y22190284D01*
X15884998Y22190284D01*
X15901443Y22192450D01*
X16042803Y22211060D01*
X16189855Y22271970D01*
X16256014Y22322737D01*
X16321182Y22347930D01*
X16389627Y22333892D01*
X16439617Y22285078D01*
X16455500Y22224360D01*
X16455500Y19937663D01*
X16435815Y19870624D01*
X16383011Y19824869D01*
X16378953Y19823102D01*
X16270140Y19778031D01*
X16143863Y19681134D01*
X16046965Y19554856D01*
X15986058Y19407810D01*
X15986057Y19407806D01*
X15965281Y19250000D01*
X15982806Y19116884D01*
X15986057Y19092195D01*
X15986058Y19092191D01*
X16046965Y18945145D01*
X16046966Y18945143D01*
X16046967Y18945142D01*
X16143863Y18818866D01*
X16270139Y18721970D01*
X16270140Y18721970D01*
X16270141Y18721969D01*
X16312654Y18704360D01*
X16417191Y18661060D01*
X16556637Y18642702D01*
X16574996Y18640284D01*
X16574997Y18640284D01*
X16574998Y18640284D01*
X16591443Y18642450D01*
X16732803Y18661060D01*
X16879855Y18721970D01*
X16974511Y18794604D01*
X17039680Y18819798D01*
X17108125Y18805760D01*
X17125482Y18794606D01*
X17220142Y18721970D01*
X17220143Y18721970D01*
X17220144Y18721969D01*
X17262657Y18704360D01*
X17367194Y18661060D01*
X17506640Y18642702D01*
X17524999Y18640284D01*
X17525000Y18640284D01*
X17525001Y18640284D01*
X17541446Y18642450D01*
X17682806Y18661060D01*
X17829858Y18721970D01*
X17956134Y18818866D01*
X18053030Y18945142D01*
X18113940Y19092194D01*
X18134716Y19250000D01*
X18113940Y19407806D01*
X18053030Y19554858D01*
X17956134Y19681134D01*
X17829858Y19778030D01*
X17829857Y19778031D01*
X17829855Y19778032D01*
X17710434Y19827497D01*
X17656030Y19871338D01*
X17633965Y19937632D01*
X17633886Y19942058D01*
X17633886Y33908360D01*
X17653571Y33975399D01*
X17706375Y34021154D01*
X17774068Y34031299D01*
X17929386Y34010850D01*
X17933278Y34011363D01*
X17936567Y34010850D01*
X17937515Y34010850D01*
X17937515Y34010703D01*
X18002312Y34000603D01*
X18037152Y33976106D01*
X18584181Y33429077D01*
X18617666Y33367754D01*
X18620500Y33341396D01*
X18620500Y16662811D01*
X18600815Y16595772D01*
X18548011Y16550017D01*
X18543953Y16548250D01*
X18495139Y16528031D01*
X18368862Y16431134D01*
X18271964Y16304856D01*
X18211057Y16157810D01*
X18211056Y16157806D01*
X18190280Y16000001D01*
X18190280Y16000000D01*
X18211056Y15842195D01*
X18211057Y15842191D01*
X18271964Y15695145D01*
X18271965Y15695143D01*
X18271966Y15695142D01*
X18368862Y15568866D01*
X18495138Y15471970D01*
X18495139Y15471970D01*
X18495140Y15471969D01*
X18544155Y15451667D01*
X18642190Y15411060D01*
X18781636Y15392702D01*
X18799995Y15390284D01*
X18799996Y15390284D01*
X18799997Y15390284D01*
X18816442Y15392450D01*
X18957802Y15411060D01*
X19104854Y15471970D01*
X19231130Y15568866D01*
X19328026Y15695142D01*
X19388936Y15842194D01*
X19409712Y16000000D01*
X19388936Y16157806D01*
X19388933Y16157812D01*
X19386832Y16165658D01*
X19387289Y16165781D01*
X19379841Y16199569D01*
X19379500Y16207817D01*
X19379500Y33497732D01*
X19382139Y33523177D01*
X19382801Y33526341D01*
X19384419Y33534052D01*
X19381826Y33554856D01*
X19379977Y33569692D01*
X19379500Y33577368D01*
X19379500Y33581395D01*
X19375616Y33604671D01*
X19373333Y33622981D01*
X19368752Y33659734D01*
X19368751Y33659736D01*
X19368751Y33659738D01*
X19366489Y33667334D01*
X19363898Y33674884D01*
X19337499Y33723663D01*
X19313126Y33773520D01*
X19313123Y33773523D01*
X19313123Y33773524D01*
X19308541Y33779943D01*
X19303620Y33786266D01*
X19303619Y33786268D01*
X19298387Y33791084D01*
X19262814Y33823832D01*
X18573846Y34512800D01*
X18540361Y34574123D01*
X18538589Y34616672D01*
X18539102Y34620566D01*
X18518326Y34778372D01*
X18457416Y34925424D01*
X18360520Y35051700D01*
X18234244Y35148596D01*
X18234243Y35148597D01*
X18234241Y35148598D01*
X18087195Y35209505D01*
X18087193Y35209506D01*
X18087192Y35209506D01*
X17966711Y35225368D01*
X17929387Y35230282D01*
X17929385Y35230282D01*
X17892061Y35225368D01*
X17774071Y35209835D01*
X17705036Y35220599D01*
X17652780Y35266979D01*
X17633886Y35332773D01*
X17633886Y38195328D01*
X17653571Y38262367D01*
X17670200Y38283005D01*
X18781829Y39394634D01*
X18843150Y39428117D01*
X18912842Y39423133D01*
X18916925Y39421526D01*
X18942192Y39411060D01*
X19081638Y39392702D01*
X19099997Y39390284D01*
X19099998Y39390284D01*
X19099999Y39390284D01*
X19116444Y39392450D01*
X19257804Y39411060D01*
X19404856Y39471970D01*
X19531132Y39568866D01*
X19628028Y39695142D01*
X19688938Y39842194D01*
X19709714Y40000000D01*
X19688938Y40157806D01*
X19628028Y40304858D01*
X19531132Y40431134D01*
X19404856Y40528030D01*
X19404855Y40528031D01*
X19404853Y40528032D01*
X19257807Y40588939D01*
X19257805Y40588940D01*
X19257804Y40588940D01*
X19178901Y40599328D01*
X19099999Y40609716D01*
X19099996Y40609716D01*
X18934969Y40587990D01*
X18865934Y40598756D01*
X18813678Y40645136D01*
X18794793Y40712405D01*
X18804221Y40758375D01*
X18838940Y40842194D01*
X18859716Y41000000D01*
X18838940Y41157806D01*
X18778030Y41304858D01*
X18681134Y41431134D01*
X18554858Y41528030D01*
X18554857Y41528031D01*
X18554855Y41528032D01*
X18407809Y41588939D01*
X18407807Y41588940D01*
X18407806Y41588940D01*
X18328903Y41599328D01*
X18250001Y41609716D01*
X18249999Y41609716D01*
X18092194Y41588940D01*
X18092190Y41588939D01*
X17945144Y41528032D01*
X17818866Y41431134D01*
X17721968Y41304856D01*
X17661061Y41157810D01*
X17661060Y41157806D01*
X17640284Y41000001D01*
X17640284Y41000000D01*
X17661059Y40842197D01*
X17661059Y40842195D01*
X17661060Y40842194D01*
X17695776Y40758382D01*
X17715445Y40710895D01*
X17722913Y40641425D01*
X17691637Y40578946D01*
X17688564Y40575762D01*
X16771178Y39658376D01*
X16709855Y39624891D01*
X16640163Y39629875D01*
X16584230Y39671747D01*
X16559813Y39737211D01*
X16559497Y39746057D01*
X16559497Y41120939D01*
X16579182Y41187978D01*
X16595807Y41208611D01*
X16731072Y41343877D01*
X16735035Y41347507D01*
X16767973Y41375144D01*
X16789482Y41412401D01*
X16792359Y41416918D01*
X16817039Y41452162D01*
X16817039Y41452165D01*
X16818232Y41454721D01*
X16827754Y41477707D01*
X16828717Y41480355D01*
X16828717Y41480356D01*
X16828718Y41480357D01*
X16836188Y41522731D01*
X16837344Y41527944D01*
X16848483Y41569512D01*
X16844735Y41612341D01*
X16844500Y41617744D01*
X16844500Y46019362D01*
X16864185Y46086401D01*
X16916989Y46132156D01*
X16984689Y46142300D01*
X16996590Y46140733D01*
X16999999Y46140284D01*
X17000000Y46140284D01*
X17000001Y46140284D01*
X17016446Y46142450D01*
X17157806Y46161060D01*
X17304858Y46221970D01*
X17431134Y46318866D01*
X17528030Y46445142D01*
X17588940Y46592194D01*
X17609716Y46750000D01*
X17588940Y46907806D01*
X17536528Y47034341D01*
X17528031Y47054856D01*
X17528030Y47054857D01*
X17528030Y47054858D01*
X17431134Y47181134D01*
X17304858Y47278030D01*
X17304857Y47278031D01*
X17304855Y47278032D01*
X17157809Y47338939D01*
X17157807Y47338940D01*
X17157806Y47338940D01*
X17078903Y47349328D01*
X17000001Y47359716D01*
X16999999Y47359716D01*
X16842194Y47338940D01*
X16842190Y47338939D01*
X16793520Y47318780D01*
X16724051Y47311313D01*
X16661572Y47342589D01*
X16647695Y47357855D01*
X16565114Y47465475D01*
X16565112Y47465476D01*
X16565112Y47465477D01*
X16438836Y47562373D01*
X16438835Y47562374D01*
X16438833Y47562375D01*
X16291787Y47623282D01*
X16291785Y47623283D01*
X16291784Y47623283D01*
X16212881Y47633671D01*
X16133979Y47644059D01*
X16133977Y47644059D01*
X15976172Y47623283D01*
X15976168Y47623282D01*
X15829122Y47562375D01*
X15702844Y47465477D01*
X15605946Y47339199D01*
X15545039Y47192153D01*
X15545038Y47192149D01*
X15524262Y47034344D01*
X15524262Y47034341D01*
X15536241Y46943344D01*
X15529829Y46884763D01*
X15526278Y46875006D01*
X15518811Y46832658D01*
X15517640Y46827377D01*
X15506513Y46785851D01*
X15510261Y46743023D01*
X15510497Y46737616D01*
X15510497Y45871685D01*
X15490812Y45804646D01*
X15438008Y45758891D01*
X15368850Y45748947D01*
X15311012Y45773308D01*
X15304857Y45778031D01*
X15157809Y45838939D01*
X15157807Y45838940D01*
X15157806Y45838940D01*
X15078903Y45849328D01*
X15000001Y45859716D01*
X14999999Y45859716D01*
X14842194Y45838940D01*
X14842190Y45838939D01*
X14695144Y45778032D01*
X14568866Y45681134D01*
X14471968Y45554856D01*
X14411061Y45407810D01*
X14411060Y45407806D01*
X14391006Y45255481D01*
X14390284Y45250000D01*
X14407380Y45120142D01*
X14411060Y45092195D01*
X14411061Y45092191D01*
X14471968Y44945145D01*
X14471969Y44945143D01*
X14471970Y44945142D01*
X14568866Y44818866D01*
X14695142Y44721970D01*
X14695143Y44721970D01*
X14695144Y44721969D01*
X14744159Y44701667D01*
X14842194Y44661060D01*
X14952683Y44646514D01*
X15016579Y44618248D01*
X15055050Y44559923D01*
X15060497Y44523575D01*
X15060497Y42771004D01*
X15040812Y42703965D01*
X14988008Y42658210D01*
X14918850Y42648266D01*
X14889047Y42656442D01*
X14872806Y42663169D01*
X14872804Y42663170D01*
X14872803Y42663170D01*
X14793900Y42673558D01*
X14714998Y42683946D01*
X14714996Y42683946D01*
X14557191Y42663170D01*
X14557187Y42663169D01*
X14410141Y42602262D01*
X14283863Y42505364D01*
X14186965Y42379086D01*
X14126058Y42232040D01*
X14126057Y42232036D01*
X14107218Y42088939D01*
X14105281Y42074230D01*
X14115119Y41999501D01*
X14126057Y41916425D01*
X14126058Y41916421D01*
X14186965Y41769375D01*
X14186966Y41769373D01*
X14186967Y41769372D01*
X14283863Y41643096D01*
X14410139Y41546200D01*
X14410140Y41546200D01*
X14410141Y41546199D01*
X14557180Y41485294D01*
X14557183Y41485293D01*
X14557191Y41485290D01*
X14557198Y41485289D01*
X14563579Y41483580D01*
X14623244Y41447222D01*
X14653781Y41384378D01*
X14655500Y41363801D01*
X14655500Y37746460D01*
X14635815Y37679421D01*
X14583011Y37633666D01*
X14513853Y37623722D01*
X14456014Y37648084D01*
X14364858Y37718030D01*
X14364856Y37718031D01*
X14217809Y37778939D01*
X14217807Y37778940D01*
X14217806Y37778940D01*
X14138903Y37789328D01*
X14060001Y37799716D01*
X14059998Y37799716D01*
X13894685Y37777952D01*
X13825650Y37788718D01*
X13773394Y37835098D01*
X13754500Y37900891D01*
X13754500Y39548914D01*
X13774185Y39615953D01*
X13803010Y39647287D01*
X13831134Y39668866D01*
X13928030Y39795142D01*
X13988940Y39942194D01*
X14009716Y40100000D01*
X13988940Y40257806D01*
X13928030Y40404858D01*
X13831134Y40531134D01*
X13704858Y40628030D01*
X13704857Y40628031D01*
X13704855Y40628032D01*
X13557809Y40688939D01*
X13557807Y40688940D01*
X13557806Y40688940D01*
X13478903Y40699328D01*
X13400001Y40709716D01*
X13399999Y40709716D01*
X13242194Y40688940D01*
X13242190Y40688939D01*
X13095144Y40628032D01*
X12968866Y40531134D01*
X12871968Y40404856D01*
X12811061Y40257810D01*
X12811060Y40257806D01*
X12790284Y40100000D01*
X12808855Y39958939D01*
X12811060Y39942195D01*
X12811061Y39942191D01*
X12871968Y39795145D01*
X12871969Y39795143D01*
X12871970Y39795142D01*
X12926699Y39723818D01*
X12964269Y39674856D01*
X12968866Y39668866D01*
X13016987Y39631942D01*
X13058189Y39575516D01*
X13065500Y39533567D01*
X13065500Y38064953D01*
X13059360Y38044044D01*
X13064019Y38034156D01*
X13065500Y38015050D01*
X13065500Y37090992D01*
X13045815Y37023953D01*
X12993011Y36978198D01*
X12923853Y36968254D01*
X12860297Y36997279D01*
X12843126Y37015503D01*
X12831135Y37031129D01*
X12819203Y37040285D01*
X12704858Y37128026D01*
X12704857Y37128027D01*
X12704855Y37128028D01*
X12557809Y37188935D01*
X12557807Y37188936D01*
X12557806Y37188936D01*
X12519718Y37193951D01*
X12392244Y37210734D01*
X12328347Y37239001D01*
X12289877Y37297326D01*
X12289046Y37367191D01*
X12326119Y37426414D01*
X12360979Y37448235D01*
X12367800Y37451061D01*
X12367805Y37451061D01*
X12514857Y37511971D01*
X12641133Y37608867D01*
X12738029Y37735143D01*
X12798939Y37882195D01*
X12818561Y38031237D01*
X12821068Y38036904D01*
X12818561Y38048767D01*
X12813612Y38086354D01*
X12798939Y38197807D01*
X12749005Y38318360D01*
X12738030Y38344857D01*
X12738029Y38344858D01*
X12738029Y38344859D01*
X12641133Y38471135D01*
X12514857Y38568031D01*
X12514856Y38568032D01*
X12514854Y38568033D01*
X12367808Y38628940D01*
X12367806Y38628941D01*
X12367805Y38628941D01*
X12288902Y38639329D01*
X12210000Y38649717D01*
X12209998Y38649717D01*
X12052193Y38628941D01*
X12052189Y38628940D01*
X11905143Y38568033D01*
X11778865Y38471135D01*
X11681967Y38344857D01*
X11621060Y38197811D01*
X11621059Y38197807D01*
X11600283Y38040002D01*
X11600283Y38039999D01*
X11606554Y37992362D01*
X11595788Y37923327D01*
X11571296Y37888497D01*
X10568945Y36886145D01*
X10564956Y36882490D01*
X10532031Y36854862D01*
X10532025Y36854856D01*
X10510533Y36817630D01*
X10507627Y36813068D01*
X10482960Y36777839D01*
X10481794Y36775339D01*
X10472233Y36752259D01*
X10471281Y36749642D01*
X10463814Y36707298D01*
X10462643Y36702017D01*
X10451516Y36660491D01*
X10455264Y36617663D01*
X10455500Y36612256D01*
X10455500Y22426101D01*
X10446061Y22378649D01*
X10385860Y22233310D01*
X10385859Y22233306D01*
X10366909Y22089366D01*
X10365083Y22075500D01*
X9537705Y22075500D01*
X9573057Y22136731D01*
X9624045Y22307042D01*
X9634382Y22484520D01*
X9603511Y22659599D01*
X9568735Y22740217D01*
X9560258Y22809568D01*
X9590621Y22872496D01*
X9650184Y22909018D01*
X9650507Y22909105D01*
X9657797Y22911059D01*
X9657806Y22911060D01*
X9804858Y22971970D01*
X9931134Y23068866D01*
X10028030Y23195142D01*
X10088940Y23342194D01*
X10109716Y23500000D01*
X10088940Y23657806D01*
X10073937Y23694025D01*
X10064500Y23741475D01*
X10064500Y40025948D01*
X10084185Y40092987D01*
X10100814Y40113624D01*
X12348489Y42361300D01*
X12409810Y42394783D01*
X12452354Y42396556D01*
X12499993Y42390284D01*
X12499994Y42390284D01*
X12499995Y42390284D01*
X12516440Y42392450D01*
X12657800Y42411060D01*
X12804852Y42471970D01*
X12931128Y42568866D01*
X13028024Y42695142D01*
X13088934Y42842194D01*
X13109710Y43000000D01*
X13088934Y43157806D01*
X13048327Y43255841D01*
X13028025Y43304856D01*
X13028024Y43304857D01*
X13028024Y43304858D01*
X12931128Y43431134D01*
X12804852Y43528030D01*
X12804851Y43528031D01*
X12804849Y43528032D01*
X12657803Y43588939D01*
X12657801Y43588940D01*
X12657800Y43588940D01*
X12557128Y43602194D01*
X12499995Y43609716D01*
X12499993Y43609716D01*
X12342188Y43588940D01*
X12342184Y43588939D01*
X12195138Y43528032D01*
X12068860Y43431134D01*
X11971962Y43304856D01*
X11911055Y43157810D01*
X11911054Y43157806D01*
X11890278Y43000001D01*
X11890278Y42999998D01*
X11896549Y42952361D01*
X11885783Y42883326D01*
X11861291Y42848496D01*
X9669780Y40656985D01*
X9608457Y40623500D01*
X9538765Y40628484D01*
X9482832Y40670356D01*
X9482636Y40670617D01*
X9477712Y40677231D01*
X9426933Y40745439D01*
X9290746Y40859714D01*
X9290048Y40860065D01*
X9131881Y40939500D01*
X9120299Y40942245D01*
X8958890Y40980500D01*
X8825708Y40980500D01*
X8709958Y40966971D01*
X8693422Y40965038D01*
X8693419Y40965037D01*
X8526366Y40904235D01*
X8526364Y40904234D01*
X8426638Y40838644D01*
X8359810Y40818252D01*
X8292567Y40837227D01*
X8246256Y40889544D01*
X8234500Y40942245D01*
X8234500Y42034568D01*
X8254185Y42101607D01*
X8306989Y42147362D01*
X8376147Y42157306D01*
X8438206Y42129557D01*
X8449254Y42120286D01*
X8449256Y42120285D01*
X8608118Y42040501D01*
X8608119Y42040501D01*
X8608123Y42040499D01*
X8781110Y41999500D01*
X8781113Y41999500D01*
X8914285Y41999500D01*
X8914292Y41999500D01*
X9046577Y42014962D01*
X9213635Y42075766D01*
X9362168Y42173457D01*
X9484167Y42302769D01*
X9573057Y42456731D01*
X9624045Y42627042D01*
X9634382Y42804520D01*
X9603511Y42979599D01*
X9533096Y43142838D01*
X9517169Y43164231D01*
X9426932Y43285440D01*
X9290746Y43399714D01*
X9290744Y43399715D01*
X9131881Y43479500D01*
X9120299Y43482245D01*
X8958890Y43520500D01*
X8825708Y43520500D01*
X8709958Y43506971D01*
X8693422Y43505038D01*
X8693419Y43505037D01*
X8526366Y43444235D01*
X8526364Y43444234D01*
X8426638Y43378644D01*
X8359810Y43358252D01*
X8292567Y43377227D01*
X8246256Y43429544D01*
X8234500Y43482245D01*
X8234500Y44574568D01*
X8254185Y44641607D01*
X8306989Y44687362D01*
X8376147Y44697306D01*
X8438206Y44669557D01*
X8449254Y44660286D01*
X8449256Y44660285D01*
X8608118Y44580501D01*
X8608119Y44580501D01*
X8608123Y44580499D01*
X8781110Y44539500D01*
X8781113Y44539500D01*
X8914285Y44539500D01*
X8914292Y44539500D01*
X9046577Y44554962D01*
X9213635Y44615766D01*
X9362168Y44713457D01*
X9484167Y44842769D01*
X9573057Y44996731D01*
X9624045Y45167042D01*
X9634382Y45344520D01*
X9603511Y45519599D01*
X9533096Y45682838D01*
X9517403Y45703917D01*
X9426932Y45825440D01*
X9290746Y45939714D01*
X9290744Y45939715D01*
X9131881Y46019500D01*
X9131877Y46019501D01*
X8958890Y46060500D01*
X8825708Y46060500D01*
X8709958Y46046971D01*
X8693422Y46045038D01*
X8693419Y46045037D01*
X8526367Y45984236D01*
X8377828Y45886541D01*
X8355188Y45862543D01*
X8294864Y45827289D01*
X8225057Y45830244D01*
X8188817Y45852797D01*
X8187582Y45851186D01*
X8176466Y45859716D01*
X8054858Y45953030D01*
X8054857Y45953031D01*
X8054855Y45953032D01*
X7907809Y46013939D01*
X7907807Y46013940D01*
X7907806Y46013940D01*
X7828903Y46024328D01*
X7750001Y46034716D01*
X7749999Y46034716D01*
X7592194Y46013940D01*
X7592190Y46013939D01*
X7445144Y45953032D01*
X7318866Y45856134D01*
X7221968Y45729856D01*
X7211224Y45703917D01*
X7167382Y45649514D01*
X7101087Y45627451D01*
X7033388Y45644732D01*
X6997201Y45677324D01*
X6993096Y45682838D01*
X6886933Y45825439D01*
X6870844Y45838939D01*
X6750746Y45939714D01*
X6750744Y45939715D01*
X6591881Y46019500D01*
X6591877Y46019501D01*
X6418890Y46060500D01*
X6285708Y46060500D01*
X6169958Y46046971D01*
X6153422Y46045038D01*
X6153419Y46045037D01*
X5986367Y45984236D01*
X5918675Y45939714D01*
X5837832Y45886543D01*
X5837831Y45886543D01*
X5837831Y45886542D01*
X5715833Y45757233D01*
X5626944Y45603272D01*
X5575955Y45432959D01*
X5575954Y45432954D01*
X5565618Y45255481D01*
X5565618Y45255480D01*
X5596488Y45080404D01*
X5666904Y44917161D01*
X5740082Y44818867D01*
X5773067Y44774561D01*
X5909254Y44660286D01*
X5986406Y44621539D01*
X6068118Y44580501D01*
X6068119Y44580501D01*
X6068123Y44580499D01*
X6241110Y44539500D01*
X6241113Y44539500D01*
X6374285Y44539500D01*
X6374292Y44539500D01*
X6506577Y44554962D01*
X6673635Y44615766D01*
X6822168Y44713457D01*
X6944167Y44842769D01*
X7033057Y44996731D01*
X7043107Y45030303D01*
X7081190Y45088878D01*
X7144898Y45117567D01*
X7214003Y45107259D01*
X7260272Y45070225D01*
X7318863Y44993869D01*
X7318864Y44993868D01*
X7318866Y44993866D01*
X7445142Y44896970D01*
X7468951Y44887109D01*
X7523355Y44843269D01*
X7545421Y44776975D01*
X7545500Y44772547D01*
X7545500Y42266131D01*
X7525815Y42199092D01*
X7473011Y42153337D01*
X7403853Y42143393D01*
X7340297Y42172418D01*
X7333819Y42178450D01*
X7331139Y42181130D01*
X7286490Y42215391D01*
X7204858Y42278030D01*
X7204857Y42278031D01*
X7204855Y42278032D01*
X7107867Y42318205D01*
X7053463Y42362046D01*
X7031398Y42428340D01*
X7036528Y42468327D01*
X7084045Y42627042D01*
X7094382Y42804520D01*
X7063511Y42979599D01*
X6993096Y43142838D01*
X6977169Y43164231D01*
X6886932Y43285440D01*
X6750746Y43399714D01*
X6750744Y43399715D01*
X6591881Y43479500D01*
X6580299Y43482245D01*
X6418890Y43520500D01*
X6285708Y43520500D01*
X6169958Y43506971D01*
X6153422Y43505038D01*
X6153419Y43505037D01*
X5986367Y43444236D01*
X5918675Y43399714D01*
X5837832Y43346543D01*
X5837831Y43346543D01*
X5837831Y43346542D01*
X5715833Y43217233D01*
X5626944Y43063272D01*
X5575955Y42892959D01*
X5575954Y42892954D01*
X5565618Y42715481D01*
X5565618Y42715480D01*
X5596488Y42540404D01*
X5666904Y42377161D01*
X5740704Y42278032D01*
X5773067Y42234561D01*
X5909254Y42120286D01*
X5971669Y42088940D01*
X6068118Y42040501D01*
X6068119Y42040501D01*
X6068123Y42040499D01*
X6211692Y42006473D01*
X6272383Y41971858D01*
X6304727Y41909926D01*
X6306033Y41869630D01*
X6292834Y41769372D01*
X6290284Y41750000D01*
X6310291Y41598032D01*
X6311060Y41592195D01*
X6311061Y41592191D01*
X6371968Y41445145D01*
X6371969Y41445143D01*
X6371970Y41445142D01*
X6468866Y41318866D01*
X6595142Y41221970D01*
X6595143Y41221970D01*
X6595144Y41221969D01*
X6627372Y41208620D01*
X6742190Y41161062D01*
X6742191Y41161061D01*
X6742194Y41161060D01*
X6747681Y41160338D01*
X6811577Y41132076D01*
X6850051Y41073754D01*
X6855500Y41037399D01*
X6855500Y41008140D01*
X6835815Y40941101D01*
X6783011Y40895346D01*
X6713853Y40885402D01*
X6675850Y40897329D01*
X6591879Y40939500D01*
X6591878Y40939501D01*
X6591877Y40939501D01*
X6418890Y40980500D01*
X6285708Y40980500D01*
X6169958Y40966971D01*
X6153422Y40965038D01*
X6153419Y40965037D01*
X5986367Y40904236D01*
X5918675Y40859714D01*
X5837832Y40806543D01*
X5837831Y40806543D01*
X5837831Y40806542D01*
X5715833Y40677233D01*
X5626944Y40523272D01*
X5575955Y40352959D01*
X5575954Y40352954D01*
X5565618Y40175481D01*
X5565618Y40175480D01*
X5596488Y40000404D01*
X5666904Y39837161D01*
X5734729Y39746057D01*
X5773067Y39694561D01*
X5909254Y39580286D01*
X5946447Y39561607D01*
X6068118Y39500501D01*
X6068119Y39500501D01*
X6068123Y39500499D01*
X6241110Y39459500D01*
X6241113Y39459500D01*
X6374285Y39459500D01*
X6374292Y39459500D01*
X6506577Y39474962D01*
X6673635Y39535766D01*
X6673644Y39535773D01*
X6675841Y39536875D01*
X6677523Y39537181D01*
X6680422Y39538236D01*
X6680602Y39537741D01*
X6744583Y39549376D01*
X6809172Y39522728D01*
X6849100Y39465391D01*
X6855500Y39426068D01*
X6855500Y38468140D01*
X6835815Y38401101D01*
X6783011Y38355346D01*
X6713853Y38345402D01*
X6675850Y38357329D01*
X6591879Y38399500D01*
X6591878Y38399501D01*
X6591877Y38399501D01*
X6418890Y38440500D01*
X6285708Y38440500D01*
X6169958Y38426971D01*
X6153422Y38425038D01*
X6153419Y38425037D01*
X5986367Y38364236D01*
X5918675Y38319714D01*
X5837832Y38266543D01*
X5837831Y38266543D01*
X5837831Y38266542D01*
X5715833Y38137233D01*
X5626944Y37983272D01*
X5575955Y37812959D01*
X5575954Y37812954D01*
X5565618Y37635481D01*
X5565618Y37635480D01*
X5596488Y37460404D01*
X5666904Y37297161D01*
X5747476Y37188935D01*
X5773067Y37154561D01*
X5909254Y37040286D01*
X5970801Y37009376D01*
X6068118Y36960501D01*
X6068119Y36960501D01*
X6068123Y36960499D01*
X6241110Y36919500D01*
X6241113Y36919500D01*
X6374285Y36919500D01*
X6374292Y36919500D01*
X6506577Y36934962D01*
X6673635Y36995766D01*
X6673644Y36995773D01*
X6675841Y36996875D01*
X6677523Y36997181D01*
X6680422Y36998236D01*
X6680602Y36997741D01*
X6744583Y37009376D01*
X6809172Y36982728D01*
X6849100Y36925391D01*
X6855500Y36886068D01*
X6855500Y35928140D01*
X6835815Y35861101D01*
X6783011Y35815346D01*
X6713853Y35805402D01*
X6675850Y35817329D01*
X6591879Y35859500D01*
X6591878Y35859501D01*
X6591877Y35859501D01*
X6418890Y35900500D01*
X6285708Y35900500D01*
X6169958Y35886971D01*
X6153422Y35885038D01*
X6153419Y35885037D01*
X5986367Y35824236D01*
X5918675Y35779714D01*
X5837832Y35726543D01*
X5837831Y35726543D01*
X5837831Y35726542D01*
X5715833Y35597233D01*
X5626944Y35443272D01*
X5575955Y35272959D01*
X5575954Y35272954D01*
X5565618Y35095481D01*
X5565618Y35095480D01*
X5595603Y34925422D01*
X5596489Y34920401D01*
X5613935Y34879957D01*
X5666904Y34757161D01*
X5754391Y34639647D01*
X5773067Y34614561D01*
X5909254Y34500286D01*
X5946447Y34481607D01*
X6068118Y34420501D01*
X6068119Y34420501D01*
X6068123Y34420499D01*
X6241110Y34379500D01*
X6241113Y34379500D01*
X6374285Y34379500D01*
X6374292Y34379500D01*
X6506577Y34394962D01*
X6673635Y34455766D01*
X6673644Y34455773D01*
X6675841Y34456875D01*
X6677523Y34457181D01*
X6680422Y34458236D01*
X6680602Y34457741D01*
X6744583Y34469376D01*
X6809172Y34442728D01*
X6849100Y34385391D01*
X6855500Y34346068D01*
X6855500Y33388140D01*
X6835815Y33321101D01*
X6783011Y33275346D01*
X6713853Y33265402D01*
X6675850Y33277329D01*
X6591879Y33319500D01*
X6591878Y33319501D01*
X6591877Y33319501D01*
X6418890Y33360500D01*
X6285708Y33360500D01*
X6169958Y33346971D01*
X6153422Y33345038D01*
X6153418Y33345037D01*
X5981273Y33282382D01*
X5911544Y33277951D01*
X5850488Y33311922D01*
X5817491Y33373509D01*
X5823029Y33443159D01*
X5824288Y33446323D01*
X5838940Y33481694D01*
X5859716Y33639500D01*
X5838940Y33797306D01*
X5778030Y33944358D01*
X5681134Y34070634D01*
X5554858Y34167530D01*
X5554857Y34167531D01*
X5554855Y34167532D01*
X5407809Y34228439D01*
X5407807Y34228440D01*
X5407806Y34228440D01*
X5308722Y34241485D01*
X5250001Y34249216D01*
X5249999Y34249216D01*
X5092194Y34228440D01*
X5015951Y34196860D01*
X4946482Y34189393D01*
X4884003Y34220668D01*
X4848351Y34280758D01*
X4844500Y34311422D01*
X4844500Y38191240D01*
X4864185Y38258279D01*
X4893011Y38289614D01*
X4931134Y38318866D01*
X5028030Y38445142D01*
X5088940Y38592194D01*
X5109716Y38750000D01*
X5088940Y38907806D01*
X5028030Y39054858D01*
X4931134Y39181134D01*
X4804858Y39278030D01*
X4804857Y39278031D01*
X4804855Y39278032D01*
X4657809Y39338939D01*
X4657807Y39338940D01*
X4657806Y39338940D01*
X4578903Y39349328D01*
X4500001Y39359716D01*
X4499999Y39359716D01*
X4342194Y39338940D01*
X4342190Y39338939D01*
X4195143Y39278031D01*
X4195141Y39278030D01*
X4179202Y39265799D01*
X4114033Y39240605D01*
X4045588Y39254644D01*
X3995598Y39303458D01*
X3979716Y39364175D01*
X3979716Y39370001D01*
X3977298Y39388360D01*
X3958940Y39527806D01*
X3915178Y39633459D01*
X3898031Y39674856D01*
X3898030Y39674857D01*
X3898030Y39674858D01*
X3801134Y39801134D01*
X3674858Y39898030D01*
X3674857Y39898031D01*
X3674855Y39898032D01*
X3527809Y39958939D01*
X3527807Y39958940D01*
X3527806Y39958940D01*
X3398066Y39976021D01*
X3370001Y39979716D01*
X3369999Y39979716D01*
X3212194Y39958940D01*
X3212190Y39958939D01*
X3195950Y39952212D01*
X3126481Y39944745D01*
X3064002Y39976021D01*
X3028351Y40036110D01*
X3024500Y40066774D01*
X3024500Y40511240D01*
X3044185Y40578279D01*
X3073011Y40609614D01*
X3111134Y40638866D01*
X3208030Y40765142D01*
X3268940Y40912194D01*
X3289716Y41070000D01*
X3268940Y41227806D01*
X3208030Y41374858D01*
X3111134Y41501134D01*
X2984858Y41598030D01*
X2984857Y41598031D01*
X2984855Y41598032D01*
X2837809Y41658939D01*
X2837807Y41658940D01*
X2837806Y41658940D01*
X2758903Y41669328D01*
X2680001Y41679716D01*
X2679999Y41679716D01*
X2522194Y41658940D01*
X2522190Y41658939D01*
X2375144Y41598032D01*
X2248866Y41501134D01*
X2151968Y41374856D01*
X2091061Y41227810D01*
X2091060Y41227806D01*
X2070284Y41070001D01*
X2070284Y41070000D01*
X2091060Y40912195D01*
X2091061Y40912191D01*
X2151968Y40765145D01*
X2151969Y40765143D01*
X2151970Y40765142D01*
X2248866Y40638866D01*
X2286987Y40609615D01*
X2328189Y40553188D01*
X2335500Y40511240D01*
X2335500Y38200916D01*
X2315815Y38133877D01*
X2263011Y38088122D01*
X2193853Y38078178D01*
X2164050Y38086354D01*
X2157809Y38088939D01*
X2157807Y38088940D01*
X2157806Y38088940D01*
X2071657Y38100282D01*
X2000001Y38109716D01*
X1999999Y38109716D01*
X1842194Y38088940D01*
X1775951Y38061502D01*
X1706482Y38054035D01*
X1644003Y38085310D01*
X1608351Y38145400D01*
X1604500Y38176064D01*
X1604500Y41216445D01*
X1624185Y41283484D01*
X1640814Y41304121D01*
X2981425Y42644733D01*
X3001279Y42660855D01*
X3010582Y42666932D01*
X3032640Y42695274D01*
X3037729Y42701037D01*
X3040581Y42703887D01*
X3054294Y42723094D01*
X3088375Y42766881D01*
X3088376Y42766887D01*
X3092159Y42773874D01*
X3095653Y42781022D01*
X3102649Y42804520D01*
X3103566Y42807602D01*
X3111479Y42834182D01*
X3116393Y42848496D01*
X3129500Y42886673D01*
X3129500Y42886676D01*
X3130802Y42894479D01*
X3131792Y42902413D01*
X3129500Y42957836D01*
X3129500Y43468097D01*
X3149185Y43535136D01*
X3178015Y43566473D01*
X3181134Y43568866D01*
X3278030Y43695142D01*
X3338940Y43842194D01*
X3359716Y44000000D01*
X3338940Y44157806D01*
X3285000Y44288030D01*
X3278031Y44304856D01*
X3278030Y44304857D01*
X3278030Y44304858D01*
X3181134Y44431134D01*
X3054858Y44528030D01*
X3054857Y44528031D01*
X3054855Y44528032D01*
X2907809Y44588939D01*
X2907807Y44588940D01*
X2907806Y44588940D01*
X2828903Y44599328D01*
X2750001Y44609716D01*
X2749999Y44609716D01*
X2592194Y44588940D01*
X2592190Y44588939D01*
X2445144Y44528032D01*
X2318866Y44431134D01*
X2221968Y44304856D01*
X2161061Y44157810D01*
X2161060Y44157806D01*
X2140284Y44000001D01*
X2140284Y44000000D01*
X2161059Y43842197D01*
X2161059Y43842195D01*
X2161060Y43842194D01*
X2215299Y43711248D01*
X2218325Y43683097D01*
X2245814Y43664011D01*
X2247611Y43661726D01*
X2287520Y43609716D01*
X2303946Y43588309D01*
X2318866Y43568866D01*
X2321983Y43566475D01*
X2323946Y43563786D01*
X2324609Y43563123D01*
X2324505Y43563020D01*
X2363187Y43510051D01*
X2370500Y43468097D01*
X2370500Y43158557D01*
X2350815Y43091518D01*
X2334181Y43070876D01*
X2306826Y43043521D01*
X2245503Y43010036D01*
X2175811Y43015020D01*
X2119878Y43056892D01*
X2095461Y43122356D01*
X2096205Y43147383D01*
X2109716Y43250000D01*
X2088940Y43407806D01*
X2042261Y43520500D01*
X2034701Y43538753D01*
X2031674Y43566905D01*
X2004185Y43585991D01*
X2002396Y43588265D01*
X1931134Y43681134D01*
X1804858Y43778030D01*
X1804857Y43778031D01*
X1804855Y43778032D01*
X1657809Y43838939D01*
X1657807Y43838940D01*
X1657806Y43838940D01*
X1578903Y43849328D01*
X1500001Y43859716D01*
X1499999Y43859716D01*
X1342194Y43838940D01*
X1342190Y43838939D01*
X1195144Y43778032D01*
X1068866Y43681134D01*
X971968Y43554856D01*
X911061Y43407810D01*
X911060Y43407806D01*
X890284Y43250000D01*
X904392Y43142838D01*
X911060Y43092195D01*
X911061Y43092191D01*
X971969Y42945144D01*
X971970Y42945142D01*
X1008442Y42897610D01*
X1033636Y42832440D01*
X1019597Y42763996D01*
X997747Y42734443D01*
X512181Y42248876D01*
X450858Y42215391D01*
X381167Y42220375D01*
X325233Y42262246D01*
X300816Y42327711D01*
X300500Y42336557D01*
X300500Y47795480D01*
X5565618Y47795480D01*
X5596488Y47620404D01*
X5666904Y47457161D01*
X5754917Y47338940D01*
X5773067Y47314561D01*
X5909254Y47200286D01*
X5947389Y47181134D01*
X6068118Y47120501D01*
X6068119Y47120501D01*
X6068123Y47120499D01*
X6241110Y47079500D01*
X6241113Y47079500D01*
X6374285Y47079500D01*
X6374292Y47079500D01*
X6506577Y47094962D01*
X6673635Y47155766D01*
X6822168Y47253457D01*
X6944167Y47382769D01*
X7033057Y47536731D01*
X7084045Y47707042D01*
X7089131Y47794372D01*
X7112680Y47860151D01*
X7168055Y47902759D01*
X7237674Y47908664D01*
X7256491Y47903253D01*
X7265976Y47899693D01*
X7321345Y47889645D01*
X7487450Y47859500D01*
X7487453Y47859500D01*
X7656148Y47859500D01*
X7656155Y47859500D01*
X7824188Y47874623D01*
X7948770Y47909006D01*
X8018627Y47907867D01*
X8076782Y47869139D01*
X8104766Y47805118D01*
X8105546Y47796698D01*
X8105616Y47795489D01*
X8136488Y47620404D01*
X8206904Y47457161D01*
X8294917Y47338940D01*
X8313067Y47314561D01*
X8449254Y47200286D01*
X8487389Y47181134D01*
X8608118Y47120501D01*
X8608119Y47120501D01*
X8608123Y47120499D01*
X8781110Y47079500D01*
X8781113Y47079500D01*
X8914285Y47079500D01*
X8914292Y47079500D01*
X9046577Y47094962D01*
X9213635Y47155766D01*
X9362168Y47253457D01*
X9484167Y47382769D01*
X9573057Y47536731D01*
X9624045Y47707042D01*
X9634382Y47884520D01*
X9603511Y48059599D01*
X9533096Y48222838D01*
X9426933Y48365439D01*
X9376437Y48407810D01*
X9290746Y48479714D01*
X9290744Y48479715D01*
X9131881Y48559500D01*
X9131877Y48559501D01*
X8958890Y48600500D01*
X8921860Y48600500D01*
X8854821Y48620185D01*
X8809066Y48672989D01*
X8799122Y48742147D01*
X8800969Y48752092D01*
X8827621Y48868866D01*
X8844191Y48941463D01*
X8854290Y49166330D01*
X8824075Y49389387D01*
X8802007Y49457303D01*
X8800013Y49527141D01*
X8836093Y49586974D01*
X8898793Y49617803D01*
X8912725Y49619409D01*
X8914284Y49619500D01*
X8914292Y49619500D01*
X9046577Y49634962D01*
X9213635Y49695766D01*
X9362168Y49793457D01*
X9484167Y49922769D01*
X9573057Y50076731D01*
X9624045Y50247042D01*
X9634382Y50424520D01*
X9603511Y50599599D01*
X9533096Y50762838D01*
X9426933Y50905439D01*
X9354112Y50966543D01*
X9290746Y51019714D01*
X9290744Y51019715D01*
X9131881Y51099500D01*
X9131877Y51099501D01*
X8958890Y51140500D01*
X8825708Y51140500D01*
X8709958Y51126971D01*
X8693422Y51125038D01*
X8693419Y51125037D01*
X8526367Y51064236D01*
X8458675Y51019714D01*
X8377832Y50966543D01*
X8377831Y50966543D01*
X8377831Y50966542D01*
X8255833Y50837233D01*
X8166944Y50683272D01*
X8115955Y50512959D01*
X8115954Y50512954D01*
X8110868Y50425630D01*
X8087318Y50359849D01*
X8031943Y50317242D01*
X7962323Y50311337D01*
X7943507Y50316748D01*
X7934022Y50320308D01*
X7712550Y50360500D01*
X7712547Y50360500D01*
X7543845Y50360500D01*
X7505399Y50357040D01*
X7375813Y50345378D01*
X7375807Y50345377D01*
X7251231Y50310995D01*
X7181370Y50312135D01*
X7123217Y50350863D01*
X7095233Y50414884D01*
X7094452Y50423317D01*
X7094381Y50424512D01*
X7094382Y50424520D01*
X7063511Y50599599D01*
X6993096Y50762838D01*
X6886933Y50905439D01*
X6814112Y50966543D01*
X6750746Y51019714D01*
X6750744Y51019715D01*
X6591881Y51099500D01*
X6591877Y51099501D01*
X6418890Y51140500D01*
X6285708Y51140500D01*
X6169958Y51126971D01*
X6153422Y51125038D01*
X6153419Y51125037D01*
X5986367Y51064236D01*
X5918675Y51019714D01*
X5837832Y50966543D01*
X5837831Y50966543D01*
X5837831Y50966542D01*
X5715833Y50837233D01*
X5626944Y50683272D01*
X5575955Y50512959D01*
X5575954Y50512954D01*
X5565618Y50335481D01*
X5565618Y50335480D01*
X5580769Y50249550D01*
X5596489Y50160401D01*
X5599776Y50152781D01*
X5666904Y49997161D01*
X5747473Y49888939D01*
X5773067Y49854561D01*
X5909254Y49740286D01*
X5987990Y49700743D01*
X6068118Y49660501D01*
X6068119Y49660501D01*
X6068123Y49660499D01*
X6241110Y49619500D01*
X6241113Y49619500D01*
X6278140Y49619500D01*
X6345179Y49599815D01*
X6390934Y49547011D01*
X6400878Y49477853D01*
X6399031Y49467908D01*
X6355810Y49278543D01*
X6355808Y49278532D01*
X6346397Y49068977D01*
X6345710Y49053670D01*
X6375925Y48830613D01*
X6375926Y48830609D01*
X6397991Y48762700D01*
X6399986Y48692859D01*
X6363906Y48633026D01*
X6301205Y48602198D01*
X6287299Y48600594D01*
X6285737Y48600503D01*
X6285711Y48600500D01*
X6285708Y48600500D01*
X6197775Y48590222D01*
X6153422Y48585038D01*
X6153419Y48585037D01*
X5986367Y48524236D01*
X5918675Y48479714D01*
X5837832Y48426543D01*
X5837831Y48426543D01*
X5837831Y48426542D01*
X5715833Y48297233D01*
X5626944Y48143272D01*
X5575955Y47972959D01*
X5575954Y47972954D01*
X5565618Y47795481D01*
X5565618Y47795480D01*
X300500Y47795480D01*
X300500Y50497787D01*
X300658Y50502211D01*
X313607Y50683269D01*
X317165Y50733023D01*
X319683Y50750530D01*
X367459Y50970149D01*
X372436Y50987100D01*
X450985Y51197701D01*
X458325Y51213773D01*
X566044Y51411044D01*
X575600Y51425914D01*
X710294Y51605844D01*
X721868Y51619201D01*
X880799Y51778132D01*
X894156Y51789706D01*
X1074086Y51924400D01*
X1088956Y51933956D01*
X1286227Y52041675D01*
X1302299Y52049015D01*
X1512900Y52127564D01*
X1529851Y52132541D01*
X1749472Y52180318D01*
X1766977Y52182835D01*
X1997791Y52199343D01*
X2002214Y52199500D01*
X2047595Y52199500D01*
X18952405Y52199500D01*
X18996951Y52199500D01*
X19003031Y52199201D01*
G37*
G04 #@! TD.AperFunction*
M02*
