G04 #@! TF.GenerationSoftware,KiCad,Pcbnew,7.0.9-7.0.9~ubuntu22.04.1*
G04 #@! TF.CreationDate,2023-12-06T13:17:01-05:00*
G04 #@! TF.ProjectId,caravel-breakout-qfn,63617261-7665-46c2-9d62-7265616b6f75,2.3*
G04 #@! TF.SameCoordinates,PX2dc6c00PY42c1d80*
G04 #@! TF.FileFunction,Paste,Top*
G04 #@! TF.FilePolarity,Positive*
%FSLAX46Y46*%
G04 Gerber Fmt 4.6, Leading zero omitted, Abs format (unit mm)*
G04 Created by KiCad (PCBNEW 7.0.9-7.0.9~ubuntu22.04.1) date 2023-12-06 13:17:01*
%MOMM*%
%LPD*%
G01*
G04 APERTURE LIST*
G04 Aperture macros list*
%AMRoundRect*
0 Rectangle with rounded corners*
0 $1 Rounding radius*
0 $2 $3 $4 $5 $6 $7 $8 $9 X,Y pos of 4 corners*
0 Add a 4 corners polygon primitive as box body*
4,1,4,$2,$3,$4,$5,$6,$7,$8,$9,$2,$3,0*
0 Add four circle primitives for the rounded corners*
1,1,$1+$1,$2,$3*
1,1,$1+$1,$4,$5*
1,1,$1+$1,$6,$7*
1,1,$1+$1,$8,$9*
0 Add four rect primitives between the rounded corners*
20,1,$1+$1,$2,$3,$4,$5,0*
20,1,$1+$1,$4,$5,$6,$7,0*
20,1,$1+$1,$6,$7,$8,$9,0*
20,1,$1+$1,$8,$9,$2,$3,0*%
G04 Aperture macros list end*
%ADD10RoundRect,0.250000X0.265000X0.265000X-0.265000X0.265000X-0.265000X-0.265000X0.265000X-0.265000X0*%
%ADD11RoundRect,0.062500X0.362500X0.062500X-0.362500X0.062500X-0.362500X-0.062500X0.362500X-0.062500X0*%
%ADD12RoundRect,0.062500X0.062500X0.362500X-0.062500X0.362500X-0.062500X-0.362500X0.062500X-0.362500X0*%
%ADD13RoundRect,0.140000X0.170000X-0.140000X0.170000X0.140000X-0.170000X0.140000X-0.170000X-0.140000X0*%
%ADD14RoundRect,0.140000X0.140000X0.170000X-0.140000X0.170000X-0.140000X-0.170000X0.140000X-0.170000X0*%
%ADD15RoundRect,0.140000X-0.170000X0.140000X-0.170000X-0.140000X0.170000X-0.140000X0.170000X0.140000X0*%
%ADD16RoundRect,0.102000X-0.898000X-0.408000X0.898000X-0.408000X0.898000X0.408000X-0.898000X0.408000X0*%
G04 APERTURE END LIST*
D10*
X24200000Y30420000D03*
X21640000Y29140000D03*
X17800000Y31700000D03*
X21640000Y30420000D03*
X19080000Y31700000D03*
X17800000Y27860000D03*
X19080000Y29140000D03*
X22920000Y29140000D03*
X19080000Y30420000D03*
X19080000Y27860000D03*
X20360000Y26580000D03*
X21640000Y31700000D03*
X19080000Y25300000D03*
X17800000Y29140000D03*
X19080000Y26580000D03*
X20360000Y30420000D03*
X17800000Y25300000D03*
X20360000Y27860000D03*
X17800000Y30420000D03*
X24200000Y26580000D03*
X22920000Y26580000D03*
X24200000Y27860000D03*
X22920000Y27860000D03*
X21640000Y27860000D03*
X22920000Y31700000D03*
X20360000Y29140000D03*
X24200000Y29140000D03*
X22920000Y30420000D03*
X24200000Y25300000D03*
X21640000Y25300000D03*
X24200000Y31700000D03*
X17800000Y26580000D03*
X20360000Y31700000D03*
X20360000Y25300000D03*
X22920000Y25300000D03*
X21640000Y26580000D03*
D11*
X25450000Y24750000D03*
X25450000Y25250000D03*
X25450000Y25750000D03*
X25450000Y26250000D03*
X25450000Y26750000D03*
X25450000Y27250000D03*
X25450000Y27750000D03*
X25450000Y28250000D03*
X25450000Y28750000D03*
X25450000Y29250000D03*
X25450000Y29750000D03*
X25450000Y30250000D03*
X25450000Y30750000D03*
X25450000Y31250000D03*
X25450000Y31750000D03*
X25450000Y32250000D03*
D12*
X24750000Y32950000D03*
X24250000Y32950000D03*
X23750000Y32950000D03*
X23250000Y32950000D03*
X22750000Y32950000D03*
X22250000Y32950000D03*
X21750000Y32950000D03*
X21250000Y32950000D03*
X20750000Y32950000D03*
X20250000Y32950000D03*
X19750000Y32950000D03*
X19250000Y32950000D03*
X18750000Y32950000D03*
X18250000Y32950000D03*
X17750000Y32950000D03*
X17250000Y32950000D03*
D11*
X16550000Y32250000D03*
X16550000Y31750000D03*
X16550000Y31250000D03*
X16550000Y30750000D03*
X16550000Y30250000D03*
X16550000Y29750000D03*
X16550000Y29250000D03*
X16550000Y28750000D03*
X16550000Y28250000D03*
X16550000Y27750000D03*
X16550000Y27250000D03*
X16550000Y26750000D03*
X16550000Y26250000D03*
X16550000Y25750000D03*
X16550000Y25250000D03*
X16550000Y24750000D03*
D12*
X17250000Y24050000D03*
X17750000Y24050000D03*
X18250000Y24050000D03*
X18750000Y24050000D03*
X19250000Y24050000D03*
X19750000Y24050000D03*
X20250000Y24050000D03*
X20750000Y24050000D03*
X21250000Y24050000D03*
X21750000Y24050000D03*
X22250000Y24050000D03*
X22750000Y24050000D03*
X23250000Y24050000D03*
X23750000Y24050000D03*
X24250000Y24050000D03*
X24750000Y24050000D03*
D13*
X25000000Y21740000D03*
X25000000Y22700000D03*
X16900000Y21770000D03*
X16900000Y22730000D03*
D14*
X14880000Y29000000D03*
X13920000Y29000000D03*
D15*
X25450000Y35400000D03*
X25450000Y34440000D03*
X24450000Y35380000D03*
X24450000Y34420000D03*
D13*
X18400000Y34520000D03*
X18400000Y35480000D03*
D14*
X28230000Y28850000D03*
X27270000Y28850000D03*
D16*
X34550000Y50380000D03*
X40250000Y50380000D03*
X34550000Y47840000D03*
X40250000Y47840000D03*
X34550000Y45300000D03*
X40250000Y45300000D03*
X34550000Y42760000D03*
X40250000Y42760000D03*
X34550000Y40220000D03*
X40250000Y40220000D03*
X34550000Y37680000D03*
X40250000Y37680000D03*
X34550000Y35140000D03*
X40250000Y35140000D03*
X34550000Y32600000D03*
X40250000Y32600000D03*
X34550000Y30060000D03*
X40250000Y30060000D03*
X34550000Y27520000D03*
X40250000Y27520000D03*
X34550000Y24980000D03*
X40250000Y24980000D03*
X34550000Y22440000D03*
X40250000Y22440000D03*
X34550000Y19900000D03*
X40250000Y19900000D03*
X34550000Y17360000D03*
X40250000Y17360000D03*
X34550000Y14820000D03*
X40250000Y14820000D03*
X34550000Y12280000D03*
X40250000Y12280000D03*
X34550000Y9740000D03*
X40250000Y9740000D03*
X34550000Y7200000D03*
X40250000Y7200000D03*
X34550000Y4660000D03*
X40250000Y4660000D03*
X34550000Y2120000D03*
X40250000Y2120000D03*
D13*
X26050000Y21720000D03*
X26050000Y22680000D03*
D14*
X14880000Y25000000D03*
X13920000Y25000000D03*
D16*
X4750000Y50380000D03*
X10450000Y50380000D03*
X4750000Y47840000D03*
X10450000Y47840000D03*
X4750000Y45300000D03*
X10450000Y45300000D03*
X4750000Y42760000D03*
X10450000Y42760000D03*
X4750000Y40220000D03*
X10450000Y40220000D03*
X4750000Y37680000D03*
X10450000Y37680000D03*
X4750000Y35140000D03*
X10450000Y35140000D03*
X4750000Y32600000D03*
X10450000Y32600000D03*
X4750000Y30060000D03*
X10450000Y30060000D03*
X4750000Y27520000D03*
X10450000Y27520000D03*
X4750000Y24980000D03*
X10450000Y24980000D03*
X4750000Y22440000D03*
X10450000Y22440000D03*
X4750000Y19900000D03*
X10450000Y19900000D03*
X4750000Y17360000D03*
X10450000Y17360000D03*
X4750000Y14820000D03*
X10450000Y14820000D03*
X4750000Y12280000D03*
X10450000Y12280000D03*
X4750000Y9740000D03*
X10450000Y9740000D03*
X4750000Y7200000D03*
X10450000Y7200000D03*
X4750000Y4660000D03*
X10450000Y4660000D03*
X4750000Y2120000D03*
X10450000Y2120000D03*
M02*
